export const midiData = {
  "header": {
    "PPQ": 480,
    "timeSignature": [
      4,
      4
    ],
    "bpm": 109.99970666744889,
    "name": ""
  },
  "tempo": [
    {
      "absoluteTime": 0,
      "seconds": 0,
      "bpm": 109.99970666744889
    },
    {
      "absoluteTime": 148320,
      "seconds": 168.5459039999978,
      "bpm": 109.99970666744889
    },
    {
      "absoluteTime": 148560,
      "seconds": 168.81863199999776,
      "bpm": 108.60003692401256
    },
    {
      "absoluteTime": 148800,
      "seconds": 169.09135999999774,
      "bpm": 107.29978307560522
    },
    {
      "absoluteTime": 149040,
      "seconds": 169.3640879999977,
      "bpm": 105.90004447801869
    },
    {
      "absoluteTime": 149280,
      "seconds": 169.63681599999768,
      "bpm": 104.50012365847967
    },
    {
      "absoluteTime": 149520,
      "seconds": 169.90954399999765,
      "bpm": 103.20006192003716
    },
    {
      "absoluteTime": 149760,
      "seconds": 170.18227199999762,
      "bpm": 101.80016627360492
    },
    {
      "absoluteTime": 150000,
      "seconds": 170.4549999999976,
      "bpm": 100.49998743750157
    },
    {
      "absoluteTime": 150240,
      "seconds": 170.72772799999757,
      "bpm": 99.10017045229318
    },
    {
      "absoluteTime": 150480,
      "seconds": 171.00045599999754,
      "bpm": 97.69982055799625
    },
    {
      "absoluteTime": 150720,
      "seconds": 171.2731839999975,
      "bpm": 96.40025385400182
    },
    {
      "absoluteTime": 150960,
      "seconds": 171.5459119999975,
      "bpm": 94.99984166693055
    },
    {
      "absoluteTime": 151200,
      "seconds": 171.81863999999746,
      "bpm": 93.59994758402935
    },
    {
      "absoluteTime": 151440,
      "seconds": 172.09136799999743,
      "bpm": 92.29974033006387
    },
    {
      "absoluteTime": 151680,
      "seconds": 172.36409599999743,
      "bpm": 90.90000090900001
    },
    {
      "absoluteTime": 151920,
      "seconds": 172.63682399999743,
      "bpm": 89.5001417085577
    },
    {
      "absoluteTime": 152160,
      "seconds": 172.90955199999743,
      "bpm": 88.20001411200226
    }
  ],
  "timeSignature": [
    {
      "absoluteTime": 0,
      "seconds": 0,
      "numerator": 4,
      "denominator": 2,
      "click": 24,
      "notesQ": 8
    }
  ],
  "startTime": 0,
  "duration": 176.61751643333173,
  "tracks": [
    {
      "startTime": 0,
      "duration": 176.61751643333074,
      "length": 802,
      "notes": [
        {
          "name": "F5",
          "midi": 77,
          "time": 0,
          "velocity": 0.3858267716535433,
          "duration": 0.2579552333333333
        },
        {
          "name": "G#4",
          "midi": 68,
          "time": 0.27272799999999997,
          "velocity": 0.3858267716535433,
          "duration": 0.25795523333333337
        },
        {
          "name": "F5",
          "midi": 77,
          "time": 0.545456,
          "velocity": 0.3858267716535433,
          "duration": 0.25795523333333337
        },
        {
          "name": "G#4",
          "midi": 68,
          "time": 0.8181840000000001,
          "velocity": 0.3858267716535433,
          "duration": 0.25795523333333337
        },
        {
          "name": "F5",
          "midi": 77,
          "time": 1.090912,
          "velocity": 0.3858267716535433,
          "duration": 0.25795523333333326
        },
        {
          "name": "G#4",
          "midi": 68,
          "time": 1.36364,
          "velocity": 0.3858267716535433,
          "duration": 0.25795523333333326
        },
        {
          "name": "F5",
          "midi": 77,
          "time": 1.6363679999999998,
          "velocity": 0.3858267716535433,
          "duration": 0.25795523333333326
        },
        {
          "name": "G#4",
          "midi": 68,
          "time": 1.9090959999999997,
          "velocity": 0.3858267716535433,
          "duration": 0.25795523333333326
        },
        {
          "name": "C5",
          "midi": 72,
          "time": 2.1818239999999998,
          "velocity": 0.3858267716535433,
          "duration": 0.2579552333333335
        },
        {
          "name": "D#4",
          "midi": 63,
          "time": 2.454552,
          "velocity": 0.3858267716535433,
          "duration": 0.2579552333333335
        },
        {
          "name": "C5",
          "midi": 72,
          "time": 2.7272800000000004,
          "velocity": 0.3858267716535433,
          "duration": 0.2579552333333335
        },
        {
          "name": "D#4",
          "midi": 63,
          "time": 3.0000080000000007,
          "velocity": 0.3858267716535433,
          "duration": 0.2579552333333335
        },
        {
          "name": "C5",
          "midi": 72,
          "time": 3.272736000000001,
          "velocity": 0.3858267716535433,
          "duration": 0.2579552333333335
        },
        {
          "name": "D#4",
          "midi": 63,
          "time": 3.5454640000000013,
          "velocity": 0.3858267716535433,
          "duration": 0.2579552333333335
        },
        {
          "name": "C5",
          "midi": 72,
          "time": 3.8181920000000016,
          "velocity": 0.3858267716535433,
          "duration": 0.25795523333333303
        },
        {
          "name": "D#4",
          "midi": 63,
          "time": 4.0909200000000014,
          "velocity": 0.3858267716535433,
          "duration": 0.25795523333333303
        },
        {
          "name": "C#5",
          "midi": 73,
          "time": 4.363648000000001,
          "velocity": 0.3858267716535433,
          "duration": 0.25795523333333303
        },
        {
          "name": "F4",
          "midi": 65,
          "time": 4.636376000000001,
          "velocity": 0.3858267716535433,
          "duration": 0.25795523333333303
        },
        {
          "name": "C#5",
          "midi": 73,
          "time": 4.909104000000001,
          "velocity": 0.3858267716535433,
          "duration": 0.25795523333333303
        },
        {
          "name": "F4",
          "midi": 65,
          "time": 5.181832000000001,
          "velocity": 0.3858267716535433,
          "duration": 0.25795523333333303
        },
        {
          "name": "C#5",
          "midi": 73,
          "time": 5.454560000000001,
          "velocity": 0.3858267716535433,
          "duration": 0.25795523333333303
        },
        {
          "name": "F4",
          "midi": 65,
          "time": 5.727288000000001,
          "velocity": 0.3858267716535433,
          "duration": 0.25795523333333303
        },
        {
          "name": "C#5",
          "midi": 73,
          "time": 6.0000160000000005,
          "velocity": 0.3858267716535433,
          "duration": 0.25795523333333303
        },
        {
          "name": "F4",
          "midi": 65,
          "time": 6.272744,
          "velocity": 0.3858267716535433,
          "duration": 0.25795523333333303
        },
        {
          "name": "A#4",
          "midi": 70,
          "time": 6.545472,
          "velocity": 0.3858267716535433,
          "duration": 0.25795523333333303
        },
        {
          "name": "C#4",
          "midi": 61,
          "time": 6.8182,
          "velocity": 0.3858267716535433,
          "duration": 0.25795523333333303
        },
        {
          "name": "A#4",
          "midi": 70,
          "time": 7.090928,
          "velocity": 0.3858267716535433,
          "duration": 0.25795523333333303
        },
        {
          "name": "C#4",
          "midi": 61,
          "time": 7.363656,
          "velocity": 0.3858267716535433,
          "duration": 0.25795523333333303
        },
        {
          "name": "A#4",
          "midi": 70,
          "time": 7.636384,
          "velocity": 0.3858267716535433,
          "duration": 0.25795523333333303
        },
        {
          "name": "C#4",
          "midi": 61,
          "time": 7.9091119999999995,
          "velocity": 0.3858267716535433,
          "duration": 0.25795523333333303
        },
        {
          "name": "G#4",
          "midi": 68,
          "time": 8.18184,
          "velocity": 0.3858267716535433,
          "duration": 0.2579552333333339
        },
        {
          "name": "C#4",
          "midi": 61,
          "time": 8.454568,
          "velocity": 0.3858267716535433,
          "duration": 0.2579552333333339
        },
        {
          "name": "G#4",
          "midi": 68,
          "time": 9.000024,
          "velocity": 0.5039370078740157,
          "duration": 0.2579552333333339
        },
        {
          "name": "G#4",
          "midi": 68,
          "time": 9.272752,
          "velocity": 0.5039370078740157,
          "duration": 0.2579552333333339
        },
        {
          "name": "F4",
          "midi": 65,
          "time": 9.545480000000001,
          "velocity": 0.5039370078740157,
          "duration": 0.2579552333333339
        },
        {
          "name": "G#4",
          "midi": 68,
          "time": 9.818208000000002,
          "velocity": 0.5039370078740157,
          "duration": 0.2579552333333339
        },
        {
          "name": "F4",
          "midi": 65,
          "time": 10.090936000000003,
          "velocity": 0.5039370078740157,
          "duration": 0.2579552333333339
        },
        {
          "name": "G#4",
          "midi": 68,
          "time": 10.363664000000004,
          "velocity": 0.5039370078740157,
          "duration": 0.2579552333333339
        },
        {
          "name": "F4",
          "midi": 65,
          "time": 10.636392000000004,
          "velocity": 0.5039370078740157,
          "duration": 0.2579552333333339
        },
        {
          "name": "C4",
          "midi": 60,
          "time": 10.909120000000005,
          "velocity": 0.5039370078740157,
          "duration": 0.2579552333333339
        },
        {
          "name": "A#4",
          "midi": 70,
          "time": 10.909120000000005,
          "velocity": 0.5039370078740157,
          "duration": 0.2579552333333339
        },
        {
          "name": "C5",
          "midi": 72,
          "time": 11.181848000000006,
          "velocity": 0.5039370078740157,
          "duration": 0.2579552333333339
        },
        {
          "name": "A#4",
          "midi": 70,
          "time": 11.454576000000007,
          "velocity": 0.5039370078740157,
          "duration": 0.2579552333333339
        },
        {
          "name": "G#4",
          "midi": 68,
          "time": 11.727304000000007,
          "velocity": 0.5039370078740157,
          "duration": 0.2579552333333339
        },
        {
          "name": "G#4",
          "midi": 68,
          "time": 12.000032000000008,
          "velocity": 0.5039370078740157,
          "duration": 0.2579552333333339
        },
        {
          "name": "A#4",
          "midi": 70,
          "time": 12.272760000000009,
          "velocity": 0.5039370078740157,
          "duration": 0.2579552333333339
        },
        {
          "name": "G#4",
          "midi": 68,
          "time": 12.54548800000001,
          "velocity": 0.5039370078740157,
          "duration": 0.2579552333333339
        },
        {
          "name": "F4",
          "midi": 65,
          "time": 12.81821600000001,
          "velocity": 0.5039370078740157,
          "duration": 0.5170468333333336
        },
        {
          "name": "C#4",
          "midi": 61,
          "time": 13.090944000000011,
          "velocity": 0.5039370078740157,
          "duration": 0.25795523333333215
        },
        {
          "name": "D#4",
          "midi": 63,
          "time": 13.36367200000001,
          "velocity": 0.5039370078740157,
          "duration": 1.8125048333333336
        },
        {
          "name": "A#3",
          "midi": 58,
          "time": 15.27276800000001,
          "velocity": 0.5039370078740157,
          "duration": 0.5170468333333336
        },
        {
          "name": "G#4",
          "midi": 68,
          "time": 17.72732000000001,
          "velocity": 0.5039370078740157,
          "duration": 0.2579552333333339
        },
        {
          "name": "G#4",
          "midi": 68,
          "time": 18.00004800000001,
          "velocity": 0.5039370078740157,
          "duration": 0.2579552333333339
        },
        {
          "name": "F4",
          "midi": 65,
          "time": 18.27277600000001,
          "velocity": 0.5039370078740157,
          "duration": 0.2579552333333339
        },
        {
          "name": "G#4",
          "midi": 68,
          "time": 18.54550400000001,
          "velocity": 0.5039370078740157,
          "duration": 0.2579552333333339
        },
        {
          "name": "F4",
          "midi": 65,
          "time": 18.818232000000013,
          "velocity": 0.5039370078740157,
          "duration": 0.2579552333333339
        },
        {
          "name": "G#4",
          "midi": 68,
          "time": 19.090960000000013,
          "velocity": 0.5039370078740157,
          "duration": 0.2579552333333339
        },
        {
          "name": "F4",
          "midi": 65,
          "time": 19.363688000000014,
          "velocity": 0.5039370078740157,
          "duration": 0.2579552333333339
        },
        {
          "name": "A#4",
          "midi": 70,
          "time": 19.636416000000015,
          "velocity": 0.5039370078740157,
          "duration": 0.2579552333333339
        },
        {
          "name": "C5",
          "midi": 72,
          "time": 19.909144000000015,
          "velocity": 0.5039370078740157,
          "duration": 0.2579552333333339
        },
        {
          "name": "A#4",
          "midi": 70,
          "time": 20.181872000000016,
          "velocity": 0.5039370078740157,
          "duration": 0.2579552333333339
        },
        {
          "name": "G#4",
          "midi": 68,
          "time": 20.454600000000017,
          "velocity": 0.5039370078740157,
          "duration": 0.2579552333333339
        },
        {
          "name": "G#4",
          "midi": 68,
          "time": 20.727328000000018,
          "velocity": 0.5039370078740157,
          "duration": 0.2579552333333339
        },
        {
          "name": "A#4",
          "midi": 70,
          "time": 21.00005600000002,
          "velocity": 0.5039370078740157,
          "duration": 0.2579552333333339
        },
        {
          "name": "G#4",
          "midi": 68,
          "time": 21.27278400000002,
          "velocity": 0.5039370078740157,
          "duration": 0.2579552333333339
        },
        {
          "name": "F4",
          "midi": 65,
          "time": 21.54551200000002,
          "velocity": 0.5039370078740157,
          "duration": 0.5170468333333318
        },
        {
          "name": "D#4",
          "midi": 63,
          "time": 22.090968000000018,
          "velocity": 0.5039370078740157,
          "duration": 1.8125048333333318
        },
        {
          "name": "A#3",
          "midi": 58,
          "time": 24.000064000000016,
          "velocity": 0.5039370078740157,
          "duration": 0.2579552333333339
        },
        {
          "name": "A#4",
          "midi": 70,
          "time": 24.272792000000017,
          "velocity": 0.5039370078740157,
          "duration": 0.2579552333333339
        },
        {
          "name": "A#4",
          "midi": 70,
          "time": 24.545520000000018,
          "velocity": 0.5039370078740157,
          "duration": 0.2579552333333339
        },
        {
          "name": "G#4",
          "midi": 68,
          "time": 24.81824800000002,
          "velocity": 0.5039370078740157,
          "duration": 0.2579552333333339
        },
        {
          "name": "A#4",
          "midi": 70,
          "time": 25.09097600000002,
          "velocity": 0.5039370078740157,
          "duration": 0.2579552333333339
        },
        {
          "name": "G#4",
          "midi": 68,
          "time": 25.36370400000002,
          "velocity": 0.5039370078740157,
          "duration": 0.2579552333333339
        },
        {
          "name": "G#4",
          "midi": 68,
          "time": 25.63643200000002,
          "velocity": 0.5039370078740157,
          "duration": 0.2579552333333339
        },
        {
          "name": "D#5",
          "midi": 75,
          "time": 25.90916000000002,
          "velocity": 0.5039370078740157,
          "duration": 0.2579552333333339
        },
        {
          "name": "G#4",
          "midi": 68,
          "time": 26.181888000000022,
          "velocity": 0.5039370078740157,
          "duration": 0.7761384333333332
        },
        {
          "name": "F5",
          "midi": 77,
          "time": 26.181888000000022,
          "velocity": 0.5039370078740157,
          "duration": 0.7761384333333332
        },
        {
          "name": "G#4",
          "midi": 68,
          "time": 27.00007200000002,
          "velocity": 0.5039370078740157,
          "duration": 0.2579552333333339
        },
        {
          "name": "A#4",
          "midi": 70,
          "time": 27.27280000000002,
          "velocity": 0.5039370078740157,
          "duration": 0.2579552333333339
        },
        {
          "name": "G#4",
          "midi": 68,
          "time": 27.545528000000022,
          "velocity": 0.5039370078740157,
          "duration": 0.2579552333333339
        },
        {
          "name": "F5",
          "midi": 77,
          "time": 27.818256000000023,
          "velocity": 0.5039370078740157,
          "duration": 0.2579552333333339
        },
        {
          "name": "C#5",
          "midi": 73,
          "time": 28.090984000000024,
          "velocity": 0.5039370078740157,
          "duration": 0.2579552333333339
        },
        {
          "name": "G#4",
          "midi": 68,
          "time": 28.363712000000024,
          "velocity": 0.5039370078740157,
          "duration": 0.7761384333333332
        },
        {
          "name": "D#5",
          "midi": 75,
          "time": 28.363712000000024,
          "velocity": 0.5039370078740157,
          "duration": 0.7761384333333332
        },
        {
          "name": "G#4",
          "midi": 68,
          "time": 29.181896000000023,
          "velocity": 0.5039370078740157,
          "duration": 0.2579552333333339
        },
        {
          "name": "G#4",
          "midi": 68,
          "time": 29.454624000000024,
          "velocity": 0.5039370078740157,
          "duration": 0.2579552333333339
        },
        {
          "name": "G#4",
          "midi": 68,
          "time": 29.727352000000025,
          "velocity": 0.5039370078740157,
          "duration": 0.2579552333333339
        },
        {
          "name": "G#4",
          "midi": 68,
          "time": 30.000080000000025,
          "velocity": 0.5039370078740157,
          "duration": 0.2579552333333339
        },
        {
          "name": "C#5",
          "midi": 73,
          "time": 30.272808000000026,
          "velocity": 0.5039370078740157,
          "duration": 0.2579552333333339
        },
        {
          "name": "F4",
          "midi": 65,
          "time": 30.545536000000027,
          "velocity": 0.5039370078740157,
          "duration": 0.7761384333333332
        },
        {
          "name": "D#5",
          "midi": 75,
          "time": 30.545536000000027,
          "velocity": 0.5039370078740157,
          "duration": 0.7761384333333332
        },
        {
          "name": "F5",
          "midi": 77,
          "time": 31.363720000000026,
          "velocity": 0.5039370078740157,
          "duration": 0.2579552333333339
        },
        {
          "name": "A#4",
          "midi": 70,
          "time": 31.636448000000026,
          "velocity": 0.5039370078740157,
          "duration": 0.2579552333333339
        },
        {
          "name": "F5",
          "midi": 77,
          "time": 31.636448000000026,
          "velocity": 0.5039370078740157,
          "duration": 0.2579552333333339
        },
        {
          "name": "D#5",
          "midi": 75,
          "time": 31.909176000000027,
          "velocity": 0.5039370078740157,
          "duration": 0.25795523333333037
        },
        {
          "name": "C#5",
          "midi": 73,
          "time": 32.181904000000024,
          "velocity": 0.5039370078740157,
          "duration": 0.2579552333333339
        },
        {
          "name": "A#4",
          "midi": 70,
          "time": 32.454632000000025,
          "velocity": 0.5039370078740157,
          "duration": 0.2579552333333339
        },
        {
          "name": "A#3",
          "midi": 58,
          "time": 32.727360000000026,
          "velocity": 0.5039370078740157,
          "duration": 0.5170468333333318
        },
        {
          "name": "G#4",
          "midi": 68,
          "time": 32.727360000000026,
          "velocity": 0.5039370078740157,
          "duration": 0.5170468333333318
        },
        {
          "name": "G#4",
          "midi": 68,
          "time": 33.54554400000002,
          "velocity": 0.5039370078740157,
          "duration": 0.2579552333333339
        },
        {
          "name": "A#4",
          "midi": 70,
          "time": 33.81827200000002,
          "velocity": 0.5039370078740157,
          "duration": 0.2579552333333339
        },
        {
          "name": "G#4",
          "midi": 68,
          "time": 34.09100000000002,
          "velocity": 0.5039370078740157,
          "duration": 0.2579552333333339
        },
        {
          "name": "G#4",
          "midi": 68,
          "time": 34.36372800000002,
          "velocity": 0.5039370078740157,
          "duration": 0.2579552333333339
        },
        {
          "name": "D#5",
          "midi": 75,
          "time": 34.636456000000024,
          "velocity": 0.5039370078740157,
          "duration": 0.2579552333333339
        },
        {
          "name": "G#4",
          "midi": 68,
          "time": 34.909184000000025,
          "velocity": 0.5039370078740157,
          "duration": 0.6465926333333343
        },
        {
          "name": "F5",
          "midi": 77,
          "time": 34.909184000000025,
          "velocity": 0.5039370078740157,
          "duration": 0.6465926333333343
        },
        {
          "name": "G#4",
          "midi": 68,
          "time": 35.59100400000003,
          "velocity": 0.5039370078740157,
          "duration": 0.12840943333333144
        },
        {
          "name": "G#4",
          "midi": 68,
          "time": 35.72736800000003,
          "velocity": 0.5039370078740157,
          "duration": 0.2579552333333339
        },
        {
          "name": "A#4",
          "midi": 70,
          "time": 36.00009600000003,
          "velocity": 0.5039370078740157,
          "duration": 0.2579552333333339
        },
        {
          "name": "G#4",
          "midi": 68,
          "time": 36.27282400000003,
          "velocity": 0.5039370078740157,
          "duration": 0.2579552333333339
        },
        {
          "name": "F5",
          "midi": 77,
          "time": 36.54555200000003,
          "velocity": 0.5039370078740157,
          "duration": 0.2579552333333339
        },
        {
          "name": "G#4",
          "midi": 68,
          "time": 36.81828000000003,
          "velocity": 0.5039370078740157,
          "duration": 1.0352300333333346
        },
        {
          "name": "D#5",
          "midi": 75,
          "time": 36.81828000000003,
          "velocity": 0.5039370078740157,
          "duration": 1.0352300333333346
        },
        {
          "name": "F5",
          "midi": 77,
          "time": 37.90919200000003,
          "velocity": 0.5039370078740157,
          "duration": 0.2579552333333339
        },
        {
          "name": "G#4",
          "midi": 68,
          "time": 38.181920000000034,
          "velocity": 0.5196850393700787,
          "duration": 0.2579552333333339
        },
        {
          "name": "F5",
          "midi": 77,
          "time": 38.181920000000034,
          "velocity": 0.5196850393700787,
          "duration": 0.2579552333333339
        },
        {
          "name": "G#4",
          "midi": 68,
          "time": 38.454648000000034,
          "velocity": 0.5354330708661418,
          "duration": 0.2579552333333339
        },
        {
          "name": "F5",
          "midi": 77,
          "time": 38.454648000000034,
          "velocity": 0.5354330708661418,
          "duration": 0.2579552333333339
        },
        {
          "name": "G#4",
          "midi": 68,
          "time": 38.727376000000035,
          "velocity": 0.5511811023622047,
          "duration": 0.2579552333333339
        },
        {
          "name": "F5",
          "midi": 77,
          "time": 38.727376000000035,
          "velocity": 0.5511811023622047,
          "duration": 0.2579552333333339
        },
        {
          "name": "G#4",
          "midi": 68,
          "time": 39.000104000000036,
          "velocity": 0.5669291338582677,
          "duration": 0.2579552333333339
        },
        {
          "name": "F5",
          "midi": 77,
          "time": 39.000104000000036,
          "velocity": 0.5669291338582677,
          "duration": 0.2579552333333339
        },
        {
          "name": "F4",
          "midi": 65,
          "time": 39.27283200000004,
          "velocity": 0.5826771653543307,
          "duration": 0.2579552333333339
        },
        {
          "name": "A#4",
          "midi": 70,
          "time": 39.27283200000004,
          "velocity": 0.5826771653543307,
          "duration": 0.2579552333333339
        },
        {
          "name": "F5",
          "midi": 77,
          "time": 39.27283200000004,
          "velocity": 0.5826771653543307,
          "duration": 0.2579552333333339
        },
        {
          "name": "F4",
          "midi": 65,
          "time": 39.54556000000004,
          "velocity": 0.5984251968503937,
          "duration": 0.2579552333333339
        },
        {
          "name": "D#5",
          "midi": 75,
          "time": 39.54556000000004,
          "velocity": 0.5984251968503937,
          "duration": 0.2579552333333339
        },
        {
          "name": "F4",
          "midi": 65,
          "time": 39.81828800000004,
          "velocity": 0.6141732283464567,
          "duration": 0.2579552333333339
        },
        {
          "name": "D#5",
          "midi": 75,
          "time": 39.81828800000004,
          "velocity": 0.6141732283464567,
          "duration": 0.2579552333333339
        },
        {
          "name": "F4",
          "midi": 65,
          "time": 40.09101600000004,
          "velocity": 0.6377952755905512,
          "duration": 0.2579552333333339
        },
        {
          "name": "C#5",
          "midi": 73,
          "time": 40.09101600000004,
          "velocity": 0.6377952755905512,
          "duration": 0.2579552333333339
        },
        {
          "name": "F4",
          "midi": 65,
          "time": 40.36374400000004,
          "velocity": 0.6535433070866141,
          "duration": 0.2579552333333339
        },
        {
          "name": "A#4",
          "midi": 70,
          "time": 40.36374400000004,
          "velocity": 0.6535433070866141,
          "duration": 0.2579552333333339
        },
        {
          "name": "C#5",
          "midi": 73,
          "time": 40.36374400000004,
          "velocity": 0.6535433070866141,
          "duration": 0.2579552333333339
        },
        {
          "name": "F4",
          "midi": 65,
          "time": 40.63647200000004,
          "velocity": 0.6692913385826772,
          "duration": 0.2579552333333339
        },
        {
          "name": "C#5",
          "midi": 73,
          "time": 40.63647200000004,
          "velocity": 0.6692913385826772,
          "duration": 0.2579552333333339
        },
        {
          "name": "F4",
          "midi": 65,
          "time": 40.90920000000004,
          "velocity": 0.6850393700787402,
          "duration": 0.2579552333333339
        },
        {
          "name": "A#4",
          "midi": 70,
          "time": 40.90920000000004,
          "velocity": 0.6850393700787402,
          "duration": 0.2579552333333339
        },
        {
          "name": "D#5",
          "midi": 75,
          "time": 40.90920000000004,
          "velocity": 0.6850393700787402,
          "duration": 0.2579552333333339
        },
        {
          "name": "F4",
          "midi": 65,
          "time": 41.18192800000004,
          "velocity": 0.7007874015748031,
          "duration": 0.2579552333333339
        },
        {
          "name": "D#5",
          "midi": 75,
          "time": 41.18192800000004,
          "velocity": 0.7007874015748031,
          "duration": 0.2579552333333339
        },
        {
          "name": "F#4",
          "midi": 66,
          "time": 41.45465600000004,
          "velocity": 0.7165354330708661,
          "duration": 0.5170468333333318
        },
        {
          "name": "A#4",
          "midi": 70,
          "time": 41.45465600000004,
          "velocity": 0.7165354330708661,
          "duration": 0.5170468333333318
        },
        {
          "name": "C#5",
          "midi": 73,
          "time": 41.45465600000004,
          "velocity": 0.7165354330708661,
          "duration": 0.5170468333333318
        },
        {
          "name": "F#4",
          "midi": 66,
          "time": 42.000112000000044,
          "velocity": 0.7559055118110236,
          "duration": 0.2579552333333339
        },
        {
          "name": "C#5",
          "midi": 73,
          "time": 42.000112000000044,
          "velocity": 0.7559055118110236,
          "duration": 0.2579552333333339
        },
        {
          "name": "C#5",
          "midi": 73,
          "time": 42.272840000000045,
          "velocity": 0.7559055118110236,
          "duration": 0.2579552333333339
        },
        {
          "name": "A#4",
          "midi": 70,
          "time": 42.545568000000046,
          "velocity": 0.7559055118110236,
          "duration": 0.5170468333333318
        },
        {
          "name": "C#5",
          "midi": 73,
          "time": 42.545568000000046,
          "velocity": 0.7559055118110236,
          "duration": 0.5170468333333318
        },
        {
          "name": "F#5",
          "midi": 78,
          "time": 42.545568000000046,
          "velocity": 0.7559055118110236,
          "duration": 0.5170468333333318
        },
        {
          "name": "A#4",
          "midi": 70,
          "time": 43.09102400000005,
          "velocity": 0.7559055118110236,
          "duration": 0.5170468333333318
        },
        {
          "name": "C#5",
          "midi": 73,
          "time": 43.09102400000005,
          "velocity": 0.7559055118110236,
          "duration": 0.5170468333333318
        },
        {
          "name": "F5",
          "midi": 77,
          "time": 43.09102400000005,
          "velocity": 0.7559055118110236,
          "duration": 0.5170468333333318
        },
        {
          "name": "C#4",
          "midi": 61,
          "time": 43.63648000000005,
          "velocity": 0.7559055118110236,
          "duration": 0.5170468333333318
        },
        {
          "name": "F4",
          "midi": 65,
          "time": 43.63648000000005,
          "velocity": 0.7559055118110236,
          "duration": 0.5170468333333318
        },
        {
          "name": "G#4",
          "midi": 68,
          "time": 44.18193600000005,
          "velocity": 0.7559055118110236,
          "duration": 0.2579552333333339
        },
        {
          "name": "C#5",
          "midi": 73,
          "time": 44.18193600000005,
          "velocity": 0.7559055118110236,
          "duration": 0.2579552333333339
        },
        {
          "name": "C#5",
          "midi": 73,
          "time": 44.45466400000005,
          "velocity": 0.7559055118110236,
          "duration": 0.2579552333333339
        },
        {
          "name": "G#4",
          "midi": 68,
          "time": 44.72739200000005,
          "velocity": 0.7559055118110236,
          "duration": 0.2579552333333339
        },
        {
          "name": "C#5",
          "midi": 73,
          "time": 44.72739200000005,
          "velocity": 0.7559055118110236,
          "duration": 0.2579552333333339
        },
        {
          "name": "F5",
          "midi": 77,
          "time": 44.72739200000005,
          "velocity": 0.7559055118110236,
          "duration": 0.2579552333333339
        },
        {
          "name": "G#4",
          "midi": 68,
          "time": 45.00012000000005,
          "velocity": 0.7559055118110236,
          "duration": 0.2579552333333339
        },
        {
          "name": "F#5",
          "midi": 78,
          "time": 45.00012000000005,
          "velocity": 0.7559055118110236,
          "duration": 0.2579552333333339
        },
        {
          "name": "G#4",
          "midi": 68,
          "time": 45.27284800000005,
          "velocity": 0.7559055118110236,
          "duration": 0.5170468333333318
        },
        {
          "name": "C#5",
          "midi": 73,
          "time": 45.27284800000005,
          "velocity": 0.7559055118110236,
          "duration": 0.5170468333333318
        },
        {
          "name": "F5",
          "midi": 77,
          "time": 45.27284800000005,
          "velocity": 0.7559055118110236,
          "duration": 0.5170468333333318
        },
        {
          "name": "G#4",
          "midi": 68,
          "time": 45.818304000000055,
          "velocity": 0.7559055118110236,
          "duration": 0.5170468333333318
        },
        {
          "name": "C5",
          "midi": 72,
          "time": 45.818304000000055,
          "velocity": 0.7559055118110236,
          "duration": 0.5170468333333318
        },
        {
          "name": "D#5",
          "midi": 75,
          "time": 45.818304000000055,
          "velocity": 0.7559055118110236,
          "duration": 0.5170468333333318
        },
        {
          "name": "G#4",
          "midi": 68,
          "time": 46.363760000000056,
          "velocity": 0.7559055118110236,
          "duration": 0.2579552333333339
        },
        {
          "name": "C#5",
          "midi": 73,
          "time": 46.363760000000056,
          "velocity": 0.7559055118110236,
          "duration": 0.2579552333333339
        },
        {
          "name": "C#5",
          "midi": 73,
          "time": 46.63648800000006,
          "velocity": 0.7559055118110236,
          "duration": 0.2579552333333339
        },
        {
          "name": "G#4",
          "midi": 68,
          "time": 46.90921600000006,
          "velocity": 0.7559055118110236,
          "duration": 0.5170468333333318
        },
        {
          "name": "C5",
          "midi": 72,
          "time": 46.90921600000006,
          "velocity": 0.7559055118110236,
          "duration": 0.5170468333333318
        },
        {
          "name": "F#5",
          "midi": 78,
          "time": 46.90921600000006,
          "velocity": 0.7559055118110236,
          "duration": 0.5170468333333318
        },
        {
          "name": "G#4",
          "midi": 68,
          "time": 47.45467200000006,
          "velocity": 0.7559055118110236,
          "duration": 0.2579552333333339
        },
        {
          "name": "F5",
          "midi": 77,
          "time": 47.45467200000006,
          "velocity": 0.7559055118110236,
          "duration": 0.2579552333333339
        },
        {
          "name": "F4",
          "midi": 65,
          "time": 47.72740000000006,
          "velocity": 0.7559055118110236,
          "duration": 0.5170468333333318
        },
        {
          "name": "A#4",
          "midi": 70,
          "time": 47.72740000000006,
          "velocity": 0.7559055118110236,
          "duration": 0.5170468333333318
        },
        {
          "name": "D#5",
          "midi": 75,
          "time": 47.72740000000006,
          "velocity": 0.7559055118110236,
          "duration": 0.5170468333333318
        },
        {
          "name": "C#5",
          "midi": 73,
          "time": 48.27285600000006,
          "velocity": 0.7559055118110236,
          "duration": 0.2579552333333339
        },
        {
          "name": "F4",
          "midi": 65,
          "time": 48.54558400000006,
          "velocity": 0.7559055118110236,
          "duration": 0.2579552333333339
        },
        {
          "name": "C#5",
          "midi": 73,
          "time": 48.54558400000006,
          "velocity": 0.7559055118110236,
          "duration": 0.2579552333333339
        },
        {
          "name": "C#5",
          "midi": 73,
          "time": 48.81831200000006,
          "velocity": 0.7559055118110236,
          "duration": 0.2579552333333339
        },
        {
          "name": "A#4",
          "midi": 70,
          "time": 49.09104000000006,
          "velocity": 0.7559055118110236,
          "duration": 0.2579552333333339
        },
        {
          "name": "C#5",
          "midi": 73,
          "time": 49.09104000000006,
          "velocity": 0.7559055118110236,
          "duration": 0.2579552333333339
        },
        {
          "name": "G#5",
          "midi": 80,
          "time": 49.09104000000006,
          "velocity": 0.7559055118110236,
          "duration": 0.2579552333333339
        },
        {
          "name": "G#5",
          "midi": 80,
          "time": 49.363768000000064,
          "velocity": 0.7559055118110236,
          "duration": 0.2579552333333339
        },
        {
          "name": "A#4",
          "midi": 70,
          "time": 49.636496000000065,
          "velocity": 0.7559055118110236,
          "duration": 0.5170468333333318
        },
        {
          "name": "C#5",
          "midi": 73,
          "time": 49.636496000000065,
          "velocity": 0.7559055118110236,
          "duration": 0.5170468333333318
        },
        {
          "name": "F5",
          "midi": 77,
          "time": 49.636496000000065,
          "velocity": 0.7559055118110236,
          "duration": 0.5170468333333318
        },
        {
          "name": "F#4",
          "midi": 66,
          "time": 50.18195200000007,
          "velocity": 0.7559055118110236,
          "duration": 0.2579552333333339
        },
        {
          "name": "A#4",
          "midi": 70,
          "time": 50.18195200000007,
          "velocity": 0.7559055118110236,
          "duration": 0.2579552333333339
        },
        {
          "name": "D#5",
          "midi": 75,
          "time": 50.18195200000007,
          "velocity": 0.7559055118110236,
          "duration": 0.2579552333333339
        },
        {
          "name": "C#5",
          "midi": 73,
          "time": 50.45468000000007,
          "velocity": 0.7559055118110236,
          "duration": 0.2579552333333339
        },
        {
          "name": "F#4",
          "midi": 66,
          "time": 50.72740800000007,
          "velocity": 0.7559055118110236,
          "duration": 0.2579552333333339
        },
        {
          "name": "C#5",
          "midi": 73,
          "time": 50.72740800000007,
          "velocity": 0.7559055118110236,
          "duration": 0.2579552333333339
        },
        {
          "name": "C#5",
          "midi": 73,
          "time": 51.00013600000007,
          "velocity": 0.7559055118110236,
          "duration": 0.2579552333333339
        },
        {
          "name": "A#4",
          "midi": 70,
          "time": 51.27286400000007,
          "velocity": 0.7559055118110236,
          "duration": 0.5170468333333318
        },
        {
          "name": "C#5",
          "midi": 73,
          "time": 51.27286400000007,
          "velocity": 0.7559055118110236,
          "duration": 0.5170468333333318
        },
        {
          "name": "F#5",
          "midi": 78,
          "time": 51.27286400000007,
          "velocity": 0.7559055118110236,
          "duration": 0.5170468333333318
        },
        {
          "name": "A#4",
          "midi": 70,
          "time": 51.81832000000007,
          "velocity": 0.7559055118110236,
          "duration": 0.2579552333333339
        },
        {
          "name": "C#5",
          "midi": 73,
          "time": 51.81832000000007,
          "velocity": 0.7559055118110236,
          "duration": 0.2579552333333339
        },
        {
          "name": "F5",
          "midi": 77,
          "time": 51.81832000000007,
          "velocity": 0.7559055118110236,
          "duration": 0.2579552333333339
        },
        {
          "name": "F4",
          "midi": 65,
          "time": 52.09104800000007,
          "velocity": 0.7559055118110236,
          "duration": 0.5170468333333318
        },
        {
          "name": "G#4",
          "midi": 68,
          "time": 52.09104800000007,
          "velocity": 0.7559055118110236,
          "duration": 0.5170468333333318
        },
        {
          "name": "D#5",
          "midi": 75,
          "time": 52.09104800000007,
          "velocity": 0.7559055118110236,
          "duration": 0.5170468333333318
        },
        {
          "name": "G#4",
          "midi": 68,
          "time": 52.63650400000007,
          "velocity": 0.7559055118110236,
          "duration": 0.2579552333333339
        },
        {
          "name": "C#5",
          "midi": 73,
          "time": 52.63650400000007,
          "velocity": 0.7559055118110236,
          "duration": 0.2579552333333339
        },
        {
          "name": "C#5",
          "midi": 73,
          "time": 52.909232000000074,
          "velocity": 0.7559055118110236,
          "duration": 0.2579552333333339
        },
        {
          "name": "G#4",
          "midi": 68,
          "time": 53.181960000000075,
          "velocity": 0.7559055118110236,
          "duration": 0.2579552333333339
        },
        {
          "name": "C#5",
          "midi": 73,
          "time": 53.181960000000075,
          "velocity": 0.7559055118110236,
          "duration": 0.2579552333333339
        },
        {
          "name": "G#4",
          "midi": 68,
          "time": 53.454688000000075,
          "velocity": 0.7559055118110236,
          "duration": 0.2579552333333339
        },
        {
          "name": "C#5",
          "midi": 73,
          "time": 53.454688000000075,
          "velocity": 0.7559055118110236,
          "duration": 0.2579552333333339
        },
        {
          "name": "F#5",
          "midi": 78,
          "time": 53.454688000000075,
          "velocity": 0.7559055118110236,
          "duration": 0.2579552333333339
        },
        {
          "name": "G#4",
          "midi": 68,
          "time": 53.727416000000076,
          "velocity": 0.7559055118110236,
          "duration": 0.2579552333333339
        },
        {
          "name": "F#5",
          "midi": 78,
          "time": 53.727416000000076,
          "velocity": 0.7559055118110236,
          "duration": 0.2579552333333339
        },
        {
          "name": "G#4",
          "midi": 68,
          "time": 54.00014400000008,
          "velocity": 0.7559055118110236,
          "duration": 0.2579552333333339
        },
        {
          "name": "F5",
          "midi": 77,
          "time": 54.00014400000008,
          "velocity": 0.7559055118110236,
          "duration": 0.2579552333333339
        },
        {
          "name": "G#4",
          "midi": 68,
          "time": 54.27287200000008,
          "velocity": 0.7559055118110236,
          "duration": 0.7761384333333297
        },
        {
          "name": "C5",
          "midi": 72,
          "time": 54.27287200000008,
          "velocity": 0.7559055118110236,
          "duration": 0.7761384333333297
        },
        {
          "name": "D#5",
          "midi": 75,
          "time": 54.27287200000008,
          "velocity": 0.7559055118110236,
          "duration": 0.7761384333333297
        },
        {
          "name": "G#4",
          "midi": 68,
          "time": 55.09105600000007,
          "velocity": 0.7559055118110236,
          "duration": 0.2579552333333339
        },
        {
          "name": "F5",
          "midi": 77,
          "time": 55.09105600000007,
          "velocity": 0.7559055118110236,
          "duration": 0.2579552333333339
        },
        {
          "name": "F5",
          "midi": 77,
          "time": 55.363784000000074,
          "velocity": 0.7559055118110236,
          "duration": 0.2579552333333339
        },
        {
          "name": "G#4",
          "midi": 68,
          "time": 55.636512000000074,
          "velocity": 0.7559055118110236,
          "duration": 0.2579552333333339
        },
        {
          "name": "C5",
          "midi": 72,
          "time": 55.636512000000074,
          "velocity": 0.7559055118110236,
          "duration": 0.2579552333333339
        },
        {
          "name": "F5",
          "midi": 77,
          "time": 55.636512000000074,
          "velocity": 0.7559055118110236,
          "duration": 0.2579552333333339
        },
        {
          "name": "G#4",
          "midi": 68,
          "time": 55.909240000000075,
          "velocity": 0.7559055118110236,
          "duration": 0.2579552333333339
        },
        {
          "name": "F5",
          "midi": 77,
          "time": 55.909240000000075,
          "velocity": 0.7559055118110236,
          "duration": 0.2579552333333339
        },
        {
          "name": "G#4",
          "midi": 68,
          "time": 56.181968000000076,
          "velocity": 0.7559055118110236,
          "duration": 0.2579552333333339
        },
        {
          "name": "C5",
          "midi": 72,
          "time": 56.181968000000076,
          "velocity": 0.7559055118110236,
          "duration": 0.2579552333333339
        },
        {
          "name": "F5",
          "midi": 77,
          "time": 56.181968000000076,
          "velocity": 0.7559055118110236,
          "duration": 0.2579552333333339
        },
        {
          "name": "G#4",
          "midi": 68,
          "time": 56.45469600000008,
          "velocity": 0.7559055118110236,
          "duration": 0.2579552333333339
        },
        {
          "name": "F5",
          "midi": 77,
          "time": 56.45469600000008,
          "velocity": 0.7559055118110236,
          "duration": 0.2579552333333339
        },
        {
          "name": "A#4",
          "midi": 70,
          "time": 56.72742400000008,
          "velocity": 0.7559055118110236,
          "duration": 0.2579552333333339
        },
        {
          "name": "C#5",
          "midi": 73,
          "time": 56.72742400000008,
          "velocity": 0.7559055118110236,
          "duration": 0.2579552333333339
        },
        {
          "name": "F5",
          "midi": 77,
          "time": 56.72742400000008,
          "velocity": 0.7559055118110236,
          "duration": 0.2579552333333339
        },
        {
          "name": "D#5",
          "midi": 75,
          "time": 57.00015200000008,
          "velocity": 0.7559055118110236,
          "duration": 0.2579552333333339
        },
        {
          "name": "A#4",
          "midi": 70,
          "time": 57.27288000000008,
          "velocity": 0.7559055118110236,
          "duration": 0.2579552333333339
        },
        {
          "name": "D#5",
          "midi": 75,
          "time": 57.27288000000008,
          "velocity": 0.7559055118110236,
          "duration": 0.2579552333333339
        },
        {
          "name": "C#5",
          "midi": 73,
          "time": 57.54560800000008,
          "velocity": 0.7559055118110236,
          "duration": 0.2579552333333339
        },
        {
          "name": "G#4",
          "midi": 68,
          "time": 57.81833600000008,
          "velocity": 0.7559055118110236,
          "duration": 0.2579552333333339
        },
        {
          "name": "C#5",
          "midi": 73,
          "time": 57.81833600000008,
          "velocity": 0.7559055118110236,
          "duration": 0.2579552333333339
        },
        {
          "name": "F4",
          "midi": 65,
          "time": 58.09106400000008,
          "velocity": 0.7559055118110236,
          "duration": 0.2579552333333339
        },
        {
          "name": "D#5",
          "midi": 75,
          "time": 58.09106400000008,
          "velocity": 0.7559055118110236,
          "duration": 0.2579552333333339
        },
        {
          "name": "A#4",
          "midi": 70,
          "time": 58.36379200000008,
          "velocity": 0.7559055118110236,
          "duration": 0.2579552333333339
        },
        {
          "name": "D#5",
          "midi": 75,
          "time": 58.36379200000008,
          "velocity": 0.7559055118110236,
          "duration": 0.2579552333333339
        },
        {
          "name": "F#4",
          "midi": 66,
          "time": 58.63652000000008,
          "velocity": 0.7559055118110236,
          "duration": 0.5170468333333318
        },
        {
          "name": "A#4",
          "midi": 70,
          "time": 58.63652000000008,
          "velocity": 0.7559055118110236,
          "duration": 0.5170468333333318
        },
        {
          "name": "D#5",
          "midi": 75,
          "time": 58.63652000000008,
          "velocity": 0.7559055118110236,
          "duration": 0.5170468333333318
        },
        {
          "name": "F#4",
          "midi": 66,
          "time": 59.181976000000084,
          "velocity": 0.7559055118110236,
          "duration": 1.8125048333333353
        },
        {
          "name": "A#4",
          "midi": 70,
          "time": 59.181976000000084,
          "velocity": 0.7559055118110236,
          "duration": 1.8125048333333353
        },
        {
          "name": "C#5",
          "midi": 73,
          "time": 59.181976000000084,
          "velocity": 0.7559055118110236,
          "duration": 1.8125048333333353
        },
        {
          "name": "G#4",
          "midi": 68,
          "time": 61.36380000000008,
          "velocity": 0.5039370078740157,
          "duration": 0.2579552333333339
        },
        {
          "name": "G#4",
          "midi": 68,
          "time": 61.636528000000084,
          "velocity": 0.5039370078740157,
          "duration": 0.2579552333333339
        },
        {
          "name": "F4",
          "midi": 65,
          "time": 61.909256000000084,
          "velocity": 0.5039370078740157,
          "duration": 0.2579552333333339
        },
        {
          "name": "G#4",
          "midi": 68,
          "time": 62.181984000000085,
          "velocity": 0.5039370078740157,
          "duration": 0.2579552333333339
        },
        {
          "name": "F4",
          "midi": 65,
          "time": 62.454712000000086,
          "velocity": 0.5039370078740157,
          "duration": 0.2579552333333339
        },
        {
          "name": "G#4",
          "midi": 68,
          "time": 62.72744000000009,
          "velocity": 0.5039370078740157,
          "duration": 0.2579552333333339
        },
        {
          "name": "F4",
          "midi": 65,
          "time": 63.00016800000009,
          "velocity": 0.5039370078740157,
          "duration": 0.2579552333333339
        },
        {
          "name": "C4",
          "midi": 60,
          "time": 63.27289600000009,
          "velocity": 0.5039370078740157,
          "duration": 0.2579552333333339
        },
        {
          "name": "A#4",
          "midi": 70,
          "time": 63.27289600000009,
          "velocity": 0.5039370078740157,
          "duration": 0.2579552333333339
        },
        {
          "name": "C5",
          "midi": 72,
          "time": 63.54562400000009,
          "velocity": 0.5039370078740157,
          "duration": 0.2579552333333339
        },
        {
          "name": "A#4",
          "midi": 70,
          "time": 63.81835200000009,
          "velocity": 0.5039370078740157,
          "duration": 0.2579552333333339
        },
        {
          "name": "G#4",
          "midi": 68,
          "time": 64.09108000000009,
          "velocity": 0.5039370078740157,
          "duration": 0.2579552333333339
        },
        {
          "name": "G#4",
          "midi": 68,
          "time": 64.36380800000009,
          "velocity": 0.5039370078740157,
          "duration": 0.2579552333333339
        },
        {
          "name": "A#4",
          "midi": 70,
          "time": 64.63653600000009,
          "velocity": 0.5039370078740157,
          "duration": 0.2579552333333339
        },
        {
          "name": "G#4",
          "midi": 68,
          "time": 64.90926400000009,
          "velocity": 0.5039370078740157,
          "duration": 0.2579552333333339
        },
        {
          "name": "F4",
          "midi": 65,
          "time": 65.1819920000001,
          "velocity": 0.5039370078740157,
          "duration": 0.5170468333333389
        },
        {
          "name": "C#4",
          "midi": 61,
          "time": 65.4547200000001,
          "velocity": 0.5039370078740157,
          "duration": 0.2579552333333339
        },
        {
          "name": "D#4",
          "midi": 63,
          "time": 65.7274480000001,
          "velocity": 0.5039370078740157,
          "duration": 1.8125048333333353
        },
        {
          "name": "A#3",
          "midi": 58,
          "time": 67.6365440000001,
          "velocity": 0.5039370078740157,
          "duration": 0.5170468333333389
        },
        {
          "name": "G#4",
          "midi": 68,
          "time": 70.0910960000001,
          "velocity": 0.5039370078740157,
          "duration": 0.2579552333333339
        },
        {
          "name": "G#4",
          "midi": 68,
          "time": 70.36382400000011,
          "velocity": 0.5039370078740157,
          "duration": 0.2579552333333339
        },
        {
          "name": "F4",
          "midi": 65,
          "time": 70.63655200000011,
          "velocity": 0.5039370078740157,
          "duration": 0.2579552333333339
        },
        {
          "name": "G#4",
          "midi": 68,
          "time": 70.90928000000011,
          "velocity": 0.5039370078740157,
          "duration": 0.2579552333333339
        },
        {
          "name": "F4",
          "midi": 65,
          "time": 71.18200800000011,
          "velocity": 0.5039370078740157,
          "duration": 0.2579552333333339
        },
        {
          "name": "G#4",
          "midi": 68,
          "time": 71.45473600000011,
          "velocity": 0.5039370078740157,
          "duration": 0.2579552333333339
        },
        {
          "name": "F4",
          "midi": 65,
          "time": 71.72746400000011,
          "velocity": 0.5039370078740157,
          "duration": 0.2579552333333339
        },
        {
          "name": "C4",
          "midi": 60,
          "time": 72.00019200000011,
          "velocity": 0.5039370078740157,
          "duration": 0.2579552333333339
        },
        {
          "name": "A#4",
          "midi": 70,
          "time": 72.00019200000011,
          "velocity": 0.5039370078740157,
          "duration": 0.2579552333333339
        },
        {
          "name": "C5",
          "midi": 72,
          "time": 72.27292000000011,
          "velocity": 0.5039370078740157,
          "duration": 0.2579552333333339
        },
        {
          "name": "A#4",
          "midi": 70,
          "time": 72.54564800000011,
          "velocity": 0.5039370078740157,
          "duration": 0.2579552333333339
        },
        {
          "name": "G#4",
          "midi": 68,
          "time": 72.81837600000011,
          "velocity": 0.5039370078740157,
          "duration": 0.2579552333333339
        },
        {
          "name": "G#4",
          "midi": 68,
          "time": 73.09110400000012,
          "velocity": 0.5039370078740157,
          "duration": 0.2579552333333339
        },
        {
          "name": "A#4",
          "midi": 70,
          "time": 73.36383200000012,
          "velocity": 0.5039370078740157,
          "duration": 0.2579552333333339
        },
        {
          "name": "G#4",
          "midi": 68,
          "time": 73.63656000000012,
          "velocity": 0.5039370078740157,
          "duration": 0.2579552333333339
        },
        {
          "name": "F4",
          "midi": 65,
          "time": 73.90928800000012,
          "velocity": 0.5039370078740157,
          "duration": 0.5170468333333389
        },
        {
          "name": "C#4",
          "midi": 61,
          "time": 74.18201600000012,
          "velocity": 0.5039370078740157,
          "duration": 0.2579552333333339
        },
        {
          "name": "D#4",
          "midi": 63,
          "time": 74.45474400000012,
          "velocity": 0.5039370078740157,
          "duration": 1.8125048333333353
        },
        {
          "name": "A#3",
          "midi": 58,
          "time": 76.36384000000012,
          "velocity": 0.5039370078740157,
          "duration": 0.2579552333333339
        },
        {
          "name": "A#4",
          "midi": 70,
          "time": 76.63656800000012,
          "velocity": 0.5039370078740157,
          "duration": 0.2579552333333339
        },
        {
          "name": "A#4",
          "midi": 70,
          "time": 76.90929600000013,
          "velocity": 0.5039370078740157,
          "duration": 0.2579552333333339
        },
        {
          "name": "G#4",
          "midi": 68,
          "time": 77.18202400000013,
          "velocity": 0.5039370078740157,
          "duration": 0.2579552333333339
        },
        {
          "name": "A#4",
          "midi": 70,
          "time": 77.45475200000013,
          "velocity": 0.5039370078740157,
          "duration": 0.2579552333333339
        },
        {
          "name": "G#4",
          "midi": 68,
          "time": 77.72748000000013,
          "velocity": 0.5039370078740157,
          "duration": 0.2579552333333339
        },
        {
          "name": "A#4",
          "midi": 70,
          "time": 78.00020800000013,
          "velocity": 0.5039370078740157,
          "duration": 0.2579552333333339
        },
        {
          "name": "D#5",
          "midi": 75,
          "time": 78.27293600000013,
          "velocity": 0.5039370078740157,
          "duration": 0.2579552333333339
        },
        {
          "name": "G#4",
          "midi": 68,
          "time": 78.54566400000013,
          "velocity": 0.5039370078740157,
          "duration": 0.7761384333333297
        },
        {
          "name": "F5",
          "midi": 77,
          "time": 78.54566400000013,
          "velocity": 0.5039370078740157,
          "duration": 0.7761384333333297
        },
        {
          "name": "G#4",
          "midi": 68,
          "time": 79.36384800000013,
          "velocity": 0.5039370078740157,
          "duration": 0.2579552333333339
        },
        {
          "name": "A#4",
          "midi": 70,
          "time": 79.63657600000013,
          "velocity": 0.5039370078740157,
          "duration": 0.2579552333333339
        },
        {
          "name": "G#4",
          "midi": 68,
          "time": 79.90930400000013,
          "velocity": 0.5039370078740157,
          "duration": 0.2579552333333339
        },
        {
          "name": "F5",
          "midi": 77,
          "time": 80.18203200000013,
          "velocity": 0.5039370078740157,
          "duration": 0.2579552333333339
        },
        {
          "name": "G#4",
          "midi": 68,
          "time": 80.45476000000014,
          "velocity": 0.5039370078740157,
          "duration": 1.0352300333333346
        },
        {
          "name": "D#5",
          "midi": 75,
          "time": 80.45476000000014,
          "velocity": 0.5039370078740157,
          "duration": 1.0352300333333346
        },
        {
          "name": "G#4",
          "midi": 68,
          "time": 81.54567200000014,
          "velocity": 0.5039370078740157,
          "duration": 0.2579552333333339
        },
        {
          "name": "G#4",
          "midi": 68,
          "time": 81.81840000000014,
          "velocity": 0.5039370078740157,
          "duration": 0.2579552333333339
        },
        {
          "name": "G#4",
          "midi": 68,
          "time": 82.09112800000014,
          "velocity": 0.5039370078740157,
          "duration": 0.2579552333333339
        },
        {
          "name": "G#4",
          "midi": 68,
          "time": 82.36385600000014,
          "velocity": 0.5039370078740157,
          "duration": 0.2579552333333339
        },
        {
          "name": "C#5",
          "midi": 73,
          "time": 82.63658400000014,
          "velocity": 0.5039370078740157,
          "duration": 0.2579552333333339
        },
        {
          "name": "F4",
          "midi": 65,
          "time": 82.90931200000014,
          "velocity": 0.5039370078740157,
          "duration": 0.5170468333333389
        },
        {
          "name": "D#5",
          "midi": 75,
          "time": 82.90931200000014,
          "velocity": 0.5039370078740157,
          "duration": 0.5170468333333389
        },
        {
          "name": "D#5",
          "midi": 75,
          "time": 83.45476800000014,
          "velocity": 0.5039370078740157,
          "duration": 0.2579552333333339
        },
        {
          "name": "F5",
          "midi": 77,
          "time": 83.72749600000014,
          "velocity": 0.5039370078740157,
          "duration": 0.2579552333333339
        },
        {
          "name": "A#4",
          "midi": 70,
          "time": 84.00022400000014,
          "velocity": 0.5039370078740157,
          "duration": 0.2579552333333339
        },
        {
          "name": "F5",
          "midi": 77,
          "time": 84.00022400000014,
          "velocity": 0.5039370078740157,
          "duration": 0.2579552333333339
        },
        {
          "name": "D#5",
          "midi": 75,
          "time": 84.27295200000015,
          "velocity": 0.5039370078740157,
          "duration": 0.2579552333333339
        },
        {
          "name": "C#5",
          "midi": 73,
          "time": 84.54568000000015,
          "velocity": 0.5039370078740157,
          "duration": 0.2579552333333339
        },
        {
          "name": "A#4",
          "midi": 70,
          "time": 84.81840800000015,
          "velocity": 0.5039370078740157,
          "duration": 0.2579552333333339
        },
        {
          "name": "A#3",
          "midi": 58,
          "time": 85.09113600000015,
          "velocity": 0.5039370078740157,
          "duration": 0.5454560000000015
        },
        {
          "name": "G#4",
          "midi": 68,
          "time": 85.09113600000015,
          "velocity": 0.5039370078740157,
          "duration": 0.7761384333333297
        },
        {
          "name": "G#4",
          "midi": 68,
          "time": 85.90932000000015,
          "velocity": 0.5039370078740157,
          "duration": 0.2579552333333339
        },
        {
          "name": "A#4",
          "midi": 70,
          "time": 86.18204800000015,
          "velocity": 0.5039370078740157,
          "duration": 0.2579552333333339
        },
        {
          "name": "G#4",
          "midi": 68,
          "time": 86.45477600000015,
          "velocity": 0.5039370078740157,
          "duration": 0.2579552333333339
        },
        {
          "name": "G#4",
          "midi": 68,
          "time": 86.72750400000015,
          "velocity": 0.5039370078740157,
          "duration": 0.2579552333333339
        },
        {
          "name": "D#5",
          "midi": 75,
          "time": 87.00023200000015,
          "velocity": 0.5039370078740157,
          "duration": 0.2579552333333339
        },
        {
          "name": "G#4",
          "midi": 68,
          "time": 87.27296000000015,
          "velocity": 0.5039370078740157,
          "duration": 0.6465926333333272
        },
        {
          "name": "F5",
          "midi": 77,
          "time": 87.27296000000015,
          "velocity": 0.5039370078740157,
          "duration": 0.6465926333333272
        },
        {
          "name": "G#4",
          "midi": 68,
          "time": 87.95478000000014,
          "velocity": 0.5039370078740157,
          "duration": 0.12840943333333144
        },
        {
          "name": "G#4",
          "midi": 68,
          "time": 88.09114400000014,
          "velocity": 0.5039370078740157,
          "duration": 0.2579552333333339
        },
        {
          "name": "A#4",
          "midi": 70,
          "time": 88.36387200000014,
          "velocity": 0.5039370078740157,
          "duration": 0.2579552333333339
        },
        {
          "name": "G#4",
          "midi": 68,
          "time": 88.63660000000014,
          "velocity": 0.5039370078740157,
          "duration": 0.2579552333333339
        },
        {
          "name": "F5",
          "midi": 77,
          "time": 88.90932800000014,
          "velocity": 0.5039370078740157,
          "duration": 0.2579552333333339
        },
        {
          "name": "G#4",
          "midi": 68,
          "time": 89.18205600000014,
          "velocity": 0.5039370078740157,
          "duration": 1.0352300333333346
        },
        {
          "name": "D#5",
          "midi": 75,
          "time": 89.18205600000014,
          "velocity": 0.5039370078740157,
          "duration": 1.0352300333333346
        },
        {
          "name": "F5",
          "midi": 77,
          "time": 90.27296800000015,
          "velocity": 0.5039370078740157,
          "duration": 0.2579552333333339
        },
        {
          "name": "G#4",
          "midi": 68,
          "time": 90.54569600000015,
          "velocity": 0.5196850393700787,
          "duration": 0.2579552333333339
        },
        {
          "name": "F5",
          "midi": 77,
          "time": 90.54569600000015,
          "velocity": 0.5196850393700787,
          "duration": 0.2579552333333339
        },
        {
          "name": "G#4",
          "midi": 68,
          "time": 90.81842400000015,
          "velocity": 0.5354330708661418,
          "duration": 0.2579552333333339
        },
        {
          "name": "F5",
          "midi": 77,
          "time": 90.81842400000015,
          "velocity": 0.5354330708661418,
          "duration": 0.2579552333333339
        },
        {
          "name": "G#4",
          "midi": 68,
          "time": 91.09115200000015,
          "velocity": 0.5511811023622047,
          "duration": 0.2579552333333339
        },
        {
          "name": "F5",
          "midi": 77,
          "time": 91.09115200000015,
          "velocity": 0.5511811023622047,
          "duration": 0.2579552333333339
        },
        {
          "name": "G#4",
          "midi": 68,
          "time": 91.36388000000015,
          "velocity": 0.5669291338582677,
          "duration": 0.2579552333333339
        },
        {
          "name": "F5",
          "midi": 77,
          "time": 91.36388000000015,
          "velocity": 0.5669291338582677,
          "duration": 0.2579552333333339
        },
        {
          "name": "F4",
          "midi": 65,
          "time": 91.63660800000015,
          "velocity": 0.5826771653543307,
          "duration": 0.2579552333333339
        },
        {
          "name": "A#4",
          "midi": 70,
          "time": 91.63660800000015,
          "velocity": 0.5826771653543307,
          "duration": 0.2579552333333339
        },
        {
          "name": "F5",
          "midi": 77,
          "time": 91.63660800000015,
          "velocity": 0.5826771653543307,
          "duration": 0.2579552333333339
        },
        {
          "name": "F4",
          "midi": 65,
          "time": 91.90933600000015,
          "velocity": 0.5984251968503937,
          "duration": 0.2579552333333339
        },
        {
          "name": "D#5",
          "midi": 75,
          "time": 91.90933600000015,
          "velocity": 0.5984251968503937,
          "duration": 0.2579552333333339
        },
        {
          "name": "F4",
          "midi": 65,
          "time": 92.18206400000015,
          "velocity": 0.6141732283464567,
          "duration": 0.2579552333333339
        },
        {
          "name": "D#5",
          "midi": 75,
          "time": 92.18206400000015,
          "velocity": 0.6141732283464567,
          "duration": 0.2579552333333339
        },
        {
          "name": "F4",
          "midi": 65,
          "time": 92.45479200000015,
          "velocity": 0.6377952755905512,
          "duration": 0.2579552333333339
        },
        {
          "name": "C#5",
          "midi": 73,
          "time": 92.45479200000015,
          "velocity": 0.6377952755905512,
          "duration": 0.2579552333333339
        },
        {
          "name": "F4",
          "midi": 65,
          "time": 92.72752000000015,
          "velocity": 0.6535433070866141,
          "duration": 0.2579552333333339
        },
        {
          "name": "A#4",
          "midi": 70,
          "time": 92.72752000000015,
          "velocity": 0.6535433070866141,
          "duration": 0.2579552333333339
        },
        {
          "name": "C#5",
          "midi": 73,
          "time": 92.72752000000015,
          "velocity": 0.6535433070866141,
          "duration": 0.2579552333333339
        },
        {
          "name": "F4",
          "midi": 65,
          "time": 93.00024800000016,
          "velocity": 0.6692913385826772,
          "duration": 0.2579552333333339
        },
        {
          "name": "C#5",
          "midi": 73,
          "time": 93.00024800000016,
          "velocity": 0.6692913385826772,
          "duration": 0.2579552333333339
        },
        {
          "name": "F4",
          "midi": 65,
          "time": 93.27297600000016,
          "velocity": 0.6850393700787402,
          "duration": 0.2579552333333339
        },
        {
          "name": "A#4",
          "midi": 70,
          "time": 93.27297600000016,
          "velocity": 0.6850393700787402,
          "duration": 0.2579552333333339
        },
        {
          "name": "D#5",
          "midi": 75,
          "time": 93.27297600000016,
          "velocity": 0.6850393700787402,
          "duration": 0.2579552333333339
        },
        {
          "name": "F4",
          "midi": 65,
          "time": 93.54570400000016,
          "velocity": 0.7007874015748031,
          "duration": 0.2579552333333339
        },
        {
          "name": "D#5",
          "midi": 75,
          "time": 93.54570400000016,
          "velocity": 0.7007874015748031,
          "duration": 0.2579552333333339
        },
        {
          "name": "F#4",
          "midi": 66,
          "time": 93.81843200000016,
          "velocity": 0.7165354330708661,
          "duration": 0.5170468333333389
        },
        {
          "name": "A#4",
          "midi": 70,
          "time": 93.81843200000016,
          "velocity": 0.7165354330708661,
          "duration": 0.5170468333333389
        },
        {
          "name": "C#5",
          "midi": 73,
          "time": 93.81843200000016,
          "velocity": 0.7165354330708661,
          "duration": 0.5170468333333389
        },
        {
          "name": "F#4",
          "midi": 66,
          "time": 94.36388800000016,
          "velocity": 0.7559055118110236,
          "duration": 0.2579552333333339
        },
        {
          "name": "C#5",
          "midi": 73,
          "time": 94.36388800000016,
          "velocity": 0.7559055118110236,
          "duration": 0.2579552333333339
        },
        {
          "name": "C#5",
          "midi": 73,
          "time": 94.63661600000016,
          "velocity": 0.7559055118110236,
          "duration": 0.2579552333333339
        },
        {
          "name": "A#4",
          "midi": 70,
          "time": 94.90934400000016,
          "velocity": 0.7559055118110236,
          "duration": 0.5170468333333389
        },
        {
          "name": "C#5",
          "midi": 73,
          "time": 94.90934400000016,
          "velocity": 0.7559055118110236,
          "duration": 0.5170468333333389
        },
        {
          "name": "F#5",
          "midi": 78,
          "time": 94.90934400000016,
          "velocity": 0.7559055118110236,
          "duration": 0.5170468333333389
        },
        {
          "name": "A#4",
          "midi": 70,
          "time": 95.45480000000016,
          "velocity": 0.7559055118110236,
          "duration": 0.5170468333333389
        },
        {
          "name": "C#5",
          "midi": 73,
          "time": 95.45480000000016,
          "velocity": 0.7559055118110236,
          "duration": 0.5170468333333389
        },
        {
          "name": "F5",
          "midi": 77,
          "time": 95.45480000000016,
          "velocity": 0.7559055118110236,
          "duration": 0.5170468333333389
        },
        {
          "name": "C#4",
          "midi": 61,
          "time": 96.00025600000016,
          "velocity": 0.7559055118110236,
          "duration": 0.5170468333333389
        },
        {
          "name": "F4",
          "midi": 65,
          "time": 96.00025600000016,
          "velocity": 0.7559055118110236,
          "duration": 0.5170468333333389
        },
        {
          "name": "G#4",
          "midi": 68,
          "time": 96.54571200000017,
          "velocity": 0.7559055118110236,
          "duration": 0.2579552333333339
        },
        {
          "name": "C#5",
          "midi": 73,
          "time": 96.54571200000017,
          "velocity": 0.7559055118110236,
          "duration": 0.2579552333333339
        },
        {
          "name": "C#5",
          "midi": 73,
          "time": 96.81844000000017,
          "velocity": 0.7559055118110236,
          "duration": 0.2579552333333339
        },
        {
          "name": "G#4",
          "midi": 68,
          "time": 97.09116800000017,
          "velocity": 0.7559055118110236,
          "duration": 0.2579552333333339
        },
        {
          "name": "C#5",
          "midi": 73,
          "time": 97.09116800000017,
          "velocity": 0.7559055118110236,
          "duration": 0.2579552333333339
        },
        {
          "name": "F5",
          "midi": 77,
          "time": 97.09116800000017,
          "velocity": 0.7559055118110236,
          "duration": 0.2579552333333339
        },
        {
          "name": "G#4",
          "midi": 68,
          "time": 97.36389600000017,
          "velocity": 0.7559055118110236,
          "duration": 0.2579552333333339
        },
        {
          "name": "F#5",
          "midi": 78,
          "time": 97.36389600000017,
          "velocity": 0.7559055118110236,
          "duration": 0.2579552333333339
        },
        {
          "name": "G#4",
          "midi": 68,
          "time": 97.63662400000017,
          "velocity": 0.7559055118110236,
          "duration": 0.5170468333333389
        },
        {
          "name": "C#5",
          "midi": 73,
          "time": 97.63662400000017,
          "velocity": 0.7559055118110236,
          "duration": 0.5170468333333389
        },
        {
          "name": "F5",
          "midi": 77,
          "time": 97.63662400000017,
          "velocity": 0.7559055118110236,
          "duration": 0.5170468333333389
        },
        {
          "name": "G#4",
          "midi": 68,
          "time": 98.18208000000017,
          "velocity": 0.7559055118110236,
          "duration": 0.5170468333333389
        },
        {
          "name": "C5",
          "midi": 72,
          "time": 98.18208000000017,
          "velocity": 0.7559055118110236,
          "duration": 0.5170468333333389
        },
        {
          "name": "D#5",
          "midi": 75,
          "time": 98.18208000000017,
          "velocity": 0.7559055118110236,
          "duration": 0.5170468333333389
        },
        {
          "name": "G#4",
          "midi": 68,
          "time": 98.72753600000017,
          "velocity": 0.7559055118110236,
          "duration": 0.2579552333333339
        },
        {
          "name": "C#5",
          "midi": 73,
          "time": 98.72753600000017,
          "velocity": 0.7559055118110236,
          "duration": 0.2579552333333339
        },
        {
          "name": "C#5",
          "midi": 73,
          "time": 99.00026400000017,
          "velocity": 0.7559055118110236,
          "duration": 0.2579552333333339
        },
        {
          "name": "G#4",
          "midi": 68,
          "time": 99.27299200000017,
          "velocity": 0.7559055118110236,
          "duration": 0.5170468333333389
        },
        {
          "name": "C5",
          "midi": 72,
          "time": 99.27299200000017,
          "velocity": 0.7559055118110236,
          "duration": 0.5170468333333389
        },
        {
          "name": "F#5",
          "midi": 78,
          "time": 99.27299200000017,
          "velocity": 0.7559055118110236,
          "duration": 0.5170468333333389
        },
        {
          "name": "G#4",
          "midi": 68,
          "time": 99.81844800000017,
          "velocity": 0.7559055118110236,
          "duration": 0.2579552333333339
        },
        {
          "name": "F5",
          "midi": 77,
          "time": 99.81844800000017,
          "velocity": 0.7559055118110236,
          "duration": 0.2579552333333339
        },
        {
          "name": "F4",
          "midi": 65,
          "time": 100.09117600000017,
          "velocity": 0.7559055118110236,
          "duration": 0.5170468333333389
        },
        {
          "name": "A#4",
          "midi": 70,
          "time": 100.09117600000017,
          "velocity": 0.7559055118110236,
          "duration": 0.5170468333333389
        },
        {
          "name": "D#5",
          "midi": 75,
          "time": 100.09117600000017,
          "velocity": 0.7559055118110236,
          "duration": 0.5170468333333389
        },
        {
          "name": "C#5",
          "midi": 73,
          "time": 100.63663200000018,
          "velocity": 0.7559055118110236,
          "duration": 0.2579552333333339
        },
        {
          "name": "F4",
          "midi": 65,
          "time": 100.90936000000018,
          "velocity": 0.7559055118110236,
          "duration": 0.2579552333333339
        },
        {
          "name": "C#5",
          "midi": 73,
          "time": 100.90936000000018,
          "velocity": 0.7559055118110236,
          "duration": 0.2579552333333339
        },
        {
          "name": "C#5",
          "midi": 73,
          "time": 101.18208800000018,
          "velocity": 0.7559055118110236,
          "duration": 0.2579552333333339
        },
        {
          "name": "A#4",
          "midi": 70,
          "time": 101.45481600000018,
          "velocity": 0.7559055118110236,
          "duration": 0.2579552333333339
        },
        {
          "name": "C#5",
          "midi": 73,
          "time": 101.45481600000018,
          "velocity": 0.7559055118110236,
          "duration": 0.2579552333333339
        },
        {
          "name": "G#5",
          "midi": 80,
          "time": 101.45481600000018,
          "velocity": 0.7559055118110236,
          "duration": 0.2579552333333339
        },
        {
          "name": "G#5",
          "midi": 80,
          "time": 101.72754400000018,
          "velocity": 0.7559055118110236,
          "duration": 0.2579552333333339
        },
        {
          "name": "A#4",
          "midi": 70,
          "time": 102.00027200000018,
          "velocity": 0.7559055118110236,
          "duration": 0.5170468333333389
        },
        {
          "name": "C#5",
          "midi": 73,
          "time": 102.00027200000018,
          "velocity": 0.7559055118110236,
          "duration": 0.5170468333333389
        },
        {
          "name": "F5",
          "midi": 77,
          "time": 102.00027200000018,
          "velocity": 0.7559055118110236,
          "duration": 0.5170468333333389
        },
        {
          "name": "F#4",
          "midi": 66,
          "time": 102.54572800000018,
          "velocity": 0.7559055118110236,
          "duration": 0.2579552333333339
        },
        {
          "name": "A#4",
          "midi": 70,
          "time": 102.54572800000018,
          "velocity": 0.7559055118110236,
          "duration": 0.2579552333333339
        },
        {
          "name": "D#5",
          "midi": 75,
          "time": 102.54572800000018,
          "velocity": 0.7559055118110236,
          "duration": 0.2579552333333339
        },
        {
          "name": "C#5",
          "midi": 73,
          "time": 102.81845600000018,
          "velocity": 0.7559055118110236,
          "duration": 0.2579552333333339
        },
        {
          "name": "F#4",
          "midi": 66,
          "time": 103.09118400000018,
          "velocity": 0.7559055118110236,
          "duration": 0.2579552333333339
        },
        {
          "name": "C#5",
          "midi": 73,
          "time": 103.09118400000018,
          "velocity": 0.7559055118110236,
          "duration": 0.2579552333333339
        },
        {
          "name": "C#5",
          "midi": 73,
          "time": 103.36391200000018,
          "velocity": 0.7559055118110236,
          "duration": 0.2579552333333339
        },
        {
          "name": "A#4",
          "midi": 70,
          "time": 103.63664000000018,
          "velocity": 0.7559055118110236,
          "duration": 0.5170468333333389
        },
        {
          "name": "C#5",
          "midi": 73,
          "time": 103.63664000000018,
          "velocity": 0.7559055118110236,
          "duration": 0.5170468333333389
        },
        {
          "name": "F#5",
          "midi": 78,
          "time": 103.63664000000018,
          "velocity": 0.7559055118110236,
          "duration": 0.5170468333333389
        },
        {
          "name": "A#4",
          "midi": 70,
          "time": 104.18209600000019,
          "velocity": 0.7559055118110236,
          "duration": 0.3875010333333364
        },
        {
          "name": "C#5",
          "midi": 73,
          "time": 104.18209600000019,
          "velocity": 0.7559055118110236,
          "duration": 0.3875010333333364
        },
        {
          "name": "F5",
          "midi": 77,
          "time": 104.18209600000019,
          "velocity": 0.7559055118110236,
          "duration": 0.3875010333333364
        },
        {
          "name": "F4",
          "midi": 65,
          "time": 104.59118800000019,
          "velocity": 0.7559055118110236,
          "duration": 0.3875010333333364
        },
        {
          "name": "G#4",
          "midi": 68,
          "time": 104.59118800000019,
          "velocity": 0.7559055118110236,
          "duration": 0.3875010333333364
        },
        {
          "name": "D#5",
          "midi": 75,
          "time": 104.59118800000019,
          "velocity": 0.7559055118110236,
          "duration": 0.3875010333333364
        },
        {
          "name": "G#4",
          "midi": 68,
          "time": 105.00028000000019,
          "velocity": 0.7559055118110236,
          "duration": 0.2579552333333339
        },
        {
          "name": "C#5",
          "midi": 73,
          "time": 105.00028000000019,
          "velocity": 0.7559055118110236,
          "duration": 0.2579552333333339
        },
        {
          "name": "C#5",
          "midi": 73,
          "time": 105.27300800000019,
          "velocity": 0.7559055118110236,
          "duration": 0.2579552333333339
        },
        {
          "name": "G#4",
          "midi": 68,
          "time": 105.54573600000019,
          "velocity": 0.7559055118110236,
          "duration": 0.2579552333333339
        },
        {
          "name": "C#5",
          "midi": 73,
          "time": 105.54573600000019,
          "velocity": 0.7559055118110236,
          "duration": 0.2579552333333339
        },
        {
          "name": "G#4",
          "midi": 68,
          "time": 105.81846400000019,
          "velocity": 0.7559055118110236,
          "duration": 0.2579552333333339
        },
        {
          "name": "C#5",
          "midi": 73,
          "time": 105.81846400000019,
          "velocity": 0.7559055118110236,
          "duration": 0.2579552333333339
        },
        {
          "name": "F#5",
          "midi": 78,
          "time": 105.81846400000019,
          "velocity": 0.7559055118110236,
          "duration": 0.2579552333333339
        },
        {
          "name": "G#4",
          "midi": 68,
          "time": 106.09119200000019,
          "velocity": 0.7559055118110236,
          "duration": 0.2579552333333339
        },
        {
          "name": "F#5",
          "midi": 78,
          "time": 106.09119200000019,
          "velocity": 0.7559055118110236,
          "duration": 0.2579552333333339
        },
        {
          "name": "G#4",
          "midi": 68,
          "time": 106.36392000000019,
          "velocity": 0.7559055118110236,
          "duration": 0.2579552333333339
        },
        {
          "name": "F5",
          "midi": 77,
          "time": 106.36392000000019,
          "velocity": 0.7559055118110236,
          "duration": 0.2579552333333339
        },
        {
          "name": "G#4",
          "midi": 68,
          "time": 106.63664800000019,
          "velocity": 0.7559055118110236,
          "duration": 0.7761384333333297
        },
        {
          "name": "C5",
          "midi": 72,
          "time": 106.63664800000019,
          "velocity": 0.7559055118110236,
          "duration": 0.7761384333333297
        },
        {
          "name": "D#5",
          "midi": 75,
          "time": 106.63664800000019,
          "velocity": 0.7559055118110236,
          "duration": 0.7761384333333297
        },
        {
          "name": "G#4",
          "midi": 68,
          "time": 107.4548320000002,
          "velocity": 0.7559055118110236,
          "duration": 0.2579552333333339
        },
        {
          "name": "F5",
          "midi": 77,
          "time": 107.4548320000002,
          "velocity": 0.7559055118110236,
          "duration": 0.2579552333333339
        },
        {
          "name": "F5",
          "midi": 77,
          "time": 107.7275600000002,
          "velocity": 0.7559055118110236,
          "duration": 0.2579552333333339
        },
        {
          "name": "G#4",
          "midi": 68,
          "time": 108.0002880000002,
          "velocity": 0.7559055118110236,
          "duration": 0.2579552333333339
        },
        {
          "name": "C5",
          "midi": 72,
          "time": 108.0002880000002,
          "velocity": 0.7559055118110236,
          "duration": 0.2579552333333339
        },
        {
          "name": "F5",
          "midi": 77,
          "time": 108.0002880000002,
          "velocity": 0.7559055118110236,
          "duration": 0.2579552333333339
        },
        {
          "name": "G#4",
          "midi": 68,
          "time": 108.2730160000002,
          "velocity": 0.7559055118110236,
          "duration": 0.2579552333333339
        },
        {
          "name": "F5",
          "midi": 77,
          "time": 108.2730160000002,
          "velocity": 0.7559055118110236,
          "duration": 0.2579552333333339
        },
        {
          "name": "G#4",
          "midi": 68,
          "time": 108.5457440000002,
          "velocity": 0.7559055118110236,
          "duration": 0.2579552333333339
        },
        {
          "name": "C5",
          "midi": 72,
          "time": 108.5457440000002,
          "velocity": 0.7559055118110236,
          "duration": 0.2579552333333339
        },
        {
          "name": "F5",
          "midi": 77,
          "time": 108.5457440000002,
          "velocity": 0.7559055118110236,
          "duration": 0.2579552333333339
        },
        {
          "name": "G#4",
          "midi": 68,
          "time": 108.8184720000002,
          "velocity": 0.7559055118110236,
          "duration": 0.2579552333333339
        },
        {
          "name": "F5",
          "midi": 77,
          "time": 108.8184720000002,
          "velocity": 0.7559055118110236,
          "duration": 0.2579552333333339
        },
        {
          "name": "A#4",
          "midi": 70,
          "time": 109.0912000000002,
          "velocity": 0.7559055118110236,
          "duration": 0.2579552333333339
        },
        {
          "name": "C#5",
          "midi": 73,
          "time": 109.0912000000002,
          "velocity": 0.7559055118110236,
          "duration": 0.2579552333333339
        },
        {
          "name": "F5",
          "midi": 77,
          "time": 109.0912000000002,
          "velocity": 0.7559055118110236,
          "duration": 0.2579552333333339
        },
        {
          "name": "D#5",
          "midi": 75,
          "time": 109.3639280000002,
          "velocity": 0.7559055118110236,
          "duration": 0.2579552333333339
        },
        {
          "name": "A#4",
          "midi": 70,
          "time": 109.6366560000002,
          "velocity": 0.7559055118110236,
          "duration": 0.2579552333333339
        },
        {
          "name": "D#5",
          "midi": 75,
          "time": 109.6366560000002,
          "velocity": 0.7559055118110236,
          "duration": 0.2579552333333339
        },
        {
          "name": "C#5",
          "midi": 73,
          "time": 109.9093840000002,
          "velocity": 0.7559055118110236,
          "duration": 0.2579552333333339
        },
        {
          "name": "F4",
          "midi": 65,
          "time": 110.1821120000002,
          "velocity": 0.7559055118110236,
          "duration": 0.2579552333333339
        },
        {
          "name": "A#4",
          "midi": 70,
          "time": 110.1821120000002,
          "velocity": 0.7559055118110236,
          "duration": 0.2579552333333339
        },
        {
          "name": "C#5",
          "midi": 73,
          "time": 110.1821120000002,
          "velocity": 0.7559055118110236,
          "duration": 0.2579552333333339
        },
        {
          "name": "F4",
          "midi": 65,
          "time": 110.4548400000002,
          "velocity": 0.7559055118110236,
          "duration": 0.2579552333333339
        },
        {
          "name": "D#5",
          "midi": 75,
          "time": 110.4548400000002,
          "velocity": 0.7559055118110236,
          "duration": 0.2579552333333339
        },
        {
          "name": "A#4",
          "midi": 70,
          "time": 110.7275680000002,
          "velocity": 0.7559055118110236,
          "duration": 0.2579552333333339
        },
        {
          "name": "D#5",
          "midi": 75,
          "time": 110.7275680000002,
          "velocity": 0.7559055118110236,
          "duration": 0.2579552333333339
        },
        {
          "name": "F#4",
          "midi": 66,
          "time": 111.0002960000002,
          "velocity": 0.7559055118110236,
          "duration": 0.5170468333333389
        },
        {
          "name": "A#4",
          "midi": 70,
          "time": 111.0002960000002,
          "velocity": 0.7559055118110236,
          "duration": 0.5170468333333389
        },
        {
          "name": "D#5",
          "midi": 75,
          "time": 111.0002960000002,
          "velocity": 0.7559055118110236,
          "duration": 0.5170468333333389
        },
        {
          "name": "F#4",
          "midi": 66,
          "time": 111.5457520000002,
          "velocity": 0.7559055118110236,
          "duration": 1.2943216333333396
        },
        {
          "name": "A#4",
          "midi": 70,
          "time": 111.5457520000002,
          "velocity": 0.7559055118110236,
          "duration": 1.2943216333333396
        },
        {
          "name": "C#5",
          "midi": 73,
          "time": 111.5457520000002,
          "velocity": 0.7559055118110236,
          "duration": 1.2943216333333396
        },
        {
          "name": "G#4",
          "midi": 68,
          "time": 113.18212000000021,
          "velocity": 0.7559055118110236,
          "duration": 0.2579552333333339
        },
        {
          "name": "A#4",
          "midi": 70,
          "time": 113.45484800000021,
          "velocity": 0.7559055118110236,
          "duration": 0.2579552333333339
        },
        {
          "name": "D#5",
          "midi": 75,
          "time": 113.45484800000021,
          "velocity": 0.7559055118110236,
          "duration": 0.2579552333333339
        },
        {
          "name": "G#5",
          "midi": 80,
          "time": 113.45484800000021,
          "velocity": 0.7559055118110236,
          "duration": 0.2579552333333339
        },
        {
          "name": "A#4",
          "midi": 70,
          "time": 113.72757600000021,
          "velocity": 0.7559055118110236,
          "duration": 1.0352300333333346
        },
        {
          "name": "D#5",
          "midi": 75,
          "time": 113.72757600000021,
          "velocity": 0.7559055118110236,
          "duration": 1.0352300333333346
        },
        {
          "name": "A#5",
          "midi": 82,
          "time": 113.72757600000021,
          "velocity": 0.7559055118110236,
          "duration": 1.0352300333333346
        },
        {
          "name": "D#5",
          "midi": 75,
          "time": 114.81848800000022,
          "velocity": 0.7559055118110236,
          "duration": 0.2579552333333339
        },
        {
          "name": "A#5",
          "midi": 82,
          "time": 114.81848800000022,
          "velocity": 0.7559055118110236,
          "duration": 0.2579552333333339
        },
        {
          "name": "D#5",
          "midi": 75,
          "time": 115.09121600000022,
          "velocity": 0.7559055118110236,
          "duration": 0.2579552333333339
        },
        {
          "name": "A#5",
          "midi": 82,
          "time": 115.09121600000022,
          "velocity": 0.7559055118110236,
          "duration": 0.2579552333333339
        },
        {
          "name": "A#4",
          "midi": 70,
          "time": 115.36394400000022,
          "velocity": 0.7559055118110236,
          "duration": 0.5170468333333389
        },
        {
          "name": "C#5",
          "midi": 73,
          "time": 115.36394400000022,
          "velocity": 0.7559055118110236,
          "duration": 0.5170468333333389
        },
        {
          "name": "A#5",
          "midi": 82,
          "time": 115.36394400000022,
          "velocity": 0.7559055118110236,
          "duration": 0.5170468333333389
        },
        {
          "name": "A#4",
          "midi": 70,
          "time": 115.90940000000022,
          "velocity": 0.7559055118110236,
          "duration": 0.5170468333333389
        },
        {
          "name": "C#5",
          "midi": 73,
          "time": 115.90940000000022,
          "velocity": 0.7559055118110236,
          "duration": 0.5170468333333389
        },
        {
          "name": "G#5",
          "midi": 80,
          "time": 115.90940000000022,
          "velocity": 0.7559055118110236,
          "duration": 0.5170468333333389
        },
        {
          "name": "A#4",
          "midi": 70,
          "time": 116.45485600000022,
          "velocity": 0.7559055118110236,
          "duration": 0.5170468333333389
        },
        {
          "name": "C#5",
          "midi": 73,
          "time": 116.45485600000022,
          "velocity": 0.7559055118110236,
          "duration": 0.5170468333333389
        },
        {
          "name": "G#5",
          "midi": 80,
          "time": 116.45485600000022,
          "velocity": 0.7559055118110236,
          "duration": 0.5170468333333389
        },
        {
          "name": "A#4",
          "midi": 70,
          "time": 117.00031200000022,
          "velocity": 0.7559055118110236,
          "duration": 0.2579552333333339
        },
        {
          "name": "F5",
          "midi": 77,
          "time": 117.00031200000022,
          "velocity": 0.7559055118110236,
          "duration": 0.2579552333333339
        },
        {
          "name": "A#4",
          "midi": 70,
          "time": 117.27304000000022,
          "velocity": 0.7559055118110236,
          "duration": 0.2579552333333339
        },
        {
          "name": "F5",
          "midi": 77,
          "time": 117.27304000000022,
          "velocity": 0.7559055118110236,
          "duration": 0.2579552333333339
        },
        {
          "name": "G#4",
          "midi": 68,
          "time": 117.54576800000022,
          "velocity": 0.7559055118110236,
          "duration": 0.5170468333333389
        },
        {
          "name": "C5",
          "midi": 72,
          "time": 117.54576800000022,
          "velocity": 0.7559055118110236,
          "duration": 0.5170468333333389
        },
        {
          "name": "F5",
          "midi": 77,
          "time": 117.54576800000022,
          "velocity": 0.7559055118110236,
          "duration": 0.5170468333333389
        },
        {
          "name": "G#4",
          "midi": 68,
          "time": 118.09122400000022,
          "velocity": 0.7559055118110236,
          "duration": 0.2579552333333339
        },
        {
          "name": "D#5",
          "midi": 75,
          "time": 118.09122400000022,
          "velocity": 0.7559055118110236,
          "duration": 0.2579552333333339
        },
        {
          "name": "G#4",
          "midi": 68,
          "time": 118.36395200000022,
          "velocity": 0.7559055118110236,
          "duration": 0.2579552333333339
        },
        {
          "name": "D#5",
          "midi": 75,
          "time": 118.36395200000022,
          "velocity": 0.7559055118110236,
          "duration": 0.2579552333333339
        },
        {
          "name": "G#4",
          "midi": 68,
          "time": 118.63668000000023,
          "velocity": 0.7559055118110236,
          "duration": 0.5170468333333389
        },
        {
          "name": "C5",
          "midi": 72,
          "time": 118.63668000000023,
          "velocity": 0.7559055118110236,
          "duration": 0.5170468333333389
        },
        {
          "name": "D#5",
          "midi": 75,
          "time": 118.63668000000023,
          "velocity": 0.7559055118110236,
          "duration": 0.5170468333333389
        },
        {
          "name": "G#4",
          "midi": 68,
          "time": 119.18213600000023,
          "velocity": 0.7559055118110236,
          "duration": 0.5170468333333389
        },
        {
          "name": "C5",
          "midi": 72,
          "time": 119.18213600000023,
          "velocity": 0.7559055118110236,
          "duration": 0.5170468333333389
        },
        {
          "name": "F5",
          "midi": 77,
          "time": 119.18213600000023,
          "velocity": 0.7559055118110236,
          "duration": 0.5170468333333389
        },
        {
          "name": "G#4",
          "midi": 68,
          "time": 119.72759200000023,
          "velocity": 0.7559055118110236,
          "duration": 0.2579552333333339
        },
        {
          "name": "F5",
          "midi": 77,
          "time": 119.72759200000023,
          "velocity": 0.7559055118110236,
          "duration": 0.2579552333333339
        },
        {
          "name": "G#4",
          "midi": 68,
          "time": 120.00032000000023,
          "velocity": 0.7559055118110236,
          "duration": 0.2579552333333339
        },
        {
          "name": "C5",
          "midi": 72,
          "time": 120.00032000000023,
          "velocity": 0.7559055118110236,
          "duration": 0.2579552333333339
        },
        {
          "name": "F#5",
          "midi": 78,
          "time": 120.00032000000023,
          "velocity": 0.7559055118110236,
          "duration": 0.2579552333333339
        },
        {
          "name": "G#4",
          "midi": 68,
          "time": 120.27304800000023,
          "velocity": 0.7559055118110236,
          "duration": 0.2579552333333339
        },
        {
          "name": "F5",
          "midi": 77,
          "time": 120.27304800000023,
          "velocity": 0.7559055118110236,
          "duration": 0.2579552333333339
        },
        {
          "name": "G#4",
          "midi": 68,
          "time": 120.54577600000023,
          "velocity": 0.7559055118110236,
          "duration": 0.2579552333333339
        },
        {
          "name": "D#5",
          "midi": 75,
          "time": 120.54577600000023,
          "velocity": 0.7559055118110236,
          "duration": 0.2579552333333339
        },
        {
          "name": "F4",
          "midi": 65,
          "time": 120.81850400000023,
          "velocity": 0.7559055118110236,
          "duration": 0.5170468333333389
        },
        {
          "name": "A#4",
          "midi": 70,
          "time": 120.81850400000023,
          "velocity": 0.7559055118110236,
          "duration": 0.5170468333333389
        },
        {
          "name": "D#5",
          "midi": 75,
          "time": 120.81850400000023,
          "velocity": 0.7559055118110236,
          "duration": 0.5170468333333389
        },
        {
          "name": "F4",
          "midi": 65,
          "time": 121.36396000000023,
          "velocity": 0.7559055118110236,
          "duration": 0.5170468333333389
        },
        {
          "name": "A#4",
          "midi": 70,
          "time": 121.36396000000023,
          "velocity": 0.7559055118110236,
          "duration": 0.5170468333333389
        },
        {
          "name": "C#5",
          "midi": 73,
          "time": 121.36396000000023,
          "velocity": 0.7559055118110236,
          "duration": 0.5170468333333389
        },
        {
          "name": "G#4",
          "midi": 68,
          "time": 121.90941600000023,
          "velocity": 0.7559055118110236,
          "duration": 0.2579552333333339
        },
        {
          "name": "G#5",
          "midi": 80,
          "time": 121.90941600000023,
          "velocity": 0.7559055118110236,
          "duration": 0.2579552333333339
        },
        {
          "name": "A#4",
          "midi": 70,
          "time": 122.18214400000024,
          "velocity": 0.7559055118110236,
          "duration": 1.2943216333333396
        },
        {
          "name": "D#5",
          "midi": 75,
          "time": 122.18214400000024,
          "velocity": 0.7559055118110236,
          "duration": 1.2943216333333396
        },
        {
          "name": "A#5",
          "midi": 82,
          "time": 122.18214400000024,
          "velocity": 0.7559055118110236,
          "duration": 1.2943216333333396
        },
        {
          "name": "D#5",
          "midi": 75,
          "time": 123.54578400000024,
          "velocity": 0.7559055118110236,
          "duration": 0.2579552333333339
        },
        {
          "name": "A#5",
          "midi": 82,
          "time": 123.54578400000024,
          "velocity": 0.7559055118110236,
          "duration": 0.2579552333333339
        },
        {
          "name": "D#5",
          "midi": 75,
          "time": 123.81851200000024,
          "velocity": 0.7559055118110236,
          "duration": 0.2579552333333339
        },
        {
          "name": "A#5",
          "midi": 82,
          "time": 123.81851200000024,
          "velocity": 0.7559055118110236,
          "duration": 0.2579552333333339
        },
        {
          "name": "A#4",
          "midi": 70,
          "time": 124.09124000000024,
          "velocity": 0.7559055118110236,
          "duration": 0.5170468333333389
        },
        {
          "name": "C#5",
          "midi": 73,
          "time": 124.09124000000024,
          "velocity": 0.7559055118110236,
          "duration": 0.5170468333333389
        },
        {
          "name": "A#5",
          "midi": 82,
          "time": 124.09124000000024,
          "velocity": 0.7559055118110236,
          "duration": 0.5170468333333389
        },
        {
          "name": "A#4",
          "midi": 70,
          "time": 124.63669600000024,
          "velocity": 0.7559055118110236,
          "duration": 0.2579552333333339
        },
        {
          "name": "C#5",
          "midi": 73,
          "time": 124.63669600000024,
          "velocity": 0.7559055118110236,
          "duration": 0.2579552333333339
        },
        {
          "name": "G#5",
          "midi": 80,
          "time": 124.63669600000024,
          "velocity": 0.7559055118110236,
          "duration": 0.2579552333333339
        },
        {
          "name": "C#5",
          "midi": 73,
          "time": 124.90942400000024,
          "velocity": 0.7559055118110236,
          "duration": 0.2579552333333339
        },
        {
          "name": "G#5",
          "midi": 80,
          "time": 124.90942400000024,
          "velocity": 0.7559055118110236,
          "duration": 0.2579552333333339
        },
        {
          "name": "A#4",
          "midi": 70,
          "time": 125.18215200000024,
          "velocity": 0.7559055118110236,
          "duration": 0.5170468333333389
        },
        {
          "name": "C#5",
          "midi": 73,
          "time": 125.18215200000024,
          "velocity": 0.7559055118110236,
          "duration": 0.5170468333333389
        },
        {
          "name": "G#5",
          "midi": 80,
          "time": 125.18215200000024,
          "velocity": 0.7559055118110236,
          "duration": 0.5170468333333389
        },
        {
          "name": "A#4",
          "midi": 70,
          "time": 125.72760800000025,
          "velocity": 0.7559055118110236,
          "duration": 0.2579552333333339
        },
        {
          "name": "F5",
          "midi": 77,
          "time": 125.72760800000025,
          "velocity": 0.7559055118110236,
          "duration": 0.2579552333333339
        },
        {
          "name": "A#4",
          "midi": 70,
          "time": 126.00033600000025,
          "velocity": 0.7559055118110236,
          "duration": 0.2579552333333339
        },
        {
          "name": "F5",
          "midi": 77,
          "time": 126.00033600000025,
          "velocity": 0.7559055118110236,
          "duration": 0.2579552333333339
        },
        {
          "name": "G#4",
          "midi": 68,
          "time": 126.27306400000025,
          "velocity": 0.7559055118110236,
          "duration": 0.5170468333333389
        },
        {
          "name": "C5",
          "midi": 72,
          "time": 126.27306400000025,
          "velocity": 0.7559055118110236,
          "duration": 0.5170468333333389
        },
        {
          "name": "F5",
          "midi": 77,
          "time": 126.27306400000025,
          "velocity": 0.7559055118110236,
          "duration": 0.5170468333333389
        },
        {
          "name": "G#4",
          "midi": 68,
          "time": 126.81852000000025,
          "velocity": 0.7559055118110236,
          "duration": 0.2579552333333339
        },
        {
          "name": "D#5",
          "midi": 75,
          "time": 126.81852000000025,
          "velocity": 0.7559055118110236,
          "duration": 0.2579552333333339
        },
        {
          "name": "C5",
          "midi": 72,
          "time": 127.09124800000025,
          "velocity": 0.7559055118110236,
          "duration": 0.2579552333333339
        },
        {
          "name": "D#5",
          "midi": 75,
          "time": 127.09124800000025,
          "velocity": 0.7559055118110236,
          "duration": 0.2579552333333339
        },
        {
          "name": "G#4",
          "midi": 68,
          "time": 127.36397600000025,
          "velocity": 0.7559055118110236,
          "duration": 1.2943216333333254
        },
        {
          "name": "C5",
          "midi": 72,
          "time": 127.36397600000025,
          "velocity": 0.7559055118110236,
          "duration": 1.2943216333333254
        },
        {
          "name": "D#5",
          "midi": 75,
          "time": 127.36397600000025,
          "velocity": 0.7559055118110236,
          "duration": 1.2943216333333254
        },
        {
          "name": "C#5",
          "midi": 73,
          "time": 129.00034400000024,
          "velocity": 0.5039370078740157,
          "duration": 0.2579552333333197
        },
        {
          "name": "C#5",
          "midi": 73,
          "time": 129.2730720000002,
          "velocity": 0.5039370078740157,
          "duration": 0.2579552333333197
        },
        {
          "name": "C#5",
          "midi": 73,
          "time": 129.54580000000018,
          "velocity": 0.5039370078740157,
          "duration": 0.2579552333333197
        },
        {
          "name": "F#5",
          "midi": 78,
          "time": 129.81852800000016,
          "velocity": 0.5039370078740157,
          "duration": 0.5170468333333247
        },
        {
          "name": "F5",
          "midi": 77,
          "time": 130.36398400000016,
          "velocity": 0.5039370078740157,
          "duration": 0.5170468333333247
        },
        {
          "name": "C#5",
          "midi": 73,
          "time": 131.45489600000016,
          "velocity": 0.5039370078740157,
          "duration": 0.2579552333333197
        },
        {
          "name": "C#5",
          "midi": 73,
          "time": 131.72762400000013,
          "velocity": 0.5039370078740157,
          "duration": 0.2579552333333197
        },
        {
          "name": "F5",
          "midi": 77,
          "time": 132.0003520000001,
          "velocity": 0.5039370078740157,
          "duration": 0.2579552333333197
        },
        {
          "name": "F#5",
          "midi": 78,
          "time": 132.27308000000008,
          "velocity": 0.5039370078740157,
          "duration": 0.2579552333333197
        },
        {
          "name": "F5",
          "midi": 77,
          "time": 132.54580800000005,
          "velocity": 0.5039370078740157,
          "duration": 1.0352300333333346
        },
        {
          "name": "C#5",
          "midi": 73,
          "time": 133.63672000000005,
          "velocity": 0.5039370078740157,
          "duration": 0.2579552333333197
        },
        {
          "name": "C#5",
          "midi": 73,
          "time": 133.90944800000003,
          "velocity": 0.5039370078740157,
          "duration": 0.2579552333333197
        },
        {
          "name": "F#5",
          "midi": 78,
          "time": 134.182176,
          "velocity": 0.5039370078740157,
          "duration": 0.5170468333333247
        },
        {
          "name": "F5",
          "midi": 77,
          "time": 134.727632,
          "velocity": 0.5039370078740157,
          "duration": 0.2579552333333197
        },
        {
          "name": "D#5",
          "midi": 75,
          "time": 135.00035999999997,
          "velocity": 0.5039370078740157,
          "duration": 0.5170468333333247
        },
        {
          "name": "C#5",
          "midi": 73,
          "time": 135.54581599999997,
          "velocity": 0.5039370078740157,
          "duration": 0.2579552333333197
        },
        {
          "name": "C#5",
          "midi": 73,
          "time": 135.81854399999995,
          "velocity": 0.5039370078740157,
          "duration": 0.2579552333333197
        },
        {
          "name": "C#5",
          "midi": 73,
          "time": 136.09127199999992,
          "velocity": 0.5039370078740157,
          "duration": 0.2579552333333197
        },
        {
          "name": "G#5",
          "midi": 80,
          "time": 136.3639999999999,
          "velocity": 0.5039370078740157,
          "duration": 0.2579552333333197
        },
        {
          "name": "G#5",
          "midi": 80,
          "time": 136.63672799999986,
          "velocity": 0.5039370078740157,
          "duration": 0.2579552333333197
        },
        {
          "name": "F5",
          "midi": 77,
          "time": 136.90945599999984,
          "velocity": 0.5039370078740157,
          "duration": 0.7761384333333297
        },
        {
          "name": "C#5",
          "midi": 73,
          "time": 137.72763999999984,
          "velocity": 0.5039370078740157,
          "duration": 0.2579552333333197
        },
        {
          "name": "C#5",
          "midi": 73,
          "time": 138.0003679999998,
          "velocity": 0.5039370078740157,
          "duration": 0.2579552333333197
        },
        {
          "name": "C#5",
          "midi": 73,
          "time": 138.27309599999978,
          "velocity": 0.5039370078740157,
          "duration": 0.2579552333333197
        },
        {
          "name": "F#5",
          "midi": 78,
          "time": 138.54582399999975,
          "velocity": 0.5039370078740157,
          "duration": 0.5170468333333247
        },
        {
          "name": "F5",
          "midi": 77,
          "time": 139.09127999999976,
          "velocity": 0.5039370078740157,
          "duration": 0.2579552333333197
        },
        {
          "name": "D#5",
          "midi": 75,
          "time": 139.36400799999973,
          "velocity": 0.5039370078740157,
          "duration": 0.5170468333333247
        },
        {
          "name": "C#5",
          "midi": 73,
          "time": 139.90946399999973,
          "velocity": 0.5039370078740157,
          "duration": 0.2579552333333197
        },
        {
          "name": "C#5",
          "midi": 73,
          "time": 140.1821919999997,
          "velocity": 0.5039370078740157,
          "duration": 0.2579552333333197
        },
        {
          "name": "C#5",
          "midi": 73,
          "time": 140.45491999999967,
          "velocity": 0.5039370078740157,
          "duration": 0.2579552333333197
        },
        {
          "name": "F#5",
          "midi": 78,
          "time": 140.72764799999965,
          "velocity": 0.5039370078740157,
          "duration": 0.2579552333333197
        },
        {
          "name": "F#5",
          "midi": 78,
          "time": 141.00037599999962,
          "velocity": 0.5039370078740157,
          "duration": 0.2579552333333197
        },
        {
          "name": "F5",
          "midi": 77,
          "time": 141.2731039999996,
          "velocity": 0.5039370078740157,
          "duration": 0.2579552333333197
        },
        {
          "name": "D#5",
          "midi": 75,
          "time": 141.54583199999956,
          "velocity": 0.5039370078740157,
          "duration": 0.7761384333333297
        },
        {
          "name": "F5",
          "midi": 77,
          "time": 142.36401599999957,
          "velocity": 0.5039370078740157,
          "duration": 0.2579552333333197
        },
        {
          "name": "F5",
          "midi": 77,
          "time": 142.63674399999954,
          "velocity": 0.5039370078740157,
          "duration": 0.2579552333333197
        },
        {
          "name": "G#4",
          "midi": 68,
          "time": 142.9094719999995,
          "velocity": 0.5039370078740157,
          "duration": 0.2579552333333197
        },
        {
          "name": "F5",
          "midi": 77,
          "time": 142.9094719999995,
          "velocity": 0.5039370078740157,
          "duration": 0.2579552333333197
        },
        {
          "name": "F5",
          "midi": 77,
          "time": 143.18219999999948,
          "velocity": 0.5039370078740157,
          "duration": 0.2579552333333197
        },
        {
          "name": "G#4",
          "midi": 68,
          "time": 143.45492799999946,
          "velocity": 0.5039370078740157,
          "duration": 0.2579552333333197
        },
        {
          "name": "F5",
          "midi": 77,
          "time": 143.45492799999946,
          "velocity": 0.5039370078740157,
          "duration": 0.2579552333333197
        },
        {
          "name": "G#4",
          "midi": 68,
          "time": 143.72765599999943,
          "velocity": 0.5039370078740157,
          "duration": 0.2579552333333197
        },
        {
          "name": "F5",
          "midi": 77,
          "time": 143.72765599999943,
          "velocity": 0.5039370078740157,
          "duration": 0.2579552333333197
        },
        {
          "name": "F4",
          "midi": 65,
          "time": 144.0003839999994,
          "velocity": 0.5039370078740157,
          "duration": 0.2579552333333197
        },
        {
          "name": "A#4",
          "midi": 70,
          "time": 144.0003839999994,
          "velocity": 0.5039370078740157,
          "duration": 0.2579552333333197
        },
        {
          "name": "F5",
          "midi": 77,
          "time": 144.0003839999994,
          "velocity": 0.5039370078740157,
          "duration": 0.2579552333333197
        },
        {
          "name": "F4",
          "midi": 65,
          "time": 144.27311199999937,
          "velocity": 0.5039370078740157,
          "duration": 0.2579552333333197
        },
        {
          "name": "D#5",
          "midi": 75,
          "time": 144.27311199999937,
          "velocity": 0.5039370078740157,
          "duration": 0.2579552333333197
        },
        {
          "name": "F4",
          "midi": 65,
          "time": 144.54583999999934,
          "velocity": 0.5039370078740157,
          "duration": 0.2579552333333197
        },
        {
          "name": "D#5",
          "midi": 75,
          "time": 144.54583999999934,
          "velocity": 0.5039370078740157,
          "duration": 0.2579552333333197
        },
        {
          "name": "F4",
          "midi": 65,
          "time": 144.81856799999932,
          "velocity": 0.5039370078740157,
          "duration": 0.2579552333333197
        },
        {
          "name": "C#5",
          "midi": 73,
          "time": 144.81856799999932,
          "velocity": 0.5039370078740157,
          "duration": 0.2579552333333197
        },
        {
          "name": "F4",
          "midi": 65,
          "time": 145.0912959999993,
          "velocity": 0.5039370078740157,
          "duration": 0.2579552333333197
        },
        {
          "name": "A#4",
          "midi": 70,
          "time": 145.0912959999993,
          "velocity": 0.5039370078740157,
          "duration": 0.2579552333333197
        },
        {
          "name": "C#5",
          "midi": 73,
          "time": 145.0912959999993,
          "velocity": 0.5039370078740157,
          "duration": 0.2579552333333197
        },
        {
          "name": "F4",
          "midi": 65,
          "time": 145.36402399999926,
          "velocity": 0.5039370078740157,
          "duration": 0.2579552333333197
        },
        {
          "name": "D#5",
          "midi": 75,
          "time": 145.36402399999926,
          "velocity": 0.5039370078740157,
          "duration": 0.2579552333333197
        },
        {
          "name": "F4",
          "midi": 65,
          "time": 145.63675199999923,
          "velocity": 0.5039370078740157,
          "duration": 0.2579552333333197
        },
        {
          "name": "A#4",
          "midi": 70,
          "time": 145.63675199999923,
          "velocity": 0.5039370078740157,
          "duration": 0.2579552333333197
        },
        {
          "name": "D#5",
          "midi": 75,
          "time": 145.63675199999923,
          "velocity": 0.5039370078740157,
          "duration": 0.2579552333333197
        },
        {
          "name": "F#4",
          "midi": 66,
          "time": 145.9094799999992,
          "velocity": 0.5039370078740157,
          "duration": 0.5170468333333247
        },
        {
          "name": "A#4",
          "midi": 70,
          "time": 145.9094799999992,
          "velocity": 0.5039370078740157,
          "duration": 0.5170468333333247
        },
        {
          "name": "D#5",
          "midi": 75,
          "time": 145.9094799999992,
          "velocity": 0.5039370078740157,
          "duration": 0.5170468333333247
        },
        {
          "name": "F#4",
          "midi": 66,
          "time": 146.4549359999992,
          "velocity": 0.5039370078740157,
          "duration": 0.2579552333333197
        },
        {
          "name": "A#4",
          "midi": 70,
          "time": 146.4549359999992,
          "velocity": 0.5039370078740157,
          "duration": 0.2579552333333197
        },
        {
          "name": "C#5",
          "midi": 73,
          "time": 146.4549359999992,
          "velocity": 0.5039370078740157,
          "duration": 0.2579552333333197
        },
        {
          "name": "F#4",
          "midi": 66,
          "time": 146.72766399999918,
          "velocity": 0.5039370078740157,
          "duration": 0.2579552333333197
        },
        {
          "name": "C#5",
          "midi": 73,
          "time": 146.72766399999918,
          "velocity": 0.5039370078740157,
          "duration": 0.2579552333333197
        },
        {
          "name": "A#4",
          "midi": 70,
          "time": 147.00039199999915,
          "velocity": 0.5039370078740157,
          "duration": 0.2579552333333197
        },
        {
          "name": "C#5",
          "midi": 73,
          "time": 147.00039199999915,
          "velocity": 0.5039370078740157,
          "duration": 0.2579552333333197
        },
        {
          "name": "A#4",
          "midi": 70,
          "time": 147.27311999999912,
          "velocity": 0.5039370078740157,
          "duration": 0.5170468333333247
        },
        {
          "name": "C#5",
          "midi": 73,
          "time": 147.27311999999912,
          "velocity": 0.5039370078740157,
          "duration": 0.5170468333333247
        },
        {
          "name": "F#5",
          "midi": 78,
          "time": 147.27311999999912,
          "velocity": 0.5039370078740157,
          "duration": 0.5170468333333247
        },
        {
          "name": "A#4",
          "midi": 70,
          "time": 147.81857599999913,
          "velocity": 0.5039370078740157,
          "duration": 0.5170468333333247
        },
        {
          "name": "C#5",
          "midi": 73,
          "time": 147.81857599999913,
          "velocity": 0.5039370078740157,
          "duration": 0.5170468333333247
        },
        {
          "name": "F5",
          "midi": 77,
          "time": 147.81857599999913,
          "velocity": 0.5039370078740157,
          "duration": 0.5170468333333247
        },
        {
          "name": "C#4",
          "midi": 61,
          "time": 148.36403199999913,
          "velocity": 0.5039370078740157,
          "duration": 0.5170468333333247
        },
        {
          "name": "F4",
          "midi": 65,
          "time": 148.36403199999913,
          "velocity": 0.5039370078740157,
          "duration": 0.5170468333333247
        },
        {
          "name": "G#4",
          "midi": 68,
          "time": 148.90948799999913,
          "velocity": 0.5039370078740157,
          "duration": 0.2579552333333197
        },
        {
          "name": "C#5",
          "midi": 73,
          "time": 148.90948799999913,
          "velocity": 0.5039370078740157,
          "duration": 0.2579552333333197
        },
        {
          "name": "C#5",
          "midi": 73,
          "time": 149.1822159999991,
          "velocity": 0.5039370078740157,
          "duration": 0.2579552333333197
        },
        {
          "name": "G#4",
          "midi": 68,
          "time": 149.45494399999907,
          "velocity": 0.5039370078740157,
          "duration": 0.2579552333333197
        },
        {
          "name": "C#5",
          "midi": 73,
          "time": 149.45494399999907,
          "velocity": 0.5039370078740157,
          "duration": 0.2579552333333197
        },
        {
          "name": "F5",
          "midi": 77,
          "time": 149.45494399999907,
          "velocity": 0.5039370078740157,
          "duration": 0.2579552333333197
        },
        {
          "name": "G#4",
          "midi": 68,
          "time": 149.72767199999905,
          "velocity": 0.5039370078740157,
          "duration": 0.2579552333333197
        },
        {
          "name": "F#5",
          "midi": 78,
          "time": 149.72767199999905,
          "velocity": 0.5039370078740157,
          "duration": 0.2579552333333197
        },
        {
          "name": "G#4",
          "midi": 68,
          "time": 150.00039999999902,
          "velocity": 0.5039370078740157,
          "duration": 0.5170468333333247
        },
        {
          "name": "C#5",
          "midi": 73,
          "time": 150.00039999999902,
          "velocity": 0.5039370078740157,
          "duration": 0.5170468333333247
        },
        {
          "name": "F5",
          "midi": 77,
          "time": 150.00039999999902,
          "velocity": 0.5039370078740157,
          "duration": 0.5170468333333247
        },
        {
          "name": "C4",
          "midi": 60,
          "time": 150.54585599999902,
          "velocity": 0.5039370078740157,
          "duration": 0.5170468333333247
        },
        {
          "name": "D#4",
          "midi": 63,
          "time": 150.54585599999902,
          "velocity": 0.5039370078740157,
          "duration": 0.5170468333333247
        },
        {
          "name": "G#4",
          "midi": 68,
          "time": 151.09131199999902,
          "velocity": 0.5039370078740157,
          "duration": 0.2579552333333197
        },
        {
          "name": "C#5",
          "midi": 73,
          "time": 151.09131199999902,
          "velocity": 0.5039370078740157,
          "duration": 0.2579552333333197
        },
        {
          "name": "C#5",
          "midi": 73,
          "time": 151.364039999999,
          "velocity": 0.5039370078740157,
          "duration": 0.2579552333333197
        },
        {
          "name": "G#4",
          "midi": 68,
          "time": 151.63676799999897,
          "velocity": 0.5039370078740157,
          "duration": 0.2579552333333197
        },
        {
          "name": "C5",
          "midi": 72,
          "time": 151.63676799999897,
          "velocity": 0.5039370078740157,
          "duration": 0.2579552333333197
        },
        {
          "name": "F#5",
          "midi": 78,
          "time": 151.63676799999897,
          "velocity": 0.5039370078740157,
          "duration": 0.2579552333333197
        },
        {
          "name": "C5",
          "midi": 72,
          "time": 151.90949599999894,
          "velocity": 0.5039370078740157,
          "duration": 0.2579552333333197
        },
        {
          "name": "F#5",
          "midi": 78,
          "time": 151.90949599999894,
          "velocity": 0.5039370078740157,
          "duration": 0.2579552333333197
        },
        {
          "name": "C5",
          "midi": 72,
          "time": 152.1822239999989,
          "velocity": 0.5039370078740157,
          "duration": 0.2579552333333197
        },
        {
          "name": "F5",
          "midi": 77,
          "time": 152.1822239999989,
          "velocity": 0.5039370078740157,
          "duration": 0.2579552333333197
        },
        {
          "name": "D#4",
          "midi": 63,
          "time": 152.45495199999888,
          "velocity": 0.5039370078740157,
          "duration": 0.5170468333333247
        },
        {
          "name": "A#4",
          "midi": 70,
          "time": 152.45495199999888,
          "velocity": 0.5039370078740157,
          "duration": 0.5170468333333247
        },
        {
          "name": "D#5",
          "midi": 75,
          "time": 152.45495199999888,
          "velocity": 0.5039370078740157,
          "duration": 0.5170468333333247
        },
        {
          "name": "D#4",
          "midi": 63,
          "time": 153.00040799999888,
          "velocity": 0.5039370078740157,
          "duration": 0.2579552333333197
        },
        {
          "name": "A#4",
          "midi": 70,
          "time": 153.00040799999888,
          "velocity": 0.5039370078740157,
          "duration": 0.2579552333333197
        },
        {
          "name": "C#5",
          "midi": 73,
          "time": 153.00040799999888,
          "velocity": 0.5039370078740157,
          "duration": 0.2579552333333197
        },
        {
          "name": "F4",
          "midi": 65,
          "time": 153.27313599999886,
          "velocity": 0.5039370078740157,
          "duration": 0.2579552333333197
        },
        {
          "name": "C#5",
          "midi": 73,
          "time": 153.27313599999886,
          "velocity": 0.5039370078740157,
          "duration": 0.2579552333333197
        },
        {
          "name": "C#5",
          "midi": 73,
          "time": 153.54586399999883,
          "velocity": 0.5039370078740157,
          "duration": 0.2579552333333197
        },
        {
          "name": "A#4",
          "midi": 70,
          "time": 153.8185919999988,
          "velocity": 0.5039370078740157,
          "duration": 0.2579552333333197
        },
        {
          "name": "C#5",
          "midi": 73,
          "time": 153.8185919999988,
          "velocity": 0.5039370078740157,
          "duration": 0.2579552333333197
        },
        {
          "name": "G#5",
          "midi": 80,
          "time": 153.8185919999988,
          "velocity": 0.5039370078740157,
          "duration": 0.2579552333333197
        },
        {
          "name": "A#4",
          "midi": 70,
          "time": 154.09131999999877,
          "velocity": 0.5039370078740157,
          "duration": 0.2579552333333197
        },
        {
          "name": "G#5",
          "midi": 80,
          "time": 154.09131999999877,
          "velocity": 0.5039370078740157,
          "duration": 0.2579552333333197
        },
        {
          "name": "A#4",
          "midi": 70,
          "time": 154.36404799999875,
          "velocity": 0.5039370078740157,
          "duration": 0.5170468333333247
        },
        {
          "name": "C#5",
          "midi": 73,
          "time": 154.36404799999875,
          "velocity": 0.5039370078740157,
          "duration": 0.5170468333333247
        },
        {
          "name": "F5",
          "midi": 77,
          "time": 154.36404799999875,
          "velocity": 0.5039370078740157,
          "duration": 0.5170468333333247
        },
        {
          "name": "F#4",
          "midi": 66,
          "time": 154.90950399999875,
          "velocity": 0.5039370078740157,
          "duration": 0.2579552333333197
        },
        {
          "name": "A#4",
          "midi": 70,
          "time": 154.90950399999875,
          "velocity": 0.5039370078740157,
          "duration": 0.2579552333333197
        },
        {
          "name": "D#5",
          "midi": 75,
          "time": 154.90950399999875,
          "velocity": 0.5039370078740157,
          "duration": 0.2579552333333197
        },
        {
          "name": "F#4",
          "midi": 66,
          "time": 155.18223199999872,
          "velocity": 0.5039370078740157,
          "duration": 0.2579552333333197
        },
        {
          "name": "C#5",
          "midi": 73,
          "time": 155.18223199999872,
          "velocity": 0.5039370078740157,
          "duration": 0.2579552333333197
        },
        {
          "name": "F#4",
          "midi": 66,
          "time": 155.4549599999987,
          "velocity": 0.5039370078740157,
          "duration": 0.2579552333333197
        },
        {
          "name": "A#4",
          "midi": 70,
          "time": 155.4549599999987,
          "velocity": 0.5039370078740157,
          "duration": 0.2579552333333197
        },
        {
          "name": "C#5",
          "midi": 73,
          "time": 155.4549599999987,
          "velocity": 0.5039370078740157,
          "duration": 0.2579552333333197
        },
        {
          "name": "F#4",
          "midi": 66,
          "time": 155.72768799999866,
          "velocity": 0.5039370078740157,
          "duration": 0.2579552333333197
        },
        {
          "name": "C#5",
          "midi": 73,
          "time": 155.72768799999866,
          "velocity": 0.5039370078740157,
          "duration": 0.2579552333333197
        },
        {
          "name": "A#4",
          "midi": 70,
          "time": 156.00041599999864,
          "velocity": 0.5039370078740157,
          "duration": 0.5170468333333247
        },
        {
          "name": "C#5",
          "midi": 73,
          "time": 156.00041599999864,
          "velocity": 0.5039370078740157,
          "duration": 0.5170468333333247
        },
        {
          "name": "F#5",
          "midi": 78,
          "time": 156.00041599999864,
          "velocity": 0.5039370078740157,
          "duration": 0.5170468333333247
        },
        {
          "name": "A#4",
          "midi": 70,
          "time": 156.54587199999864,
          "velocity": 0.5039370078740157,
          "duration": 0.2579552333333197
        },
        {
          "name": "C#5",
          "midi": 73,
          "time": 156.54587199999864,
          "velocity": 0.5039370078740157,
          "duration": 0.2579552333333197
        },
        {
          "name": "F5",
          "midi": 77,
          "time": 156.54587199999864,
          "velocity": 0.5039370078740157,
          "duration": 0.2579552333333197
        },
        {
          "name": "F4",
          "midi": 65,
          "time": 156.8185999999986,
          "velocity": 0.5039370078740157,
          "duration": 0.5170468333333247
        },
        {
          "name": "G#4",
          "midi": 68,
          "time": 156.8185999999986,
          "velocity": 0.5039370078740157,
          "duration": 0.5170468333333247
        },
        {
          "name": "D#5",
          "midi": 75,
          "time": 156.8185999999986,
          "velocity": 0.5039370078740157,
          "duration": 0.5170468333333247
        },
        {
          "name": "F4",
          "midi": 65,
          "time": 157.3640559999986,
          "velocity": 0.5039370078740157,
          "duration": 0.2579552333333197
        },
        {
          "name": "C#5",
          "midi": 73,
          "time": 157.3640559999986,
          "velocity": 0.5039370078740157,
          "duration": 0.2579552333333197
        },
        {
          "name": "G#4",
          "midi": 68,
          "time": 157.63678399999858,
          "velocity": 0.5039370078740157,
          "duration": 0.2579552333333197
        },
        {
          "name": "C#5",
          "midi": 73,
          "time": 157.63678399999858,
          "velocity": 0.5039370078740157,
          "duration": 0.2579552333333197
        },
        {
          "name": "G#4",
          "midi": 68,
          "time": 157.90951199999856,
          "velocity": 0.5039370078740157,
          "duration": 0.2579552333333197
        },
        {
          "name": "C#5",
          "midi": 73,
          "time": 157.90951199999856,
          "velocity": 0.5039370078740157,
          "duration": 0.2579552333333197
        },
        {
          "name": "G#4",
          "midi": 68,
          "time": 158.18223999999853,
          "velocity": 0.5039370078740157,
          "duration": 0.2579552333333197
        },
        {
          "name": "C#5",
          "midi": 73,
          "time": 158.18223999999853,
          "velocity": 0.5039370078740157,
          "duration": 0.2579552333333197
        },
        {
          "name": "F#5",
          "midi": 78,
          "time": 158.18223999999853,
          "velocity": 0.5039370078740157,
          "duration": 0.2579552333333197
        },
        {
          "name": "G#4",
          "midi": 68,
          "time": 158.4549679999985,
          "velocity": 0.5039370078740157,
          "duration": 0.2579552333333197
        },
        {
          "name": "C#5",
          "midi": 73,
          "time": 158.4549679999985,
          "velocity": 0.5039370078740157,
          "duration": 0.2579552333333197
        },
        {
          "name": "F#5",
          "midi": 78,
          "time": 158.4549679999985,
          "velocity": 0.5039370078740157,
          "duration": 0.2579552333333197
        },
        {
          "name": "G#4",
          "midi": 68,
          "time": 158.72769599999847,
          "velocity": 0.5039370078740157,
          "duration": 0.2579552333333197
        },
        {
          "name": "F5",
          "midi": 77,
          "time": 158.72769599999847,
          "velocity": 0.5039370078740157,
          "duration": 0.2579552333333197
        },
        {
          "name": "G#4",
          "midi": 68,
          "time": 159.00042399999845,
          "velocity": 0.5039370078740157,
          "duration": 0.7761384333333297
        },
        {
          "name": "C5",
          "midi": 72,
          "time": 159.00042399999845,
          "velocity": 0.5039370078740157,
          "duration": 0.7761384333333297
        },
        {
          "name": "D#5",
          "midi": 75,
          "time": 159.00042399999845,
          "velocity": 0.5039370078740157,
          "duration": 0.7761384333333297
        },
        {
          "name": "G#4",
          "midi": 68,
          "time": 159.81860799999845,
          "velocity": 0.5039370078740157,
          "duration": 0.2579552333333197
        },
        {
          "name": "C5",
          "midi": 72,
          "time": 159.81860799999845,
          "velocity": 0.5039370078740157,
          "duration": 0.2579552333333197
        },
        {
          "name": "F5",
          "midi": 77,
          "time": 159.81860799999845,
          "velocity": 0.5039370078740157,
          "duration": 0.2579552333333197
        },
        {
          "name": "G#4",
          "midi": 68,
          "time": 160.09133599999842,
          "velocity": 0.5039370078740157,
          "duration": 0.2579552333333197
        },
        {
          "name": "F5",
          "midi": 77,
          "time": 160.09133599999842,
          "velocity": 0.5039370078740157,
          "duration": 0.2579552333333197
        },
        {
          "name": "G#4",
          "midi": 68,
          "time": 160.3640639999984,
          "velocity": 0.5039370078740157,
          "duration": 0.2579552333333197
        },
        {
          "name": "C5",
          "midi": 72,
          "time": 160.3640639999984,
          "velocity": 0.5039370078740157,
          "duration": 0.2579552333333197
        },
        {
          "name": "F5",
          "midi": 77,
          "time": 160.3640639999984,
          "velocity": 0.5039370078740157,
          "duration": 0.2579552333333197
        },
        {
          "name": "G#4",
          "midi": 68,
          "time": 160.63679199999837,
          "velocity": 0.5039370078740157,
          "duration": 0.2579552333333197
        },
        {
          "name": "F5",
          "midi": 77,
          "time": 160.63679199999837,
          "velocity": 0.5039370078740157,
          "duration": 0.2579552333333197
        },
        {
          "name": "G#4",
          "midi": 68,
          "time": 160.90951999999834,
          "velocity": 0.5039370078740157,
          "duration": 0.2579552333333197
        },
        {
          "name": "C5",
          "midi": 72,
          "time": 160.90951999999834,
          "velocity": 0.5039370078740157,
          "duration": 0.2579552333333197
        },
        {
          "name": "F5",
          "midi": 77,
          "time": 160.90951999999834,
          "velocity": 0.5039370078740157,
          "duration": 0.2579552333333197
        },
        {
          "name": "G#4",
          "midi": 68,
          "time": 161.1822479999983,
          "velocity": 0.5039370078740157,
          "duration": 0.2579552333333197
        },
        {
          "name": "F5",
          "midi": 77,
          "time": 161.1822479999983,
          "velocity": 0.5039370078740157,
          "duration": 0.2579552333333197
        },
        {
          "name": "A#4",
          "midi": 70,
          "time": 161.45497599999828,
          "velocity": 0.5039370078740157,
          "duration": 0.2579552333333197
        },
        {
          "name": "C#5",
          "midi": 73,
          "time": 161.45497599999828,
          "velocity": 0.5039370078740157,
          "duration": 0.2579552333333197
        },
        {
          "name": "F5",
          "midi": 77,
          "time": 161.45497599999828,
          "velocity": 0.5039370078740157,
          "duration": 0.2579552333333197
        },
        {
          "name": "A#4",
          "midi": 70,
          "time": 161.72770399999825,
          "velocity": 0.5039370078740157,
          "duration": 0.2579552333333197
        },
        {
          "name": "D#5",
          "midi": 75,
          "time": 161.72770399999825,
          "velocity": 0.5039370078740157,
          "duration": 0.2579552333333197
        },
        {
          "name": "F4",
          "midi": 65,
          "time": 162.00043199999823,
          "velocity": 0.5039370078740157,
          "duration": 0.2579552333333197
        },
        {
          "name": "A#4",
          "midi": 70,
          "time": 162.00043199999823,
          "velocity": 0.5039370078740157,
          "duration": 0.2579552333333197
        },
        {
          "name": "D#5",
          "midi": 75,
          "time": 162.00043199999823,
          "velocity": 0.5039370078740157,
          "duration": 0.2579552333333197
        },
        {
          "name": "A#4",
          "midi": 70,
          "time": 162.2731599999982,
          "velocity": 0.5039370078740157,
          "duration": 0.2579552333333197
        },
        {
          "name": "C#5",
          "midi": 73,
          "time": 162.2731599999982,
          "velocity": 0.5039370078740157,
          "duration": 0.2579552333333197
        },
        {
          "name": "F4",
          "midi": 65,
          "time": 162.54588799999817,
          "velocity": 0.5039370078740157,
          "duration": 0.2579552333333197
        },
        {
          "name": "A#4",
          "midi": 70,
          "time": 162.54588799999817,
          "velocity": 0.5039370078740157,
          "duration": 0.2579552333333197
        },
        {
          "name": "C#5",
          "midi": 73,
          "time": 162.54588799999817,
          "velocity": 0.5039370078740157,
          "duration": 0.2579552333333197
        },
        {
          "name": "A#4",
          "midi": 70,
          "time": 162.81861599999814,
          "velocity": 0.5039370078740157,
          "duration": 0.2579552333333197
        },
        {
          "name": "D#5",
          "midi": 75,
          "time": 162.81861599999814,
          "velocity": 0.5039370078740157,
          "duration": 0.2579552333333197
        },
        {
          "name": "A#4",
          "midi": 70,
          "time": 163.09134399999812,
          "velocity": 0.5039370078740157,
          "duration": 0.2579552333333197
        },
        {
          "name": "D#5",
          "midi": 75,
          "time": 163.09134399999812,
          "velocity": 0.5039370078740157,
          "duration": 0.2579552333333197
        },
        {
          "name": "F#4",
          "midi": 66,
          "time": 163.3640719999981,
          "velocity": 0.5039370078740157,
          "duration": 0.5170468333333247
        },
        {
          "name": "A#4",
          "midi": 70,
          "time": 163.3640719999981,
          "velocity": 0.5039370078740157,
          "duration": 0.5170468333333247
        },
        {
          "name": "D#5",
          "midi": 75,
          "time": 163.3640719999981,
          "velocity": 0.5039370078740157,
          "duration": 0.5170468333333247
        },
        {
          "name": "F#4",
          "midi": 66,
          "time": 163.9095279999981,
          "velocity": 0.5039370078740157,
          "duration": 0.2579552333333197
        },
        {
          "name": "A#4",
          "midi": 70,
          "time": 163.9095279999981,
          "velocity": 0.5039370078740157,
          "duration": 0.2579552333333197
        },
        {
          "name": "C#5",
          "midi": 73,
          "time": 163.9095279999981,
          "velocity": 0.5039370078740157,
          "duration": 0.2579552333333197
        },
        {
          "name": "F#4",
          "midi": 66,
          "time": 164.18225599999806,
          "velocity": 0.5039370078740157,
          "duration": 0.2579552333333197
        },
        {
          "name": "C#5",
          "midi": 73,
          "time": 164.18225599999806,
          "velocity": 0.5039370078740157,
          "duration": 0.2579552333333197
        },
        {
          "name": "A#4",
          "midi": 70,
          "time": 164.45498399999803,
          "velocity": 0.5039370078740157,
          "duration": 0.2579552333333197
        },
        {
          "name": "C#5",
          "midi": 73,
          "time": 164.45498399999803,
          "velocity": 0.5039370078740157,
          "duration": 0.2579552333333197
        },
        {
          "name": "A#4",
          "midi": 70,
          "time": 164.727711999998,
          "velocity": 0.5039370078740157,
          "duration": 0.5170468333333247
        },
        {
          "name": "C#5",
          "midi": 73,
          "time": 164.727711999998,
          "velocity": 0.5039370078740157,
          "duration": 0.5170468333333247
        },
        {
          "name": "F#5",
          "midi": 78,
          "time": 164.727711999998,
          "velocity": 0.5039370078740157,
          "duration": 0.5170468333333247
        },
        {
          "name": "A#4",
          "midi": 70,
          "time": 165.273167999998,
          "velocity": 0.5039370078740157,
          "duration": 0.2579552333333197
        },
        {
          "name": "C#5",
          "midi": 73,
          "time": 165.273167999998,
          "velocity": 0.5039370078740157,
          "duration": 0.2579552333333197
        },
        {
          "name": "F5",
          "midi": 77,
          "time": 165.273167999998,
          "velocity": 0.5039370078740157,
          "duration": 0.2579552333333197
        },
        {
          "name": "F4",
          "midi": 65,
          "time": 165.54589599999798,
          "velocity": 0.5039370078740157,
          "duration": 0.5170468333333247
        },
        {
          "name": "G#4",
          "midi": 68,
          "time": 165.54589599999798,
          "velocity": 0.5039370078740157,
          "duration": 0.5170468333333247
        },
        {
          "name": "D#5",
          "midi": 75,
          "time": 165.54589599999798,
          "velocity": 0.5039370078740157,
          "duration": 0.5170468333333247
        },
        {
          "name": "C#5",
          "midi": 73,
          "time": 166.09135199999798,
          "velocity": 0.5039370078740157,
          "duration": 0.2579552333333197
        },
        {
          "name": "C#5",
          "midi": 73,
          "time": 166.36407999999795,
          "velocity": 0.5039370078740157,
          "duration": 0.2579552333333197
        },
        {
          "name": "C#5",
          "midi": 73,
          "time": 166.63680799999793,
          "velocity": 0.5039370078740157,
          "duration": 0.2579552333333197
        },
        {
          "name": "F#5",
          "midi": 78,
          "time": 166.9095359999979,
          "velocity": 0.5039370078740157,
          "duration": 0.2579552333333197
        },
        {
          "name": "F#5",
          "midi": 78,
          "time": 167.18226399999787,
          "velocity": 0.5039370078740157,
          "duration": 0.2579552333333197
        },
        {
          "name": "F5",
          "midi": 77,
          "time": 167.45499199999784,
          "velocity": 0.5039370078740157,
          "duration": 0.2579552333333197
        },
        {
          "name": "D#5",
          "midi": 75,
          "time": 167.72771999999782,
          "velocity": 0.5039370078740157,
          "duration": 0.2579552333333197
        },
        {
          "name": "C4",
          "midi": 60,
          "time": 168.0004479999978,
          "velocity": 0.5039370078740157,
          "duration": 0.5170468333333247
        },
        {
          "name": "F5",
          "midi": 77,
          "time": 168.5459039999978,
          "velocity": 0.5039370078740157,
          "duration": 0.2579552333333197
        },
        {
          "name": "F5",
          "midi": 77,
          "time": 168.81863199999776,
          "velocity": 0.5039370078740157,
          "duration": 0.2579552333333197
        },
        {
          "name": "G#4",
          "midi": 68,
          "time": 169.09135999999774,
          "velocity": 0.5039370078740157,
          "duration": 0.2579552333333197
        },
        {
          "name": "F5",
          "midi": 77,
          "time": 169.09135999999774,
          "velocity": 0.5039370078740157,
          "duration": 0.2579552333333197
        },
        {
          "name": "F5",
          "midi": 77,
          "time": 169.3640879999977,
          "velocity": 0.5039370078740157,
          "duration": 0.2579552333333197
        },
        {
          "name": "F5",
          "midi": 77,
          "time": 169.63681599999768,
          "velocity": 0.5039370078740157,
          "duration": 0.2579552333333197
        },
        {
          "name": "F5",
          "midi": 77,
          "time": 169.90954399999765,
          "velocity": 0.5039370078740157,
          "duration": 0.2579552333333197
        },
        {
          "name": "F4",
          "midi": 65,
          "time": 170.18227199999762,
          "velocity": 0.5039370078740157,
          "duration": 0.2579552333333197
        },
        {
          "name": "A#4",
          "midi": 70,
          "time": 170.18227199999762,
          "velocity": 0.5039370078740157,
          "duration": 0.2579552333333197
        },
        {
          "name": "F5",
          "midi": 77,
          "time": 170.18227199999762,
          "velocity": 0.5039370078740157,
          "duration": 0.2579552333333197
        },
        {
          "name": "D#5",
          "midi": 75,
          "time": 170.4549999999976,
          "velocity": 0.49606299212598426,
          "duration": 0.2579552333333197
        },
        {
          "name": "D#5",
          "midi": 75,
          "time": 170.72772799999757,
          "velocity": 0.48031496062992124,
          "duration": 0.2579552333333197
        },
        {
          "name": "C#5",
          "midi": 73,
          "time": 171.00045599999754,
          "velocity": 0.4645669291338583,
          "duration": 0.2579552333333197
        },
        {
          "name": "A#4",
          "midi": 70,
          "time": 171.2731839999975,
          "velocity": 0.44881889763779526,
          "duration": 0.2579552333333197
        },
        {
          "name": "C#5",
          "midi": 73,
          "time": 171.2731839999975,
          "velocity": 0.44881889763779526,
          "duration": 0.2579552333333197
        },
        {
          "name": "D#5",
          "midi": 75,
          "time": 171.5459119999975,
          "velocity": 0.4330708661417323,
          "duration": 0.2579552333333197
        },
        {
          "name": "D#5",
          "midi": 75,
          "time": 171.81863999999746,
          "velocity": 0.41732283464566927,
          "duration": 0.2579552333333197
        },
        {
          "name": "F#4",
          "midi": 66,
          "time": 172.09136799999743,
          "velocity": 0.4015748031496063,
          "duration": 0.5170468333333247
        },
        {
          "name": "A#4",
          "midi": 70,
          "time": 172.09136799999743,
          "velocity": 0.4015748031496063,
          "duration": 0.5170468333333247
        },
        {
          "name": "D#5",
          "midi": 75,
          "time": 172.09136799999743,
          "velocity": 0.4015748031496063,
          "duration": 0.5170468333333247
        },
        {
          "name": "C#5",
          "midi": 73,
          "time": 172.63682399999743,
          "velocity": 0.3858267716535433,
          "duration": 1.8125048333333211
        },
        {
          "name": "G#3",
          "midi": 56,
          "time": 174.5459199999974,
          "velocity": 0.3858267716535433,
          "duration": 2.071596433333326
        },
        {
          "name": "C#4",
          "midi": 61,
          "time": 174.5459199999974,
          "velocity": 0.3858267716535433,
          "duration": 2.071596433333326
        },
        {
          "name": "F4",
          "midi": 65,
          "time": 174.5459199999974,
          "velocity": 0.3858267716535433,
          "duration": 2.071596433333326
        }
      ],
      "controlChanges": {
        "7": [
          {
            "number": 7,
            "time": 0,
            "value": 0.7874015748031497
          }
        ],
        "10": [
          {
            "number": 10,
            "time": 0,
            "value": 0.5039370078740157
          }
        ],
        "91": [
          {
            "number": 91,
            "time": 0,
            "value": 0
          }
        ],
        "93": [
          {
            "number": 93,
            "time": 0,
            "value": 0
          }
        ],
        "121": [
          {
            "number": 121,
            "time": 0,
            "value": 0
          }
        ]
      },
      "id": 0,
      "instrumentNumber": 0,
      "instrument": "acoustic grand piano",
      "instrumentFamily": "piano",
      "channelNumber": 0,
      "isPercussion": false
    },
    {
      "startTime": 0,
      "duration": 176.61751643333173,
      "length": 645,
      "notes": [
        {
          "name": "C#4",
          "midi": 61,
          "time": 0,
          "velocity": 0.3858267716535433,
          "duration": 2.071596433333333
        },
        {
          "name": "G#3",
          "midi": 56,
          "time": 2.1818239999999998,
          "velocity": 0.3858267716535433,
          "duration": 2.071596433333333
        },
        {
          "name": "A#3",
          "midi": 58,
          "time": 4.3636479999999995,
          "velocity": 0.3858267716535433,
          "duration": 2.071596433333333
        },
        {
          "name": "F#3",
          "midi": 54,
          "time": 6.545471999999999,
          "velocity": 0.3858267716535433,
          "duration": 2.071596433333334
        },
        {
          "name": "C#3",
          "midi": 49,
          "time": 8.727296,
          "velocity": 0.5039370078740157,
          "duration": 0.2579552333333357
        },
        {
          "name": "G#3",
          "midi": 56,
          "time": 9.000024000000003,
          "velocity": 0.5039370078740157,
          "duration": 0.2579552333333339
        },
        {
          "name": "F4",
          "midi": 65,
          "time": 9.272752000000004,
          "velocity": 0.5039370078740157,
          "duration": 0.2579552333333339
        },
        {
          "name": "G#3",
          "midi": 56,
          "time": 9.545480000000005,
          "velocity": 0.5039370078740157,
          "duration": 0.2579552333333339
        },
        {
          "name": "F4",
          "midi": 65,
          "time": 9.818208000000006,
          "velocity": 0.5039370078740157,
          "duration": 0.2579552333333339
        },
        {
          "name": "G#3",
          "midi": 56,
          "time": 10.090936000000006,
          "velocity": 0.5039370078740157,
          "duration": 0.2579552333333339
        },
        {
          "name": "F4",
          "midi": 65,
          "time": 10.363664000000007,
          "velocity": 0.5039370078740157,
          "duration": 0.2579552333333339
        },
        {
          "name": "G#3",
          "midi": 56,
          "time": 10.636392000000008,
          "velocity": 0.5039370078740157,
          "duration": 0.2579552333333339
        },
        {
          "name": "G#2",
          "midi": 44,
          "time": 10.909120000000009,
          "velocity": 0.5039370078740157,
          "duration": 0.2579552333333357
        },
        {
          "name": "D#3",
          "midi": 51,
          "time": 11.181848000000011,
          "velocity": 0.5039370078740157,
          "duration": 0.2579552333333339
        },
        {
          "name": "C4",
          "midi": 60,
          "time": 11.454576000000012,
          "velocity": 0.5039370078740157,
          "duration": 0.2579552333333339
        },
        {
          "name": "D#3",
          "midi": 51,
          "time": 11.727304000000013,
          "velocity": 0.5039370078740157,
          "duration": 0.2579552333333339
        },
        {
          "name": "C4",
          "midi": 60,
          "time": 12.000032000000013,
          "velocity": 0.5039370078740157,
          "duration": 0.2579552333333339
        },
        {
          "name": "D#3",
          "midi": 51,
          "time": 12.272760000000014,
          "velocity": 0.5039370078740157,
          "duration": 0.2579552333333339
        },
        {
          "name": "C4",
          "midi": 60,
          "time": 12.545488000000015,
          "velocity": 0.5039370078740157,
          "duration": 0.2579552333333339
        },
        {
          "name": "D#3",
          "midi": 51,
          "time": 12.818216000000016,
          "velocity": 0.5039370078740157,
          "duration": 0.2579552333333339
        },
        {
          "name": "A#2",
          "midi": 46,
          "time": 13.090944000000016,
          "velocity": 0.5039370078740157,
          "duration": 0.2579552333333357
        },
        {
          "name": "F3",
          "midi": 53,
          "time": 13.363672000000019,
          "velocity": 0.5039370078740157,
          "duration": 0.2579552333333339
        },
        {
          "name": "C#4",
          "midi": 61,
          "time": 13.63640000000002,
          "velocity": 0.5039370078740157,
          "duration": 0.2579552333333339
        },
        {
          "name": "F3",
          "midi": 53,
          "time": 13.90912800000002,
          "velocity": 0.5039370078740157,
          "duration": 0.2579552333333339
        },
        {
          "name": "C#4",
          "midi": 61,
          "time": 14.181856000000021,
          "velocity": 0.5039370078740157,
          "duration": 0.2579552333333339
        },
        {
          "name": "F3",
          "midi": 53,
          "time": 14.454584000000022,
          "velocity": 0.5039370078740157,
          "duration": 0.2579552333333339
        },
        {
          "name": "C#4",
          "midi": 61,
          "time": 14.727312000000023,
          "velocity": 0.5039370078740157,
          "duration": 0.2579552333333339
        },
        {
          "name": "F3",
          "midi": 53,
          "time": 15.000040000000023,
          "velocity": 0.5039370078740157,
          "duration": 0.2579552333333339
        },
        {
          "name": "F#2",
          "midi": 42,
          "time": 15.272768000000024,
          "velocity": 0.5039370078740157,
          "duration": 0.2579552333333357
        },
        {
          "name": "C#3",
          "midi": 49,
          "time": 15.545496000000027,
          "velocity": 0.5039370078740157,
          "duration": 0.2579552333333339
        },
        {
          "name": "A#3",
          "midi": 58,
          "time": 15.818224000000027,
          "velocity": 0.5039370078740157,
          "duration": 0.25795523333333215
        },
        {
          "name": "C#3",
          "midi": 49,
          "time": 16.090952000000026,
          "velocity": 0.5039370078740157,
          "duration": 0.2579552333333339
        },
        {
          "name": "A#3",
          "midi": 58,
          "time": 16.363680000000027,
          "velocity": 0.5039370078740157,
          "duration": 0.2579552333333339
        },
        {
          "name": "C#3",
          "midi": 49,
          "time": 16.636408000000028,
          "velocity": 0.5039370078740157,
          "duration": 0.2579552333333339
        },
        {
          "name": "A#3",
          "midi": 58,
          "time": 16.90913600000003,
          "velocity": 0.5039370078740157,
          "duration": 0.2579552333333339
        },
        {
          "name": "C#3",
          "midi": 49,
          "time": 17.18186400000003,
          "velocity": 0.5039370078740157,
          "duration": 0.2579552333333339
        },
        {
          "name": "C#3",
          "midi": 49,
          "time": 17.45459200000003,
          "velocity": 0.5039370078740157,
          "duration": 0.2579552333333339
        },
        {
          "name": "G#3",
          "midi": 56,
          "time": 17.72732000000003,
          "velocity": 0.5039370078740157,
          "duration": 0.2579552333333339
        },
        {
          "name": "F4",
          "midi": 65,
          "time": 18.00004800000003,
          "velocity": 0.5039370078740157,
          "duration": 0.2579552333333339
        },
        {
          "name": "G#3",
          "midi": 56,
          "time": 18.272776000000032,
          "velocity": 0.5039370078740157,
          "duration": 0.2579552333333339
        },
        {
          "name": "F4",
          "midi": 65,
          "time": 18.545504000000033,
          "velocity": 0.5039370078740157,
          "duration": 0.2579552333333339
        },
        {
          "name": "G#3",
          "midi": 56,
          "time": 18.818232000000034,
          "velocity": 0.5039370078740157,
          "duration": 0.2579552333333339
        },
        {
          "name": "F4",
          "midi": 65,
          "time": 19.090960000000035,
          "velocity": 0.5039370078740157,
          "duration": 0.2579552333333339
        },
        {
          "name": "G#3",
          "midi": 56,
          "time": 19.363688000000035,
          "velocity": 0.5039370078740157,
          "duration": 0.2579552333333339
        },
        {
          "name": "G#2",
          "midi": 44,
          "time": 19.636416000000036,
          "velocity": 0.5039370078740157,
          "duration": 0.2579552333333339
        },
        {
          "name": "D#3",
          "midi": 51,
          "time": 19.909144000000037,
          "velocity": 0.5039370078740157,
          "duration": 0.2579552333333339
        },
        {
          "name": "C4",
          "midi": 60,
          "time": 20.181872000000038,
          "velocity": 0.5039370078740157,
          "duration": 0.2579552333333339
        },
        {
          "name": "D#3",
          "midi": 51,
          "time": 20.45460000000004,
          "velocity": 0.5039370078740157,
          "duration": 0.2579552333333339
        },
        {
          "name": "C4",
          "midi": 60,
          "time": 20.72732800000004,
          "velocity": 0.5039370078740157,
          "duration": 0.2579552333333339
        },
        {
          "name": "D#3",
          "midi": 51,
          "time": 21.00005600000004,
          "velocity": 0.5039370078740157,
          "duration": 0.2579552333333339
        },
        {
          "name": "C4",
          "midi": 60,
          "time": 21.27278400000004,
          "velocity": 0.5039370078740157,
          "duration": 0.2579552333333339
        },
        {
          "name": "D#3",
          "midi": 51,
          "time": 21.54551200000004,
          "velocity": 0.5039370078740157,
          "duration": 0.2579552333333339
        },
        {
          "name": "A#2",
          "midi": 46,
          "time": 21.818240000000042,
          "velocity": 0.5039370078740157,
          "duration": 0.2579552333333339
        },
        {
          "name": "F3",
          "midi": 53,
          "time": 22.090968000000043,
          "velocity": 0.5039370078740157,
          "duration": 0.2579552333333339
        },
        {
          "name": "C#4",
          "midi": 61,
          "time": 22.363696000000044,
          "velocity": 0.5039370078740157,
          "duration": 0.2579552333333339
        },
        {
          "name": "F3",
          "midi": 53,
          "time": 22.636424000000044,
          "velocity": 0.5039370078740157,
          "duration": 0.2579552333333339
        },
        {
          "name": "C#4",
          "midi": 61,
          "time": 22.909152000000045,
          "velocity": 0.5039370078740157,
          "duration": 0.2579552333333339
        },
        {
          "name": "F3",
          "midi": 53,
          "time": 23.181880000000046,
          "velocity": 0.5039370078740157,
          "duration": 0.2579552333333339
        },
        {
          "name": "C#4",
          "midi": 61,
          "time": 23.454608000000047,
          "velocity": 0.5039370078740157,
          "duration": 0.2579552333333339
        },
        {
          "name": "F3",
          "midi": 53,
          "time": 23.727336000000047,
          "velocity": 0.5039370078740157,
          "duration": 0.2579552333333339
        },
        {
          "name": "F#2",
          "midi": 42,
          "time": 24.000064000000048,
          "velocity": 0.5039370078740157,
          "duration": 0.2579552333333339
        },
        {
          "name": "C#3",
          "midi": 49,
          "time": 24.27279200000005,
          "velocity": 0.5039370078740157,
          "duration": 0.2579552333333339
        },
        {
          "name": "A#3",
          "midi": 58,
          "time": 24.54552000000005,
          "velocity": 0.5039370078740157,
          "duration": 0.2579552333333339
        },
        {
          "name": "C#3",
          "midi": 49,
          "time": 24.81824800000005,
          "velocity": 0.5039370078740157,
          "duration": 0.2579552333333339
        },
        {
          "name": "A#3",
          "midi": 58,
          "time": 25.09097600000005,
          "velocity": 0.5039370078740157,
          "duration": 0.2579552333333339
        },
        {
          "name": "C#3",
          "midi": 49,
          "time": 25.36370400000005,
          "velocity": 0.5039370078740157,
          "duration": 0.2579552333333339
        },
        {
          "name": "A#3",
          "midi": 58,
          "time": 25.636432000000053,
          "velocity": 0.5039370078740157,
          "duration": 0.2579552333333339
        },
        {
          "name": "C#3",
          "midi": 49,
          "time": 25.909160000000053,
          "velocity": 0.5039370078740157,
          "duration": 0.2579552333333339
        },
        {
          "name": "C#3",
          "midi": 49,
          "time": 26.181888000000054,
          "velocity": 0.5039370078740157,
          "duration": 0.2579552333333339
        },
        {
          "name": "G#3",
          "midi": 56,
          "time": 26.454616000000055,
          "velocity": 0.5039370078740157,
          "duration": 0.2579552333333339
        },
        {
          "name": "F4",
          "midi": 65,
          "time": 26.727344000000056,
          "velocity": 0.5039370078740157,
          "duration": 0.2579552333333339
        },
        {
          "name": "G#3",
          "midi": 56,
          "time": 27.000072000000056,
          "velocity": 0.5039370078740157,
          "duration": 0.2579552333333339
        },
        {
          "name": "F4",
          "midi": 65,
          "time": 27.272800000000057,
          "velocity": 0.5039370078740157,
          "duration": 0.2579552333333339
        },
        {
          "name": "G#3",
          "midi": 56,
          "time": 27.545528000000058,
          "velocity": 0.5039370078740157,
          "duration": 0.2579552333333339
        },
        {
          "name": "F4",
          "midi": 65,
          "time": 27.81825600000006,
          "velocity": 0.5039370078740157,
          "duration": 0.2579552333333339
        },
        {
          "name": "G#3",
          "midi": 56,
          "time": 28.09098400000006,
          "velocity": 0.5039370078740157,
          "duration": 0.2579552333333339
        },
        {
          "name": "G#2",
          "midi": 44,
          "time": 28.36371200000006,
          "velocity": 0.5039370078740157,
          "duration": 0.2579552333333339
        },
        {
          "name": "D#3",
          "midi": 51,
          "time": 28.63644000000006,
          "velocity": 0.5039370078740157,
          "duration": 0.2579552333333339
        },
        {
          "name": "C4",
          "midi": 60,
          "time": 28.90916800000006,
          "velocity": 0.5039370078740157,
          "duration": 0.2579552333333339
        },
        {
          "name": "D#3",
          "midi": 51,
          "time": 29.181896000000062,
          "velocity": 0.5039370078740157,
          "duration": 0.2579552333333339
        },
        {
          "name": "C4",
          "midi": 60,
          "time": 29.454624000000063,
          "velocity": 0.5039370078740157,
          "duration": 0.2579552333333339
        },
        {
          "name": "D#3",
          "midi": 51,
          "time": 29.727352000000064,
          "velocity": 0.5039370078740157,
          "duration": 0.2579552333333339
        },
        {
          "name": "C4",
          "midi": 60,
          "time": 30.000080000000064,
          "velocity": 0.5039370078740157,
          "duration": 0.2579552333333339
        },
        {
          "name": "D#3",
          "midi": 51,
          "time": 30.272808000000065,
          "velocity": 0.5039370078740157,
          "duration": 0.2579552333333339
        },
        {
          "name": "A#2",
          "midi": 46,
          "time": 30.545536000000066,
          "velocity": 0.5039370078740157,
          "duration": 0.2579552333333339
        },
        {
          "name": "F3",
          "midi": 53,
          "time": 30.818264000000067,
          "velocity": 0.5039370078740157,
          "duration": 0.2579552333333339
        },
        {
          "name": "C#4",
          "midi": 61,
          "time": 31.090992000000067,
          "velocity": 0.5039370078740157,
          "duration": 0.2579552333333339
        },
        {
          "name": "F3",
          "midi": 53,
          "time": 31.363720000000068,
          "velocity": 0.5039370078740157,
          "duration": 0.2579552333333339
        },
        {
          "name": "C#4",
          "midi": 61,
          "time": 31.63644800000007,
          "velocity": 0.5039370078740157,
          "duration": 0.2579552333333339
        },
        {
          "name": "F3",
          "midi": 53,
          "time": 31.90917600000007,
          "velocity": 0.5039370078740157,
          "duration": 0.25795523333333037
        },
        {
          "name": "C#4",
          "midi": 61,
          "time": 32.18190400000007,
          "velocity": 0.5039370078740157,
          "duration": 0.2579552333333339
        },
        {
          "name": "F3",
          "midi": 53,
          "time": 32.45463200000007,
          "velocity": 0.5039370078740157,
          "duration": 0.2579552333333339
        },
        {
          "name": "F#2",
          "midi": 42,
          "time": 32.72736000000007,
          "velocity": 0.5039370078740157,
          "duration": 0.2579552333333268
        },
        {
          "name": "C#3",
          "midi": 49,
          "time": 33.00008800000006,
          "velocity": 0.5039370078740157,
          "duration": 0.2579552333333339
        },
        {
          "name": "A#3",
          "midi": 58,
          "time": 33.27281600000006,
          "velocity": 0.5039370078740157,
          "duration": 0.2579552333333339
        },
        {
          "name": "C#3",
          "midi": 49,
          "time": 33.54554400000006,
          "velocity": 0.5039370078740157,
          "duration": 0.2579552333333339
        },
        {
          "name": "A#3",
          "midi": 58,
          "time": 33.818272000000064,
          "velocity": 0.5039370078740157,
          "duration": 0.2579552333333339
        },
        {
          "name": "C#3",
          "midi": 49,
          "time": 34.091000000000065,
          "velocity": 0.5039370078740157,
          "duration": 0.2579552333333339
        },
        {
          "name": "A#3",
          "midi": 58,
          "time": 34.363728000000066,
          "velocity": 0.5039370078740157,
          "duration": 0.2579552333333339
        },
        {
          "name": "C#3",
          "midi": 49,
          "time": 34.63645600000007,
          "velocity": 0.5039370078740157,
          "duration": 0.2579552333333339
        },
        {
          "name": "C#3",
          "midi": 49,
          "time": 34.90918400000007,
          "velocity": 0.5039370078740157,
          "duration": 0.2579552333333268
        },
        {
          "name": "G#3",
          "midi": 56,
          "time": 35.18191200000006,
          "velocity": 0.5039370078740157,
          "duration": 0.2579552333333339
        },
        {
          "name": "F4",
          "midi": 65,
          "time": 35.45464000000006,
          "velocity": 0.5039370078740157,
          "duration": 0.2579552333333339
        },
        {
          "name": "G#3",
          "midi": 56,
          "time": 35.72736800000006,
          "velocity": 0.5039370078740157,
          "duration": 0.2579552333333339
        },
        {
          "name": "F4",
          "midi": 65,
          "time": 36.00009600000006,
          "velocity": 0.5039370078740157,
          "duration": 0.2579552333333339
        },
        {
          "name": "G#3",
          "midi": 56,
          "time": 36.272824000000064,
          "velocity": 0.5039370078740157,
          "duration": 0.2579552333333339
        },
        {
          "name": "F4",
          "midi": 65,
          "time": 36.545552000000065,
          "velocity": 0.5039370078740157,
          "duration": 0.2579552333333339
        },
        {
          "name": "G#3",
          "midi": 56,
          "time": 36.818280000000065,
          "velocity": 0.5039370078740157,
          "duration": 0.2579552333333339
        },
        {
          "name": "G#2",
          "midi": 44,
          "time": 37.091008000000066,
          "velocity": 0.5039370078740157,
          "duration": 0.2579552333333268
        },
        {
          "name": "D#3",
          "midi": 51,
          "time": 37.36373600000006,
          "velocity": 0.5039370078740157,
          "duration": 0.2579552333333339
        },
        {
          "name": "C4",
          "midi": 60,
          "time": 37.63646400000006,
          "velocity": 0.5039370078740157,
          "duration": 0.2579552333333339
        },
        {
          "name": "D#3",
          "midi": 51,
          "time": 37.90919200000006,
          "velocity": 0.5039370078740157,
          "duration": 0.2579552333333339
        },
        {
          "name": "C4",
          "midi": 60,
          "time": 38.18192000000006,
          "velocity": 0.5196850393700787,
          "duration": 0.2579552333333339
        },
        {
          "name": "D#3",
          "midi": 51,
          "time": 38.45464800000006,
          "velocity": 0.5354330708661418,
          "duration": 0.2579552333333339
        },
        {
          "name": "C4",
          "midi": 60,
          "time": 38.72737600000006,
          "velocity": 0.5511811023622047,
          "duration": 0.2579552333333339
        },
        {
          "name": "D#3",
          "midi": 51,
          "time": 39.000104000000064,
          "velocity": 0.5669291338582677,
          "duration": 0.2579552333333339
        },
        {
          "name": "A#2",
          "midi": 46,
          "time": 39.272832000000065,
          "velocity": 0.5826771653543307,
          "duration": 0.2579552333333268
        },
        {
          "name": "F3",
          "midi": 53,
          "time": 39.54556000000006,
          "velocity": 0.5984251968503937,
          "duration": 0.2579552333333339
        },
        {
          "name": "C#4",
          "midi": 61,
          "time": 39.81828800000006,
          "velocity": 0.6141732283464567,
          "duration": 0.2579552333333339
        },
        {
          "name": "F3",
          "midi": 53,
          "time": 40.09101600000006,
          "velocity": 0.6377952755905512,
          "duration": 0.2579552333333339
        },
        {
          "name": "C#4",
          "midi": 61,
          "time": 40.36374400000006,
          "velocity": 0.6535433070866141,
          "duration": 0.2579552333333339
        },
        {
          "name": "F3",
          "midi": 53,
          "time": 40.63647200000006,
          "velocity": 0.6692913385826772,
          "duration": 0.2579552333333339
        },
        {
          "name": "C#4",
          "midi": 61,
          "time": 40.90920000000006,
          "velocity": 0.6850393700787402,
          "duration": 0.2579552333333339
        },
        {
          "name": "F3",
          "midi": 53,
          "time": 41.18192800000006,
          "velocity": 0.7007874015748031,
          "duration": 0.2579552333333339
        },
        {
          "name": "F#2",
          "midi": 42,
          "time": 41.454656000000064,
          "velocity": 0.7165354330708661,
          "duration": 0.2579552333333268
        },
        {
          "name": "C#3",
          "midi": 49,
          "time": 41.72738400000006,
          "velocity": 0.7322834645669292,
          "duration": 0.2579552333333339
        },
        {
          "name": "A#3",
          "midi": 58,
          "time": 42.00011200000006,
          "velocity": 0.7559055118110236,
          "duration": 0.2579552333333339
        },
        {
          "name": "C#3",
          "midi": 49,
          "time": 42.27284000000006,
          "velocity": 0.7559055118110236,
          "duration": 0.2579552333333339
        },
        {
          "name": "A#3",
          "midi": 58,
          "time": 42.54556800000006,
          "velocity": 0.7559055118110236,
          "duration": 0.2579552333333339
        },
        {
          "name": "C#3",
          "midi": 49,
          "time": 42.81829600000006,
          "velocity": 0.7559055118110236,
          "duration": 0.2579552333333339
        },
        {
          "name": "A#3",
          "midi": 58,
          "time": 43.09102400000006,
          "velocity": 0.7559055118110236,
          "duration": 0.2579552333333339
        },
        {
          "name": "C#3",
          "midi": 49,
          "time": 43.36375200000006,
          "velocity": 0.7559055118110236,
          "duration": 0.2579552333333339
        },
        {
          "name": "C#2",
          "midi": 37,
          "time": 43.63648000000006,
          "velocity": 0.7559055118110236,
          "duration": 0.2579552333333268
        },
        {
          "name": "C#3",
          "midi": 49,
          "time": 43.63648000000006,
          "velocity": 0.7559055118110236,
          "duration": 0.2579552333333268
        },
        {
          "name": "G#3",
          "midi": 56,
          "time": 43.909208000000056,
          "velocity": 0.7559055118110236,
          "duration": 0.2579552333333339
        },
        {
          "name": "C#4",
          "midi": 61,
          "time": 44.18193600000006,
          "velocity": 0.7559055118110236,
          "duration": 0.2579552333333339
        },
        {
          "name": "F4",
          "midi": 65,
          "time": 44.18193600000006,
          "velocity": 0.7559055118110236,
          "duration": 0.2579552333333339
        },
        {
          "name": "G#3",
          "midi": 56,
          "time": 44.45466400000006,
          "velocity": 0.7559055118110236,
          "duration": 0.2579552333333339
        },
        {
          "name": "F4",
          "midi": 65,
          "time": 44.72739200000006,
          "velocity": 0.7559055118110236,
          "duration": 0.2579552333333339
        },
        {
          "name": "G#3",
          "midi": 56,
          "time": 45.00012000000006,
          "velocity": 0.7559055118110236,
          "duration": 0.2579552333333339
        },
        {
          "name": "C#4",
          "midi": 61,
          "time": 45.27284800000006,
          "velocity": 0.7559055118110236,
          "duration": 0.2579552333333339
        },
        {
          "name": "F4",
          "midi": 65,
          "time": 45.27284800000006,
          "velocity": 0.7559055118110236,
          "duration": 0.2579552333333339
        },
        {
          "name": "G#3",
          "midi": 56,
          "time": 45.54557600000006,
          "velocity": 0.7559055118110236,
          "duration": 0.2579552333333339
        },
        {
          "name": "G#1",
          "midi": 32,
          "time": 45.81830400000006,
          "velocity": 0.7559055118110236,
          "duration": 0.2579552333333268
        },
        {
          "name": "G#2",
          "midi": 44,
          "time": 45.81830400000006,
          "velocity": 0.7559055118110236,
          "duration": 0.2579552333333268
        },
        {
          "name": "D#3",
          "midi": 51,
          "time": 46.091032000000055,
          "velocity": 0.7559055118110236,
          "duration": 0.2579552333333339
        },
        {
          "name": "G#3",
          "midi": 56,
          "time": 46.363760000000056,
          "velocity": 0.7559055118110236,
          "duration": 0.2579552333333339
        },
        {
          "name": "C4",
          "midi": 60,
          "time": 46.363760000000056,
          "velocity": 0.7559055118110236,
          "duration": 0.2579552333333339
        },
        {
          "name": "D#3",
          "midi": 51,
          "time": 46.63648800000006,
          "velocity": 0.7559055118110236,
          "duration": 0.2579552333333339
        },
        {
          "name": "C4",
          "midi": 60,
          "time": 46.90921600000006,
          "velocity": 0.7559055118110236,
          "duration": 0.2579552333333339
        },
        {
          "name": "D#3",
          "midi": 51,
          "time": 47.18194400000006,
          "velocity": 0.7559055118110236,
          "duration": 0.2579552333333339
        },
        {
          "name": "G#3",
          "midi": 56,
          "time": 47.45467200000006,
          "velocity": 0.7559055118110236,
          "duration": 0.2579552333333339
        },
        {
          "name": "C4",
          "midi": 60,
          "time": 47.45467200000006,
          "velocity": 0.7559055118110236,
          "duration": 0.2579552333333339
        },
        {
          "name": "D#3",
          "midi": 51,
          "time": 47.72740000000006,
          "velocity": 0.7559055118110236,
          "duration": 0.2579552333333339
        },
        {
          "name": "A#1",
          "midi": 34,
          "time": 48.00012800000006,
          "velocity": 0.7559055118110236,
          "duration": 0.2579552333333268
        },
        {
          "name": "A#2",
          "midi": 46,
          "time": 48.00012800000006,
          "velocity": 0.7559055118110236,
          "duration": 0.2579552333333268
        },
        {
          "name": "F3",
          "midi": 53,
          "time": 48.272856000000054,
          "velocity": 0.7559055118110236,
          "duration": 0.2579552333333339
        },
        {
          "name": "A#3",
          "midi": 58,
          "time": 48.545584000000055,
          "velocity": 0.7559055118110236,
          "duration": 0.2579552333333339
        },
        {
          "name": "C#4",
          "midi": 61,
          "time": 48.545584000000055,
          "velocity": 0.7559055118110236,
          "duration": 0.2579552333333339
        },
        {
          "name": "F3",
          "midi": 53,
          "time": 48.818312000000056,
          "velocity": 0.7559055118110236,
          "duration": 0.2579552333333339
        },
        {
          "name": "C#4",
          "midi": 61,
          "time": 49.091040000000056,
          "velocity": 0.7559055118110236,
          "duration": 0.2579552333333339
        },
        {
          "name": "F3",
          "midi": 53,
          "time": 49.36376800000006,
          "velocity": 0.7559055118110236,
          "duration": 0.2579552333333339
        },
        {
          "name": "A#3",
          "midi": 58,
          "time": 49.63649600000006,
          "velocity": 0.7559055118110236,
          "duration": 0.2579552333333339
        },
        {
          "name": "C#4",
          "midi": 61,
          "time": 49.63649600000006,
          "velocity": 0.7559055118110236,
          "duration": 0.2579552333333339
        },
        {
          "name": "F3",
          "midi": 53,
          "time": 49.90922400000006,
          "velocity": 0.7559055118110236,
          "duration": 0.2579552333333339
        },
        {
          "name": "F#1",
          "midi": 30,
          "time": 50.18195200000006,
          "velocity": 0.7559055118110236,
          "duration": 0.2579552333333268
        },
        {
          "name": "F#2",
          "midi": 42,
          "time": 50.18195200000006,
          "velocity": 0.7559055118110236,
          "duration": 0.2579552333333268
        },
        {
          "name": "C#3",
          "midi": 49,
          "time": 50.45468000000005,
          "velocity": 0.7559055118110236,
          "duration": 0.2579552333333339
        },
        {
          "name": "F#3",
          "midi": 54,
          "time": 50.727408000000054,
          "velocity": 0.7559055118110236,
          "duration": 0.2579552333333339
        },
        {
          "name": "A#3",
          "midi": 58,
          "time": 50.727408000000054,
          "velocity": 0.7559055118110236,
          "duration": 0.2579552333333339
        },
        {
          "name": "C#3",
          "midi": 49,
          "time": 51.000136000000055,
          "velocity": 0.7559055118110236,
          "duration": 0.2579552333333339
        },
        {
          "name": "A#3",
          "midi": 58,
          "time": 51.272864000000055,
          "velocity": 0.7559055118110236,
          "duration": 0.2579552333333339
        },
        {
          "name": "C#3",
          "midi": 49,
          "time": 51.545592000000056,
          "velocity": 0.7559055118110236,
          "duration": 0.2579552333333339
        },
        {
          "name": "F#3",
          "midi": 54,
          "time": 51.81832000000006,
          "velocity": 0.7559055118110236,
          "duration": 0.2579552333333339
        },
        {
          "name": "A#3",
          "midi": 58,
          "time": 51.81832000000006,
          "velocity": 0.7559055118110236,
          "duration": 0.2579552333333339
        },
        {
          "name": "C#3",
          "midi": 49,
          "time": 52.09104800000006,
          "velocity": 0.7559055118110236,
          "duration": 0.2579552333333339
        },
        {
          "name": "C#2",
          "midi": 37,
          "time": 52.36377600000006,
          "velocity": 0.7559055118110236,
          "duration": 0.2579552333333268
        },
        {
          "name": "C#3",
          "midi": 49,
          "time": 52.36377600000006,
          "velocity": 0.7559055118110236,
          "duration": 0.2579552333333268
        },
        {
          "name": "G#3",
          "midi": 56,
          "time": 52.63650400000005,
          "velocity": 0.7559055118110236,
          "duration": 0.2579552333333339
        },
        {
          "name": "C#4",
          "midi": 61,
          "time": 52.90923200000005,
          "velocity": 0.7559055118110236,
          "duration": 0.2579552333333339
        },
        {
          "name": "F4",
          "midi": 65,
          "time": 52.90923200000005,
          "velocity": 0.7559055118110236,
          "duration": 0.2579552333333339
        },
        {
          "name": "G#3",
          "midi": 56,
          "time": 53.18196000000005,
          "velocity": 0.7559055118110236,
          "duration": 0.2579552333333339
        },
        {
          "name": "F4",
          "midi": 65,
          "time": 53.454688000000054,
          "velocity": 0.7559055118110236,
          "duration": 0.2579552333333339
        },
        {
          "name": "G#3",
          "midi": 56,
          "time": 53.727416000000055,
          "velocity": 0.7559055118110236,
          "duration": 0.2579552333333339
        },
        {
          "name": "C#4",
          "midi": 61,
          "time": 54.000144000000056,
          "velocity": 0.7559055118110236,
          "duration": 0.2579552333333339
        },
        {
          "name": "F4",
          "midi": 65,
          "time": 54.000144000000056,
          "velocity": 0.7559055118110236,
          "duration": 0.2579552333333339
        },
        {
          "name": "G#3",
          "midi": 56,
          "time": 54.272872000000056,
          "velocity": 0.7559055118110236,
          "duration": 0.2579552333333339
        },
        {
          "name": "G#1",
          "midi": 32,
          "time": 54.54560000000006,
          "velocity": 0.7559055118110236,
          "duration": 0.2579552333333268
        },
        {
          "name": "G#2",
          "midi": 44,
          "time": 54.54560000000006,
          "velocity": 0.7559055118110236,
          "duration": 0.2579552333333268
        },
        {
          "name": "D#3",
          "midi": 51,
          "time": 54.81832800000005,
          "velocity": 0.7559055118110236,
          "duration": 0.2579552333333339
        },
        {
          "name": "G#3",
          "midi": 56,
          "time": 55.09105600000005,
          "velocity": 0.7559055118110236,
          "duration": 0.2579552333333339
        },
        {
          "name": "C4",
          "midi": 60,
          "time": 55.09105600000005,
          "velocity": 0.7559055118110236,
          "duration": 0.2579552333333339
        },
        {
          "name": "D#3",
          "midi": 51,
          "time": 55.36378400000005,
          "velocity": 0.7559055118110236,
          "duration": 0.2579552333333339
        },
        {
          "name": "C4",
          "midi": 60,
          "time": 55.63651200000005,
          "velocity": 0.7559055118110236,
          "duration": 0.2579552333333339
        },
        {
          "name": "D#3",
          "midi": 51,
          "time": 55.909240000000054,
          "velocity": 0.7559055118110236,
          "duration": 0.2579552333333339
        },
        {
          "name": "G#3",
          "midi": 56,
          "time": 56.181968000000055,
          "velocity": 0.7559055118110236,
          "duration": 0.2579552333333339
        },
        {
          "name": "C4",
          "midi": 60,
          "time": 56.181968000000055,
          "velocity": 0.7559055118110236,
          "duration": 0.2579552333333339
        },
        {
          "name": "D#3",
          "midi": 51,
          "time": 56.454696000000055,
          "velocity": 0.7559055118110236,
          "duration": 0.2579552333333339
        },
        {
          "name": "A#1",
          "midi": 34,
          "time": 56.727424000000056,
          "velocity": 0.7559055118110236,
          "duration": 0.2579552333333268
        },
        {
          "name": "A#2",
          "midi": 46,
          "time": 56.727424000000056,
          "velocity": 0.7559055118110236,
          "duration": 0.2579552333333268
        },
        {
          "name": "F3",
          "midi": 53,
          "time": 57.00015200000005,
          "velocity": 0.7559055118110236,
          "duration": 0.2579552333333339
        },
        {
          "name": "A#3",
          "midi": 58,
          "time": 57.27288000000005,
          "velocity": 0.7559055118110236,
          "duration": 0.2579552333333339
        },
        {
          "name": "C#4",
          "midi": 61,
          "time": 57.27288000000005,
          "velocity": 0.7559055118110236,
          "duration": 0.2579552333333339
        },
        {
          "name": "F3",
          "midi": 53,
          "time": 57.54560800000005,
          "velocity": 0.7559055118110236,
          "duration": 0.2579552333333339
        },
        {
          "name": "C#4",
          "midi": 61,
          "time": 57.81833600000005,
          "velocity": 0.7559055118110236,
          "duration": 0.2579552333333339
        },
        {
          "name": "F3",
          "midi": 53,
          "time": 58.09106400000005,
          "velocity": 0.7559055118110236,
          "duration": 0.2579552333333339
        },
        {
          "name": "A#3",
          "midi": 58,
          "time": 58.36379200000005,
          "velocity": 0.7559055118110236,
          "duration": 0.2579552333333339
        },
        {
          "name": "C#4",
          "midi": 61,
          "time": 58.36379200000005,
          "velocity": 0.7559055118110236,
          "duration": 0.2579552333333339
        },
        {
          "name": "F3",
          "midi": 53,
          "time": 58.636520000000054,
          "velocity": 0.7559055118110236,
          "duration": 0.2579552333333339
        },
        {
          "name": "F#1",
          "midi": 30,
          "time": 58.909248000000055,
          "velocity": 0.7559055118110236,
          "duration": 0.2579552333333268
        },
        {
          "name": "F#2",
          "midi": 42,
          "time": 58.909248000000055,
          "velocity": 0.7559055118110236,
          "duration": 0.2579552333333268
        },
        {
          "name": "C#3",
          "midi": 49,
          "time": 59.18197600000005,
          "velocity": 0.7559055118110236,
          "duration": 0.2579552333333339
        },
        {
          "name": "F#3",
          "midi": 54,
          "time": 59.45470400000005,
          "velocity": 0.7559055118110236,
          "duration": 0.2579552333333339
        },
        {
          "name": "A#3",
          "midi": 58,
          "time": 59.45470400000005,
          "velocity": 0.7559055118110236,
          "duration": 0.2579552333333339
        },
        {
          "name": "C#3",
          "midi": 49,
          "time": 59.72743200000005,
          "velocity": 0.7559055118110236,
          "duration": 0.2579552333333339
        },
        {
          "name": "A#3",
          "midi": 58,
          "time": 60.00016000000005,
          "velocity": 0.7559055118110236,
          "duration": 0.2579552333333339
        },
        {
          "name": "C#3",
          "midi": 49,
          "time": 60.27288800000005,
          "velocity": 0.6929133858267716,
          "duration": 0.2579552333333339
        },
        {
          "name": "F#3",
          "midi": 54,
          "time": 60.54561600000005,
          "velocity": 0.6299212598425197,
          "duration": 0.2579552333333339
        },
        {
          "name": "A#3",
          "midi": 58,
          "time": 60.54561600000005,
          "velocity": 0.6299212598425197,
          "duration": 0.2579552333333339
        },
        {
          "name": "C#3",
          "midi": 49,
          "time": 60.81834400000005,
          "velocity": 0.5669291338582677,
          "duration": 0.2579552333333339
        },
        {
          "name": "C#3",
          "midi": 49,
          "time": 61.091072000000054,
          "velocity": 0.5039370078740157,
          "duration": 0.2579552333333268
        },
        {
          "name": "G#3",
          "midi": 56,
          "time": 61.36380000000005,
          "velocity": 0.5039370078740157,
          "duration": 0.2579552333333339
        },
        {
          "name": "F4",
          "midi": 65,
          "time": 61.63652800000005,
          "velocity": 0.5039370078740157,
          "duration": 0.2579552333333339
        },
        {
          "name": "G#3",
          "midi": 56,
          "time": 61.90925600000005,
          "velocity": 0.5039370078740157,
          "duration": 0.2579552333333339
        },
        {
          "name": "F4",
          "midi": 65,
          "time": 62.18198400000005,
          "velocity": 0.5039370078740157,
          "duration": 0.2579552333333339
        },
        {
          "name": "G#3",
          "midi": 56,
          "time": 62.45471200000005,
          "velocity": 0.5039370078740157,
          "duration": 0.2579552333333339
        },
        {
          "name": "F4",
          "midi": 65,
          "time": 62.72744000000005,
          "velocity": 0.5039370078740157,
          "duration": 0.2579552333333339
        },
        {
          "name": "G#3",
          "midi": 56,
          "time": 63.00016800000005,
          "velocity": 0.5039370078740157,
          "duration": 0.2579552333333339
        },
        {
          "name": "G#2",
          "midi": 44,
          "time": 63.27289600000005,
          "velocity": 0.5039370078740157,
          "duration": 0.2579552333333268
        },
        {
          "name": "D#3",
          "midi": 51,
          "time": 63.545624000000046,
          "velocity": 0.5039370078740157,
          "duration": 0.2579552333333339
        },
        {
          "name": "C4",
          "midi": 60,
          "time": 63.81835200000005,
          "velocity": 0.5039370078740157,
          "duration": 0.2579552333333339
        },
        {
          "name": "D#3",
          "midi": 51,
          "time": 64.09108000000005,
          "velocity": 0.5039370078740157,
          "duration": 0.2579552333333339
        },
        {
          "name": "C4",
          "midi": 60,
          "time": 64.36380800000005,
          "velocity": 0.5039370078740157,
          "duration": 0.2579552333333339
        },
        {
          "name": "D#3",
          "midi": 51,
          "time": 64.63653600000005,
          "velocity": 0.5039370078740157,
          "duration": 0.2579552333333339
        },
        {
          "name": "C4",
          "midi": 60,
          "time": 64.90926400000005,
          "velocity": 0.5039370078740157,
          "duration": 0.2579552333333339
        },
        {
          "name": "D#3",
          "midi": 51,
          "time": 65.18199200000005,
          "velocity": 0.5039370078740157,
          "duration": 0.2579552333333339
        },
        {
          "name": "A#2",
          "midi": 46,
          "time": 65.45472000000005,
          "velocity": 0.5039370078740157,
          "duration": 0.25795523333334813
        },
        {
          "name": "F3",
          "midi": 53,
          "time": 65.72744800000007,
          "velocity": 0.5039370078740157,
          "duration": 0.2579552333333339
        },
        {
          "name": "C#4",
          "midi": 61,
          "time": 66.00017600000007,
          "velocity": 0.5039370078740157,
          "duration": 0.2579552333333339
        },
        {
          "name": "F3",
          "midi": 53,
          "time": 66.27290400000007,
          "velocity": 0.5039370078740157,
          "duration": 0.2579552333333339
        },
        {
          "name": "C#4",
          "midi": 61,
          "time": 66.54563200000007,
          "velocity": 0.5039370078740157,
          "duration": 0.2579552333333339
        },
        {
          "name": "F3",
          "midi": 53,
          "time": 66.81836000000007,
          "velocity": 0.5039370078740157,
          "duration": 0.2579552333333339
        },
        {
          "name": "C#4",
          "midi": 61,
          "time": 67.09108800000007,
          "velocity": 0.5039370078740157,
          "duration": 0.2579552333333339
        },
        {
          "name": "F3",
          "midi": 53,
          "time": 67.36381600000007,
          "velocity": 0.5039370078740157,
          "duration": 0.2579552333333339
        },
        {
          "name": "F#2",
          "midi": 42,
          "time": 67.63654400000007,
          "velocity": 0.5039370078740157,
          "duration": 0.25795523333334813
        },
        {
          "name": "C#3",
          "midi": 49,
          "time": 67.90927200000009,
          "velocity": 0.5039370078740157,
          "duration": 0.2579552333333339
        },
        {
          "name": "A#3",
          "midi": 58,
          "time": 68.18200000000009,
          "velocity": 0.5039370078740157,
          "duration": 0.2579552333333339
        },
        {
          "name": "C#3",
          "midi": 49,
          "time": 68.45472800000009,
          "velocity": 0.5039370078740157,
          "duration": 0.2579552333333339
        },
        {
          "name": "A#3",
          "midi": 58,
          "time": 68.72745600000009,
          "velocity": 0.5039370078740157,
          "duration": 0.2579552333333339
        },
        {
          "name": "C#3",
          "midi": 49,
          "time": 69.00018400000009,
          "velocity": 0.5039370078740157,
          "duration": 0.2579552333333339
        },
        {
          "name": "A#3",
          "midi": 58,
          "time": 69.27291200000009,
          "velocity": 0.5039370078740157,
          "duration": 0.2579552333333339
        },
        {
          "name": "C#3",
          "midi": 49,
          "time": 69.54564000000009,
          "velocity": 0.5039370078740157,
          "duration": 0.2579552333333339
        },
        {
          "name": "C#3",
          "midi": 49,
          "time": 69.81836800000009,
          "velocity": 0.5039370078740157,
          "duration": 0.25795523333334813
        },
        {
          "name": "G#3",
          "midi": 56,
          "time": 70.0910960000001,
          "velocity": 0.5039370078740157,
          "duration": 0.2579552333333339
        },
        {
          "name": "F4",
          "midi": 65,
          "time": 70.36382400000011,
          "velocity": 0.5039370078740157,
          "duration": 0.2579552333333339
        },
        {
          "name": "G#3",
          "midi": 56,
          "time": 70.63655200000011,
          "velocity": 0.5039370078740157,
          "duration": 0.2579552333333339
        },
        {
          "name": "F4",
          "midi": 65,
          "time": 70.90928000000011,
          "velocity": 0.5039370078740157,
          "duration": 0.2579552333333339
        },
        {
          "name": "G#3",
          "midi": 56,
          "time": 71.18200800000011,
          "velocity": 0.5039370078740157,
          "duration": 0.2579552333333339
        },
        {
          "name": "F4",
          "midi": 65,
          "time": 71.45473600000011,
          "velocity": 0.5039370078740157,
          "duration": 0.2579552333333339
        },
        {
          "name": "G#3",
          "midi": 56,
          "time": 71.72746400000011,
          "velocity": 0.5039370078740157,
          "duration": 0.2579552333333339
        },
        {
          "name": "G#2",
          "midi": 44,
          "time": 72.00019200000011,
          "velocity": 0.5039370078740157,
          "duration": 0.25795523333334813
        },
        {
          "name": "D#3",
          "midi": 51,
          "time": 72.27292000000013,
          "velocity": 0.5039370078740157,
          "duration": 0.2579552333333339
        },
        {
          "name": "C4",
          "midi": 60,
          "time": 72.54564800000013,
          "velocity": 0.5039370078740157,
          "duration": 0.2579552333333339
        },
        {
          "name": "D#3",
          "midi": 51,
          "time": 72.81837600000013,
          "velocity": 0.5039370078740157,
          "duration": 0.2579552333333339
        },
        {
          "name": "C4",
          "midi": 60,
          "time": 73.09110400000013,
          "velocity": 0.5039370078740157,
          "duration": 0.2579552333333339
        },
        {
          "name": "D#3",
          "midi": 51,
          "time": 73.36383200000013,
          "velocity": 0.5039370078740157,
          "duration": 0.2579552333333339
        },
        {
          "name": "C4",
          "midi": 60,
          "time": 73.63656000000013,
          "velocity": 0.5039370078740157,
          "duration": 0.2579552333333339
        },
        {
          "name": "D#3",
          "midi": 51,
          "time": 73.90928800000013,
          "velocity": 0.5039370078740157,
          "duration": 0.2579552333333339
        },
        {
          "name": "A#2",
          "midi": 46,
          "time": 74.18201600000013,
          "velocity": 0.5039370078740157,
          "duration": 0.25795523333334813
        },
        {
          "name": "F3",
          "midi": 53,
          "time": 74.45474400000015,
          "velocity": 0.5039370078740157,
          "duration": 0.2579552333333339
        },
        {
          "name": "C#4",
          "midi": 61,
          "time": 74.72747200000015,
          "velocity": 0.5039370078740157,
          "duration": 0.2579552333333339
        },
        {
          "name": "F3",
          "midi": 53,
          "time": 75.00020000000015,
          "velocity": 0.5039370078740157,
          "duration": 0.2579552333333339
        },
        {
          "name": "C#4",
          "midi": 61,
          "time": 75.27292800000015,
          "velocity": 0.5039370078740157,
          "duration": 0.2579552333333339
        },
        {
          "name": "F3",
          "midi": 53,
          "time": 75.54565600000015,
          "velocity": 0.5039370078740157,
          "duration": 0.2579552333333339
        },
        {
          "name": "C#4",
          "midi": 61,
          "time": 75.81838400000015,
          "velocity": 0.5039370078740157,
          "duration": 0.2579552333333339
        },
        {
          "name": "F3",
          "midi": 53,
          "time": 76.09111200000015,
          "velocity": 0.5039370078740157,
          "duration": 0.2579552333333339
        },
        {
          "name": "F#2",
          "midi": 42,
          "time": 76.36384000000015,
          "velocity": 0.5039370078740157,
          "duration": 0.25795523333334813
        },
        {
          "name": "C#3",
          "midi": 49,
          "time": 76.63656800000017,
          "velocity": 0.5039370078740157,
          "duration": 0.2579552333333339
        },
        {
          "name": "A#3",
          "midi": 58,
          "time": 76.90929600000017,
          "velocity": 0.5039370078740157,
          "duration": 0.2579552333333339
        },
        {
          "name": "C#3",
          "midi": 49,
          "time": 77.18202400000017,
          "velocity": 0.5039370078740157,
          "duration": 0.2579552333333339
        },
        {
          "name": "A#3",
          "midi": 58,
          "time": 77.45475200000017,
          "velocity": 0.5039370078740157,
          "duration": 0.2579552333333339
        },
        {
          "name": "C#3",
          "midi": 49,
          "time": 77.72748000000017,
          "velocity": 0.5039370078740157,
          "duration": 0.2579552333333339
        },
        {
          "name": "A#3",
          "midi": 58,
          "time": 78.00020800000017,
          "velocity": 0.5039370078740157,
          "duration": 0.2579552333333339
        },
        {
          "name": "C#3",
          "midi": 49,
          "time": 78.27293600000017,
          "velocity": 0.5039370078740157,
          "duration": 0.2579552333333339
        },
        {
          "name": "C#3",
          "midi": 49,
          "time": 78.54566400000017,
          "velocity": 0.5039370078740157,
          "duration": 0.25795523333334813
        },
        {
          "name": "G#3",
          "midi": 56,
          "time": 78.81839200000019,
          "velocity": 0.5039370078740157,
          "duration": 0.2579552333333339
        },
        {
          "name": "F4",
          "midi": 65,
          "time": 79.09112000000019,
          "velocity": 0.5039370078740157,
          "duration": 0.2579552333333339
        },
        {
          "name": "G#3",
          "midi": 56,
          "time": 79.36384800000019,
          "velocity": 0.5039370078740157,
          "duration": 0.2579552333333339
        },
        {
          "name": "F4",
          "midi": 65,
          "time": 79.63657600000019,
          "velocity": 0.5039370078740157,
          "duration": 0.2579552333333339
        },
        {
          "name": "G#3",
          "midi": 56,
          "time": 79.90930400000019,
          "velocity": 0.5039370078740157,
          "duration": 0.2579552333333339
        },
        {
          "name": "F4",
          "midi": 65,
          "time": 80.18203200000019,
          "velocity": 0.5039370078740157,
          "duration": 0.2579552333333339
        },
        {
          "name": "G#3",
          "midi": 56,
          "time": 80.45476000000019,
          "velocity": 0.5039370078740157,
          "duration": 0.2579552333333339
        },
        {
          "name": "G#2",
          "midi": 44,
          "time": 80.72748800000019,
          "velocity": 0.5039370078740157,
          "duration": 0.25795523333334813
        },
        {
          "name": "D#3",
          "midi": 51,
          "time": 81.00021600000021,
          "velocity": 0.5039370078740157,
          "duration": 0.2579552333333339
        },
        {
          "name": "C4",
          "midi": 60,
          "time": 81.27294400000021,
          "velocity": 0.5039370078740157,
          "duration": 0.2579552333333339
        },
        {
          "name": "D#3",
          "midi": 51,
          "time": 81.54567200000021,
          "velocity": 0.5039370078740157,
          "duration": 0.2579552333333339
        },
        {
          "name": "C4",
          "midi": 60,
          "time": 81.81840000000021,
          "velocity": 0.5039370078740157,
          "duration": 0.2579552333333339
        },
        {
          "name": "D#3",
          "midi": 51,
          "time": 82.09112800000021,
          "velocity": 0.5039370078740157,
          "duration": 0.2579552333333339
        },
        {
          "name": "C4",
          "midi": 60,
          "time": 82.36385600000021,
          "velocity": 0.5039370078740157,
          "duration": 0.2579552333333339
        },
        {
          "name": "D#3",
          "midi": 51,
          "time": 82.63658400000021,
          "velocity": 0.5039370078740157,
          "duration": 0.2579552333333339
        },
        {
          "name": "A#2",
          "midi": 46,
          "time": 82.90931200000021,
          "velocity": 0.5039370078740157,
          "duration": 0.25795523333334813
        },
        {
          "name": "F3",
          "midi": 53,
          "time": 83.18204000000023,
          "velocity": 0.5039370078740157,
          "duration": 0.2579552333333339
        },
        {
          "name": "C#4",
          "midi": 61,
          "time": 83.45476800000023,
          "velocity": 0.5039370078740157,
          "duration": 0.2579552333333339
        },
        {
          "name": "F3",
          "midi": 53,
          "time": 83.72749600000023,
          "velocity": 0.5039370078740157,
          "duration": 0.2579552333333339
        },
        {
          "name": "C#4",
          "midi": 61,
          "time": 84.00022400000023,
          "velocity": 0.5039370078740157,
          "duration": 0.2579552333333339
        },
        {
          "name": "F3",
          "midi": 53,
          "time": 84.27295200000023,
          "velocity": 0.5039370078740157,
          "duration": 0.2579552333333339
        },
        {
          "name": "C#4",
          "midi": 61,
          "time": 84.54568000000023,
          "velocity": 0.5039370078740157,
          "duration": 0.2579552333333339
        },
        {
          "name": "F3",
          "midi": 53,
          "time": 84.81840800000023,
          "velocity": 0.5039370078740157,
          "duration": 0.2579552333333339
        },
        {
          "name": "F#2",
          "midi": 42,
          "time": 85.09113600000023,
          "velocity": 0.5039370078740157,
          "duration": 0.25795523333334813
        },
        {
          "name": "C#3",
          "midi": 49,
          "time": 85.36386400000025,
          "velocity": 0.5039370078740157,
          "duration": 0.2579552333333339
        },
        {
          "name": "A#3",
          "midi": 58,
          "time": 85.63659200000025,
          "velocity": 0.5039370078740157,
          "duration": 0.2579552333333339
        },
        {
          "name": "C#3",
          "midi": 49,
          "time": 85.90932000000025,
          "velocity": 0.5039370078740157,
          "duration": 0.2579552333333339
        },
        {
          "name": "A#3",
          "midi": 58,
          "time": 86.18204800000025,
          "velocity": 0.5039370078740157,
          "duration": 0.2579552333333339
        },
        {
          "name": "C#3",
          "midi": 49,
          "time": 86.45477600000025,
          "velocity": 0.5039370078740157,
          "duration": 0.2579552333333339
        },
        {
          "name": "A#3",
          "midi": 58,
          "time": 86.72750400000025,
          "velocity": 0.5039370078740157,
          "duration": 0.2579552333333339
        },
        {
          "name": "C#3",
          "midi": 49,
          "time": 87.00023200000025,
          "velocity": 0.5039370078740157,
          "duration": 0.2579552333333339
        },
        {
          "name": "C#3",
          "midi": 49,
          "time": 87.27296000000025,
          "velocity": 0.5039370078740157,
          "duration": 0.25795523333334813
        },
        {
          "name": "G#3",
          "midi": 56,
          "time": 87.54568800000027,
          "velocity": 0.5039370078740157,
          "duration": 0.2579552333333339
        },
        {
          "name": "F4",
          "midi": 65,
          "time": 87.81841600000027,
          "velocity": 0.5039370078740157,
          "duration": 0.2579552333333339
        },
        {
          "name": "G#3",
          "midi": 56,
          "time": 88.09114400000027,
          "velocity": 0.5039370078740157,
          "duration": 0.2579552333333339
        },
        {
          "name": "F4",
          "midi": 65,
          "time": 88.36387200000027,
          "velocity": 0.5039370078740157,
          "duration": 0.2579552333333339
        },
        {
          "name": "G#3",
          "midi": 56,
          "time": 88.63660000000027,
          "velocity": 0.5039370078740157,
          "duration": 0.2579552333333339
        },
        {
          "name": "F4",
          "midi": 65,
          "time": 88.90932800000027,
          "velocity": 0.5039370078740157,
          "duration": 0.2579552333333339
        },
        {
          "name": "G#3",
          "midi": 56,
          "time": 89.18205600000027,
          "velocity": 0.5039370078740157,
          "duration": 0.2579552333333339
        },
        {
          "name": "G#2",
          "midi": 44,
          "time": 89.45478400000027,
          "velocity": 0.5039370078740157,
          "duration": 0.25795523333334813
        },
        {
          "name": "D#3",
          "midi": 51,
          "time": 89.72751200000029,
          "velocity": 0.5039370078740157,
          "duration": 0.2579552333333339
        },
        {
          "name": "C4",
          "midi": 60,
          "time": 90.00024000000029,
          "velocity": 0.5039370078740157,
          "duration": 0.2579552333333339
        },
        {
          "name": "D#3",
          "midi": 51,
          "time": 90.27296800000029,
          "velocity": 0.5039370078740157,
          "duration": 0.2579552333333339
        },
        {
          "name": "C4",
          "midi": 60,
          "time": 90.54569600000029,
          "velocity": 0.5196850393700787,
          "duration": 0.2579552333333339
        },
        {
          "name": "D#3",
          "midi": 51,
          "time": 90.81842400000029,
          "velocity": 0.5354330708661418,
          "duration": 0.2579552333333339
        },
        {
          "name": "C4",
          "midi": 60,
          "time": 91.09115200000029,
          "velocity": 0.5511811023622047,
          "duration": 0.2579552333333339
        },
        {
          "name": "D#3",
          "midi": 51,
          "time": 91.3638800000003,
          "velocity": 0.5669291338582677,
          "duration": 0.2579552333333339
        },
        {
          "name": "A#2",
          "midi": 46,
          "time": 91.6366080000003,
          "velocity": 0.5826771653543307,
          "duration": 0.25795523333334813
        },
        {
          "name": "F3",
          "midi": 53,
          "time": 91.90933600000031,
          "velocity": 0.5984251968503937,
          "duration": 0.2579552333333339
        },
        {
          "name": "C#4",
          "midi": 61,
          "time": 92.18206400000031,
          "velocity": 0.6141732283464567,
          "duration": 0.2579552333333339
        },
        {
          "name": "F3",
          "midi": 53,
          "time": 92.45479200000031,
          "velocity": 0.6377952755905512,
          "duration": 0.2579552333333339
        },
        {
          "name": "C#4",
          "midi": 61,
          "time": 92.72752000000031,
          "velocity": 0.6535433070866141,
          "duration": 0.2579552333333339
        },
        {
          "name": "F3",
          "midi": 53,
          "time": 93.00024800000031,
          "velocity": 0.6692913385826772,
          "duration": 0.2579552333333339
        },
        {
          "name": "C#4",
          "midi": 61,
          "time": 93.27297600000031,
          "velocity": 0.6850393700787402,
          "duration": 0.2579552333333339
        },
        {
          "name": "F3",
          "midi": 53,
          "time": 93.54570400000031,
          "velocity": 0.7007874015748031,
          "duration": 0.2579552333333339
        },
        {
          "name": "F#2",
          "midi": 42,
          "time": 93.81843200000031,
          "velocity": 0.7165354330708661,
          "duration": 0.25795523333334813
        },
        {
          "name": "C#3",
          "midi": 49,
          "time": 94.09116000000033,
          "velocity": 0.7322834645669292,
          "duration": 0.2579552333333339
        },
        {
          "name": "A#3",
          "midi": 58,
          "time": 94.36388800000033,
          "velocity": 0.7559055118110236,
          "duration": 0.2579552333333339
        },
        {
          "name": "C#3",
          "midi": 49,
          "time": 94.63661600000033,
          "velocity": 0.7559055118110236,
          "duration": 0.2579552333333339
        },
        {
          "name": "A#3",
          "midi": 58,
          "time": 94.90934400000033,
          "velocity": 0.7559055118110236,
          "duration": 0.2579552333333339
        },
        {
          "name": "C#3",
          "midi": 49,
          "time": 95.18207200000033,
          "velocity": 0.7559055118110236,
          "duration": 0.2579552333333339
        },
        {
          "name": "A#3",
          "midi": 58,
          "time": 95.45480000000033,
          "velocity": 0.7559055118110236,
          "duration": 0.2579552333333339
        },
        {
          "name": "C#3",
          "midi": 49,
          "time": 95.72752800000033,
          "velocity": 0.7559055118110236,
          "duration": 0.2579552333333339
        },
        {
          "name": "C#2",
          "midi": 37,
          "time": 96.00025600000033,
          "velocity": 0.7559055118110236,
          "duration": 0.25795523333334813
        },
        {
          "name": "C#3",
          "midi": 49,
          "time": 96.00025600000033,
          "velocity": 0.7559055118110236,
          "duration": 0.25795523333334813
        },
        {
          "name": "G#3",
          "midi": 56,
          "time": 96.27298400000035,
          "velocity": 0.7559055118110236,
          "duration": 0.2579552333333339
        },
        {
          "name": "C#4",
          "midi": 61,
          "time": 96.54571200000035,
          "velocity": 0.7559055118110236,
          "duration": 0.2579552333333339
        },
        {
          "name": "F4",
          "midi": 65,
          "time": 96.54571200000035,
          "velocity": 0.7559055118110236,
          "duration": 0.2579552333333339
        },
        {
          "name": "G#3",
          "midi": 56,
          "time": 96.81844000000035,
          "velocity": 0.7559055118110236,
          "duration": 0.2579552333333339
        },
        {
          "name": "F4",
          "midi": 65,
          "time": 97.09116800000035,
          "velocity": 0.7559055118110236,
          "duration": 0.2579552333333339
        },
        {
          "name": "G#3",
          "midi": 56,
          "time": 97.36389600000035,
          "velocity": 0.7559055118110236,
          "duration": 0.2579552333333339
        },
        {
          "name": "C#4",
          "midi": 61,
          "time": 97.63662400000035,
          "velocity": 0.7559055118110236,
          "duration": 0.2579552333333339
        },
        {
          "name": "F4",
          "midi": 65,
          "time": 97.63662400000035,
          "velocity": 0.7559055118110236,
          "duration": 0.2579552333333339
        },
        {
          "name": "G#3",
          "midi": 56,
          "time": 97.90935200000035,
          "velocity": 0.7559055118110236,
          "duration": 0.2579552333333339
        },
        {
          "name": "G#1",
          "midi": 32,
          "time": 98.18208000000035,
          "velocity": 0.7559055118110236,
          "duration": 0.25795523333334813
        },
        {
          "name": "G#2",
          "midi": 44,
          "time": 98.18208000000035,
          "velocity": 0.7559055118110236,
          "duration": 0.25795523333334813
        },
        {
          "name": "D#3",
          "midi": 51,
          "time": 98.45480800000037,
          "velocity": 0.7559055118110236,
          "duration": 0.2579552333333339
        },
        {
          "name": "G#3",
          "midi": 56,
          "time": 98.72753600000037,
          "velocity": 0.7559055118110236,
          "duration": 0.2579552333333339
        },
        {
          "name": "C4",
          "midi": 60,
          "time": 98.72753600000037,
          "velocity": 0.7559055118110236,
          "duration": 0.2579552333333339
        },
        {
          "name": "D#3",
          "midi": 51,
          "time": 99.00026400000037,
          "velocity": 0.7559055118110236,
          "duration": 0.2579552333333339
        },
        {
          "name": "C4",
          "midi": 60,
          "time": 99.27299200000037,
          "velocity": 0.7559055118110236,
          "duration": 0.2579552333333339
        },
        {
          "name": "D#3",
          "midi": 51,
          "time": 99.54572000000037,
          "velocity": 0.7559055118110236,
          "duration": 0.2579552333333339
        },
        {
          "name": "G#3",
          "midi": 56,
          "time": 99.81844800000037,
          "velocity": 0.7559055118110236,
          "duration": 0.2579552333333339
        },
        {
          "name": "C4",
          "midi": 60,
          "time": 99.81844800000037,
          "velocity": 0.7559055118110236,
          "duration": 0.2579552333333339
        },
        {
          "name": "D#3",
          "midi": 51,
          "time": 100.09117600000037,
          "velocity": 0.7559055118110236,
          "duration": 0.2579552333333339
        },
        {
          "name": "A#1",
          "midi": 34,
          "time": 100.36390400000037,
          "velocity": 0.7559055118110236,
          "duration": 0.25795523333334813
        },
        {
          "name": "A#2",
          "midi": 46,
          "time": 100.36390400000037,
          "velocity": 0.7559055118110236,
          "duration": 0.25795523333334813
        },
        {
          "name": "F3",
          "midi": 53,
          "time": 100.63663200000039,
          "velocity": 0.7559055118110236,
          "duration": 0.2579552333333339
        },
        {
          "name": "A#3",
          "midi": 58,
          "time": 100.90936000000039,
          "velocity": 0.7559055118110236,
          "duration": 0.2579552333333339
        },
        {
          "name": "C#4",
          "midi": 61,
          "time": 100.90936000000039,
          "velocity": 0.7559055118110236,
          "duration": 0.2579552333333339
        },
        {
          "name": "F3",
          "midi": 53,
          "time": 101.18208800000039,
          "velocity": 0.7559055118110236,
          "duration": 0.2579552333333339
        },
        {
          "name": "C#4",
          "midi": 61,
          "time": 101.45481600000039,
          "velocity": 0.7559055118110236,
          "duration": 0.2579552333333339
        },
        {
          "name": "F3",
          "midi": 53,
          "time": 101.72754400000039,
          "velocity": 0.7559055118110236,
          "duration": 0.2579552333333339
        },
        {
          "name": "A#3",
          "midi": 58,
          "time": 102.0002720000004,
          "velocity": 0.7559055118110236,
          "duration": 0.2579552333333339
        },
        {
          "name": "C#4",
          "midi": 61,
          "time": 102.0002720000004,
          "velocity": 0.7559055118110236,
          "duration": 0.2579552333333339
        },
        {
          "name": "F3",
          "midi": 53,
          "time": 102.2730000000004,
          "velocity": 0.7559055118110236,
          "duration": 0.2579552333333339
        },
        {
          "name": "F#1",
          "midi": 30,
          "time": 102.5457280000004,
          "velocity": 0.7559055118110236,
          "duration": 0.25795523333334813
        },
        {
          "name": "F#2",
          "midi": 42,
          "time": 102.5457280000004,
          "velocity": 0.7559055118110236,
          "duration": 0.25795523333334813
        },
        {
          "name": "C#3",
          "midi": 49,
          "time": 102.81845600000041,
          "velocity": 0.7559055118110236,
          "duration": 0.2579552333333339
        },
        {
          "name": "F#3",
          "midi": 54,
          "time": 103.09118400000041,
          "velocity": 0.7559055118110236,
          "duration": 0.2579552333333339
        },
        {
          "name": "A#3",
          "midi": 58,
          "time": 103.09118400000041,
          "velocity": 0.7559055118110236,
          "duration": 0.2579552333333339
        },
        {
          "name": "C#3",
          "midi": 49,
          "time": 103.36391200000041,
          "velocity": 0.7559055118110236,
          "duration": 0.2579552333333339
        },
        {
          "name": "A#3",
          "midi": 58,
          "time": 103.63664000000041,
          "velocity": 0.7559055118110236,
          "duration": 0.2579552333333339
        },
        {
          "name": "C#3",
          "midi": 49,
          "time": 103.90936800000041,
          "velocity": 0.7559055118110236,
          "duration": 0.2579552333333339
        },
        {
          "name": "F#3",
          "midi": 54,
          "time": 104.18209600000041,
          "velocity": 0.7559055118110236,
          "duration": 0.2579552333333339
        },
        {
          "name": "A#3",
          "midi": 58,
          "time": 104.18209600000041,
          "velocity": 0.7559055118110236,
          "duration": 0.2579552333333339
        },
        {
          "name": "C#3",
          "midi": 49,
          "time": 104.45482400000041,
          "velocity": 0.7559055118110236,
          "duration": 0.2579552333333339
        },
        {
          "name": "C#2",
          "midi": 37,
          "time": 104.72755200000041,
          "velocity": 0.7559055118110236,
          "duration": 0.25795523333334813
        },
        {
          "name": "C#3",
          "midi": 49,
          "time": 104.72755200000041,
          "velocity": 0.7559055118110236,
          "duration": 0.25795523333334813
        },
        {
          "name": "G#3",
          "midi": 56,
          "time": 105.00028000000043,
          "velocity": 0.7559055118110236,
          "duration": 0.2579552333333339
        },
        {
          "name": "C#4",
          "midi": 61,
          "time": 105.27300800000043,
          "velocity": 0.7559055118110236,
          "duration": 0.2579552333333339
        },
        {
          "name": "F4",
          "midi": 65,
          "time": 105.27300800000043,
          "velocity": 0.7559055118110236,
          "duration": 0.2579552333333339
        },
        {
          "name": "G#3",
          "midi": 56,
          "time": 105.54573600000043,
          "velocity": 0.7559055118110236,
          "duration": 0.2579552333333339
        },
        {
          "name": "F4",
          "midi": 65,
          "time": 105.81846400000043,
          "velocity": 0.7559055118110236,
          "duration": 0.2579552333333339
        },
        {
          "name": "G#3",
          "midi": 56,
          "time": 106.09119200000043,
          "velocity": 0.7559055118110236,
          "duration": 0.2579552333333339
        },
        {
          "name": "C#4",
          "midi": 61,
          "time": 106.36392000000043,
          "velocity": 0.7559055118110236,
          "duration": 0.2579552333333339
        },
        {
          "name": "F4",
          "midi": 65,
          "time": 106.36392000000043,
          "velocity": 0.7559055118110236,
          "duration": 0.2579552333333339
        },
        {
          "name": "G#3",
          "midi": 56,
          "time": 106.63664800000043,
          "velocity": 0.7559055118110236,
          "duration": 0.2579552333333339
        },
        {
          "name": "G#1",
          "midi": 32,
          "time": 106.90937600000044,
          "velocity": 0.7559055118110236,
          "duration": 0.25795523333334813
        },
        {
          "name": "G#2",
          "midi": 44,
          "time": 106.90937600000044,
          "velocity": 0.7559055118110236,
          "duration": 0.25795523333334813
        },
        {
          "name": "D#3",
          "midi": 51,
          "time": 107.18210400000045,
          "velocity": 0.7559055118110236,
          "duration": 0.2579552333333339
        },
        {
          "name": "G#3",
          "midi": 56,
          "time": 107.45483200000045,
          "velocity": 0.7559055118110236,
          "duration": 0.2579552333333339
        },
        {
          "name": "C4",
          "midi": 60,
          "time": 107.45483200000045,
          "velocity": 0.7559055118110236,
          "duration": 0.2579552333333339
        },
        {
          "name": "D#3",
          "midi": 51,
          "time": 107.72756000000045,
          "velocity": 0.7559055118110236,
          "duration": 0.2579552333333339
        },
        {
          "name": "C4",
          "midi": 60,
          "time": 108.00028800000045,
          "velocity": 0.7559055118110236,
          "duration": 0.2579552333333339
        },
        {
          "name": "D#3",
          "midi": 51,
          "time": 108.27301600000045,
          "velocity": 0.7559055118110236,
          "duration": 0.2579552333333339
        },
        {
          "name": "G#3",
          "midi": 56,
          "time": 108.54574400000045,
          "velocity": 0.7559055118110236,
          "duration": 0.2579552333333339
        },
        {
          "name": "C4",
          "midi": 60,
          "time": 108.54574400000045,
          "velocity": 0.7559055118110236,
          "duration": 0.2579552333333339
        },
        {
          "name": "D#3",
          "midi": 51,
          "time": 108.81847200000045,
          "velocity": 0.7559055118110236,
          "duration": 0.2579552333333339
        },
        {
          "name": "A#1",
          "midi": 34,
          "time": 109.09120000000046,
          "velocity": 0.7559055118110236,
          "duration": 0.25795523333334813
        },
        {
          "name": "A#2",
          "midi": 46,
          "time": 109.09120000000046,
          "velocity": 0.7559055118110236,
          "duration": 0.25795523333334813
        },
        {
          "name": "F3",
          "midi": 53,
          "time": 109.36392800000047,
          "velocity": 0.7559055118110236,
          "duration": 0.2579552333333339
        },
        {
          "name": "A#3",
          "midi": 58,
          "time": 109.63665600000047,
          "velocity": 0.7559055118110236,
          "duration": 0.2579552333333339
        },
        {
          "name": "C#4",
          "midi": 61,
          "time": 109.63665600000047,
          "velocity": 0.7559055118110236,
          "duration": 0.2579552333333339
        },
        {
          "name": "F3",
          "midi": 53,
          "time": 109.90938400000047,
          "velocity": 0.7559055118110236,
          "duration": 0.2579552333333339
        },
        {
          "name": "C#4",
          "midi": 61,
          "time": 110.18211200000047,
          "velocity": 0.7559055118110236,
          "duration": 0.2579552333333339
        },
        {
          "name": "F3",
          "midi": 53,
          "time": 110.45484000000047,
          "velocity": 0.7559055118110236,
          "duration": 0.2579552333333339
        },
        {
          "name": "A#3",
          "midi": 58,
          "time": 110.72756800000047,
          "velocity": 0.7559055118110236,
          "duration": 0.2579552333333339
        },
        {
          "name": "C#4",
          "midi": 61,
          "time": 110.72756800000047,
          "velocity": 0.7559055118110236,
          "duration": 0.2579552333333339
        },
        {
          "name": "F3",
          "midi": 53,
          "time": 111.00029600000047,
          "velocity": 0.7559055118110236,
          "duration": 0.2579552333333339
        },
        {
          "name": "F#1",
          "midi": 30,
          "time": 111.27302400000048,
          "velocity": 0.7559055118110236,
          "duration": 0.25795523333334813
        },
        {
          "name": "F#2",
          "midi": 42,
          "time": 111.27302400000048,
          "velocity": 0.7559055118110236,
          "duration": 0.25795523333334813
        },
        {
          "name": "C#3",
          "midi": 49,
          "time": 111.54575200000049,
          "velocity": 0.7559055118110236,
          "duration": 0.2579552333333339
        },
        {
          "name": "F#3",
          "midi": 54,
          "time": 111.81848000000049,
          "velocity": 0.7559055118110236,
          "duration": 0.2579552333333339
        },
        {
          "name": "A#3",
          "midi": 58,
          "time": 111.81848000000049,
          "velocity": 0.7559055118110236,
          "duration": 0.2579552333333339
        },
        {
          "name": "C#3",
          "midi": 49,
          "time": 112.09120800000049,
          "velocity": 0.7559055118110236,
          "duration": 0.2579552333333339
        },
        {
          "name": "A#3",
          "midi": 58,
          "time": 112.36393600000049,
          "velocity": 0.7559055118110236,
          "duration": 0.2579552333333339
        },
        {
          "name": "C#3",
          "midi": 49,
          "time": 112.6366640000005,
          "velocity": 0.7559055118110236,
          "duration": 0.2579552333333339
        },
        {
          "name": "F#3",
          "midi": 54,
          "time": 112.9093920000005,
          "velocity": 0.7559055118110236,
          "duration": 0.2579552333333339
        },
        {
          "name": "A#3",
          "midi": 58,
          "time": 112.9093920000005,
          "velocity": 0.7559055118110236,
          "duration": 0.2579552333333339
        },
        {
          "name": "C#3",
          "midi": 49,
          "time": 113.1821200000005,
          "velocity": 0.7559055118110236,
          "duration": 0.2579552333333339
        },
        {
          "name": "D#2",
          "midi": 39,
          "time": 113.4548480000005,
          "velocity": 0.7559055118110236,
          "duration": 0.25795523333334813
        },
        {
          "name": "D#3",
          "midi": 51,
          "time": 113.4548480000005,
          "velocity": 0.7559055118110236,
          "duration": 0.25795523333334813
        },
        {
          "name": "A#3",
          "midi": 58,
          "time": 113.72757600000051,
          "velocity": 0.7559055118110236,
          "duration": 0.2579552333333339
        },
        {
          "name": "D#4",
          "midi": 63,
          "time": 114.00030400000051,
          "velocity": 0.7559055118110236,
          "duration": 0.2579552333333339
        },
        {
          "name": "F#4",
          "midi": 66,
          "time": 114.00030400000051,
          "velocity": 0.7559055118110236,
          "duration": 0.2579552333333339
        },
        {
          "name": "A#3",
          "midi": 58,
          "time": 114.27303200000051,
          "velocity": 0.7559055118110236,
          "duration": 0.2579552333333339
        },
        {
          "name": "F#4",
          "midi": 66,
          "time": 114.54576000000051,
          "velocity": 0.7559055118110236,
          "duration": 0.2579552333333339
        },
        {
          "name": "A#3",
          "midi": 58,
          "time": 114.81848800000051,
          "velocity": 0.7559055118110236,
          "duration": 0.2579552333333339
        },
        {
          "name": "D#4",
          "midi": 63,
          "time": 115.09121600000051,
          "velocity": 0.7559055118110236,
          "duration": 0.2579552333333339
        },
        {
          "name": "F#4",
          "midi": 66,
          "time": 115.09121600000051,
          "velocity": 0.7559055118110236,
          "duration": 0.2579552333333339
        },
        {
          "name": "A#3",
          "midi": 58,
          "time": 115.36394400000052,
          "velocity": 0.7559055118110236,
          "duration": 0.2579552333333339
        },
        {
          "name": "A#1",
          "midi": 34,
          "time": 115.63667200000052,
          "velocity": 0.7559055118110236,
          "duration": 0.25795523333334813
        },
        {
          "name": "A#2",
          "midi": 46,
          "time": 115.63667200000052,
          "velocity": 0.7559055118110236,
          "duration": 0.25795523333334813
        },
        {
          "name": "F3",
          "midi": 53,
          "time": 115.90940000000053,
          "velocity": 0.7559055118110236,
          "duration": 0.2579552333333339
        },
        {
          "name": "A#3",
          "midi": 58,
          "time": 116.18212800000053,
          "velocity": 0.7559055118110236,
          "duration": 0.2579552333333339
        },
        {
          "name": "C#4",
          "midi": 61,
          "time": 116.18212800000053,
          "velocity": 0.7559055118110236,
          "duration": 0.2579552333333339
        },
        {
          "name": "F3",
          "midi": 53,
          "time": 116.45485600000053,
          "velocity": 0.7559055118110236,
          "duration": 0.2579552333333339
        },
        {
          "name": "C#4",
          "midi": 61,
          "time": 116.72758400000053,
          "velocity": 0.7559055118110236,
          "duration": 0.2579552333333339
        },
        {
          "name": "F3",
          "midi": 53,
          "time": 117.00031200000053,
          "velocity": 0.7559055118110236,
          "duration": 0.2579552333333339
        },
        {
          "name": "A#3",
          "midi": 58,
          "time": 117.27304000000053,
          "velocity": 0.7559055118110236,
          "duration": 0.2579552333333339
        },
        {
          "name": "C#4",
          "midi": 61,
          "time": 117.27304000000053,
          "velocity": 0.7559055118110236,
          "duration": 0.2579552333333339
        },
        {
          "name": "F3",
          "midi": 53,
          "time": 117.54576800000054,
          "velocity": 0.7559055118110236,
          "duration": 0.2579552333333339
        },
        {
          "name": "G#1",
          "midi": 32,
          "time": 117.81849600000054,
          "velocity": 0.7559055118110236,
          "duration": 0.25795523333334813
        },
        {
          "name": "G#2",
          "midi": 44,
          "time": 117.81849600000054,
          "velocity": 0.7559055118110236,
          "duration": 0.25795523333334813
        },
        {
          "name": "D#3",
          "midi": 51,
          "time": 118.09122400000055,
          "velocity": 0.7559055118110236,
          "duration": 0.2579552333333339
        },
        {
          "name": "G#3",
          "midi": 56,
          "time": 118.36395200000055,
          "velocity": 0.7559055118110236,
          "duration": 0.2579552333333339
        },
        {
          "name": "C4",
          "midi": 60,
          "time": 118.36395200000055,
          "velocity": 0.7559055118110236,
          "duration": 0.2579552333333339
        },
        {
          "name": "D#3",
          "midi": 51,
          "time": 118.63668000000055,
          "velocity": 0.7559055118110236,
          "duration": 0.2579552333333339
        },
        {
          "name": "C4",
          "midi": 60,
          "time": 118.90940800000055,
          "velocity": 0.7559055118110236,
          "duration": 0.2579552333333339
        },
        {
          "name": "D#3",
          "midi": 51,
          "time": 119.18213600000055,
          "velocity": 0.7559055118110236,
          "duration": 0.2579552333333339
        },
        {
          "name": "G#3",
          "midi": 56,
          "time": 119.45486400000055,
          "velocity": 0.7559055118110236,
          "duration": 0.2579552333333339
        },
        {
          "name": "C4",
          "midi": 60,
          "time": 119.45486400000055,
          "velocity": 0.7559055118110236,
          "duration": 0.2579552333333339
        },
        {
          "name": "D#3",
          "midi": 51,
          "time": 119.72759200000056,
          "velocity": 0.7559055118110236,
          "duration": 0.2579552333333339
        },
        {
          "name": "G#1",
          "midi": 32,
          "time": 120.00032000000056,
          "velocity": 0.7559055118110236,
          "duration": 0.25795523333334813
        },
        {
          "name": "G#2",
          "midi": 44,
          "time": 120.00032000000056,
          "velocity": 0.7559055118110236,
          "duration": 0.25795523333334813
        },
        {
          "name": "D#3",
          "midi": 51,
          "time": 120.27304800000057,
          "velocity": 0.7559055118110236,
          "duration": 0.2579552333333339
        },
        {
          "name": "G#3",
          "midi": 56,
          "time": 120.54577600000057,
          "velocity": 0.7559055118110236,
          "duration": 0.2579552333333339
        },
        {
          "name": "C4",
          "midi": 60,
          "time": 120.54577600000057,
          "velocity": 0.7559055118110236,
          "duration": 0.2579552333333339
        },
        {
          "name": "D#3",
          "midi": 51,
          "time": 120.81850400000057,
          "velocity": 0.7559055118110236,
          "duration": 0.2579552333333339
        },
        {
          "name": "A#1",
          "midi": 34,
          "time": 121.09123200000057,
          "velocity": 0.7559055118110236,
          "duration": 0.2579552333333339
        },
        {
          "name": "A#2",
          "midi": 46,
          "time": 121.09123200000057,
          "velocity": 0.7559055118110236,
          "duration": 0.2579552333333339
        },
        {
          "name": "F3",
          "midi": 53,
          "time": 121.36396000000057,
          "velocity": 0.7559055118110236,
          "duration": 0.2579552333333339
        },
        {
          "name": "A#3",
          "midi": 58,
          "time": 121.63668800000058,
          "velocity": 0.7559055118110236,
          "duration": 0.2579552333333339
        },
        {
          "name": "C#4",
          "midi": 61,
          "time": 121.63668800000058,
          "velocity": 0.7559055118110236,
          "duration": 0.2579552333333339
        },
        {
          "name": "F3",
          "midi": 53,
          "time": 121.90941600000058,
          "velocity": 0.7559055118110236,
          "duration": 0.2579552333333339
        },
        {
          "name": "D#2",
          "midi": 39,
          "time": 122.18214400000058,
          "velocity": 0.7559055118110236,
          "duration": 0.25795523333334813
        },
        {
          "name": "D#3",
          "midi": 51,
          "time": 122.18214400000058,
          "velocity": 0.7559055118110236,
          "duration": 0.25795523333334813
        },
        {
          "name": "A#3",
          "midi": 58,
          "time": 122.45487200000059,
          "velocity": 0.7559055118110236,
          "duration": 0.2579552333333339
        },
        {
          "name": "D#4",
          "midi": 63,
          "time": 122.72760000000059,
          "velocity": 0.7559055118110236,
          "duration": 0.2579552333333339
        },
        {
          "name": "F#4",
          "midi": 66,
          "time": 122.72760000000059,
          "velocity": 0.7559055118110236,
          "duration": 0.2579552333333339
        },
        {
          "name": "A#3",
          "midi": 58,
          "time": 123.0003280000006,
          "velocity": 0.7559055118110236,
          "duration": 0.2579552333333339
        },
        {
          "name": "F#4",
          "midi": 66,
          "time": 123.2730560000006,
          "velocity": 0.7559055118110236,
          "duration": 0.2579552333333339
        },
        {
          "name": "A#3",
          "midi": 58,
          "time": 123.5457840000006,
          "velocity": 0.7559055118110236,
          "duration": 0.2579552333333339
        },
        {
          "name": "D#4",
          "midi": 63,
          "time": 123.8185120000006,
          "velocity": 0.7559055118110236,
          "duration": 0.2579552333333339
        },
        {
          "name": "F#4",
          "midi": 66,
          "time": 123.8185120000006,
          "velocity": 0.7559055118110236,
          "duration": 0.2579552333333339
        },
        {
          "name": "A#3",
          "midi": 58,
          "time": 124.0912400000006,
          "velocity": 0.7559055118110236,
          "duration": 0.2579552333333339
        },
        {
          "name": "A#1",
          "midi": 34,
          "time": 124.3639680000006,
          "velocity": 0.7559055118110236,
          "duration": 0.25795523333334813
        },
        {
          "name": "A#2",
          "midi": 46,
          "time": 124.3639680000006,
          "velocity": 0.7559055118110236,
          "duration": 0.25795523333334813
        },
        {
          "name": "F3",
          "midi": 53,
          "time": 124.63669600000061,
          "velocity": 0.7559055118110236,
          "duration": 0.2579552333333339
        },
        {
          "name": "A#3",
          "midi": 58,
          "time": 124.90942400000061,
          "velocity": 0.7559055118110236,
          "duration": 0.2579552333333339
        },
        {
          "name": "C#4",
          "midi": 61,
          "time": 124.90942400000061,
          "velocity": 0.7559055118110236,
          "duration": 0.2579552333333339
        },
        {
          "name": "F3",
          "midi": 53,
          "time": 125.18215200000061,
          "velocity": 0.7559055118110236,
          "duration": 0.2579552333333339
        },
        {
          "name": "C#4",
          "midi": 61,
          "time": 125.45488000000061,
          "velocity": 0.7559055118110236,
          "duration": 0.2579552333333339
        },
        {
          "name": "F3",
          "midi": 53,
          "time": 125.72760800000061,
          "velocity": 0.7559055118110236,
          "duration": 0.2579552333333339
        },
        {
          "name": "A#3",
          "midi": 58,
          "time": 126.00033600000062,
          "velocity": 0.7559055118110236,
          "duration": 0.2579552333333339
        },
        {
          "name": "C#4",
          "midi": 61,
          "time": 126.00033600000062,
          "velocity": 0.7559055118110236,
          "duration": 0.2579552333333339
        },
        {
          "name": "F3",
          "midi": 53,
          "time": 126.27306400000062,
          "velocity": 0.7559055118110236,
          "duration": 0.2579552333333339
        },
        {
          "name": "G#1",
          "midi": 32,
          "time": 126.54579200000062,
          "velocity": 0.7559055118110236,
          "duration": 0.25795523333334813
        },
        {
          "name": "G#2",
          "midi": 44,
          "time": 126.54579200000062,
          "velocity": 0.7559055118110236,
          "duration": 0.25795523333334813
        },
        {
          "name": "D#3",
          "midi": 51,
          "time": 126.81852000000063,
          "velocity": 0.7559055118110236,
          "duration": 0.2579552333333339
        },
        {
          "name": "G#3",
          "midi": 56,
          "time": 127.09124800000063,
          "velocity": 0.7559055118110236,
          "duration": 0.2579552333333339
        },
        {
          "name": "C4",
          "midi": 60,
          "time": 127.09124800000063,
          "velocity": 0.7559055118110236,
          "duration": 0.2579552333333339
        },
        {
          "name": "D#3",
          "midi": 51,
          "time": 127.36397600000063,
          "velocity": 0.7559055118110236,
          "duration": 0.2579552333333339
        },
        {
          "name": "C4",
          "midi": 60,
          "time": 127.63670400000063,
          "velocity": 0.7559055118110236,
          "duration": 0.2579552333333339
        },
        {
          "name": "D#3",
          "midi": 51,
          "time": 127.90943200000063,
          "velocity": 0.7559055118110236,
          "duration": 0.2579552333333197
        },
        {
          "name": "G#3",
          "midi": 56,
          "time": 128.1821600000006,
          "velocity": 0.7559055118110236,
          "duration": 0.2579552333333197
        },
        {
          "name": "C4",
          "midi": 60,
          "time": 128.1821600000006,
          "velocity": 0.7559055118110236,
          "duration": 0.2579552333333197
        },
        {
          "name": "D#3",
          "midi": 51,
          "time": 128.45488800000058,
          "velocity": 0.7559055118110236,
          "duration": 0.2579552333333197
        },
        {
          "name": "G#2",
          "midi": 44,
          "time": 128.72761600000055,
          "velocity": 0.5039370078740157,
          "duration": 2.071596433333326
        },
        {
          "name": "C#4",
          "midi": 61,
          "time": 130.90944000000056,
          "velocity": 0.5039370078740157,
          "duration": 2.071596433333326
        },
        {
          "name": "F4",
          "midi": 65,
          "time": 130.90944000000056,
          "velocity": 0.5039370078740157,
          "duration": 2.071596433333326
        },
        {
          "name": "G#4",
          "midi": 68,
          "time": 130.90944000000056,
          "velocity": 0.5039370078740157,
          "duration": 2.071596433333326
        },
        {
          "name": "C4",
          "midi": 60,
          "time": 133.09126400000056,
          "velocity": 0.5039370078740157,
          "duration": 2.071596433333326
        },
        {
          "name": "D#4",
          "midi": 63,
          "time": 133.09126400000056,
          "velocity": 0.5039370078740157,
          "duration": 2.071596433333326
        },
        {
          "name": "G#4",
          "midi": 68,
          "time": 133.09126400000056,
          "velocity": 0.5039370078740157,
          "duration": 2.071596433333326
        },
        {
          "name": "A#3",
          "midi": 58,
          "time": 135.27308800000057,
          "velocity": 0.5039370078740157,
          "duration": 2.071596433333326
        },
        {
          "name": "C#4",
          "midi": 61,
          "time": 135.27308800000057,
          "velocity": 0.5039370078740157,
          "duration": 2.071596433333326
        },
        {
          "name": "F4",
          "midi": 65,
          "time": 135.27308800000057,
          "velocity": 0.5039370078740157,
          "duration": 2.071596433333326
        },
        {
          "name": "F#3",
          "midi": 54,
          "time": 137.45491200000058,
          "velocity": 0.5039370078740157,
          "duration": 2.071596433333326
        },
        {
          "name": "A#3",
          "midi": 58,
          "time": 137.45491200000058,
          "velocity": 0.5039370078740157,
          "duration": 2.071596433333326
        },
        {
          "name": "C#4",
          "midi": 61,
          "time": 137.45491200000058,
          "velocity": 0.5039370078740157,
          "duration": 2.071596433333326
        },
        {
          "name": "C#4",
          "midi": 61,
          "time": 139.63673600000058,
          "velocity": 0.5039370078740157,
          "duration": 2.071596433333326
        },
        {
          "name": "F4",
          "midi": 65,
          "time": 139.63673600000058,
          "velocity": 0.5039370078740157,
          "duration": 2.071596433333326
        },
        {
          "name": "G#4",
          "midi": 68,
          "time": 139.63673600000058,
          "velocity": 0.5039370078740157,
          "duration": 2.071596433333326
        },
        {
          "name": "G#3",
          "midi": 56,
          "time": 141.8185600000006,
          "velocity": 0.5039370078740157,
          "duration": 2.071596433333326
        },
        {
          "name": "C4",
          "midi": 60,
          "time": 141.8185600000006,
          "velocity": 0.5039370078740157,
          "duration": 2.071596433333326
        },
        {
          "name": "D#4",
          "midi": 63,
          "time": 141.8185600000006,
          "velocity": 0.5039370078740157,
          "duration": 2.071596433333326
        },
        {
          "name": "A#2",
          "midi": 46,
          "time": 144.0003840000006,
          "velocity": 0.5039370078740157,
          "duration": 0.2579552333333197
        },
        {
          "name": "F3",
          "midi": 53,
          "time": 144.27311200000057,
          "velocity": 0.5039370078740157,
          "duration": 0.2579552333333197
        },
        {
          "name": "C#4",
          "midi": 61,
          "time": 144.54584000000054,
          "velocity": 0.5039370078740157,
          "duration": 0.2579552333333197
        },
        {
          "name": "F3",
          "midi": 53,
          "time": 144.8185680000005,
          "velocity": 0.5039370078740157,
          "duration": 0.2579552333333197
        },
        {
          "name": "C#4",
          "midi": 61,
          "time": 145.09129600000048,
          "velocity": 0.5039370078740157,
          "duration": 0.2579552333333197
        },
        {
          "name": "F3",
          "midi": 53,
          "time": 145.36402400000046,
          "velocity": 0.5039370078740157,
          "duration": 0.2579552333333197
        },
        {
          "name": "C#4",
          "midi": 61,
          "time": 145.63675200000043,
          "velocity": 0.5039370078740157,
          "duration": 0.2579552333333197
        },
        {
          "name": "F3",
          "midi": 53,
          "time": 145.9094800000004,
          "velocity": 0.5039370078740157,
          "duration": 0.2579552333333197
        },
        {
          "name": "F#2",
          "midi": 42,
          "time": 146.18220800000037,
          "velocity": 0.5039370078740157,
          "duration": 0.2579552333333197
        },
        {
          "name": "C#3",
          "midi": 49,
          "time": 146.45493600000034,
          "velocity": 0.5039370078740157,
          "duration": 0.2579552333333197
        },
        {
          "name": "A#3",
          "midi": 58,
          "time": 146.72766400000032,
          "velocity": 0.5039370078740157,
          "duration": 0.2579552333333197
        },
        {
          "name": "C#3",
          "midi": 49,
          "time": 147.0003920000003,
          "velocity": 0.5039370078740157,
          "duration": 0.2579552333333197
        },
        {
          "name": "A#3",
          "midi": 58,
          "time": 147.27312000000026,
          "velocity": 0.5039370078740157,
          "duration": 0.2579552333333197
        },
        {
          "name": "C#3",
          "midi": 49,
          "time": 147.54584800000023,
          "velocity": 0.5039370078740157,
          "duration": 0.2579552333333197
        },
        {
          "name": "A#3",
          "midi": 58,
          "time": 147.8185760000002,
          "velocity": 0.5039370078740157,
          "duration": 0.2579552333333197
        },
        {
          "name": "C#3",
          "midi": 49,
          "time": 148.09130400000018,
          "velocity": 0.5039370078740157,
          "duration": 0.2579552333333197
        },
        {
          "name": "C#2",
          "midi": 37,
          "time": 148.36403200000015,
          "velocity": 0.5039370078740157,
          "duration": 0.2579552333333197
        },
        {
          "name": "C#3",
          "midi": 49,
          "time": 148.36403200000015,
          "velocity": 0.5039370078740157,
          "duration": 0.2579552333333197
        },
        {
          "name": "G#3",
          "midi": 56,
          "time": 148.63676000000012,
          "velocity": 0.5039370078740157,
          "duration": 0.2579552333333197
        },
        {
          "name": "C#4",
          "midi": 61,
          "time": 148.9094880000001,
          "velocity": 0.5039370078740157,
          "duration": 0.2579552333333197
        },
        {
          "name": "F4",
          "midi": 65,
          "time": 148.9094880000001,
          "velocity": 0.5039370078740157,
          "duration": 0.2579552333333197
        },
        {
          "name": "G#3",
          "midi": 56,
          "time": 149.18221600000007,
          "velocity": 0.5039370078740157,
          "duration": 0.2579552333333197
        },
        {
          "name": "F4",
          "midi": 65,
          "time": 149.45494400000004,
          "velocity": 0.5039370078740157,
          "duration": 0.2579552333333197
        },
        {
          "name": "G#3",
          "midi": 56,
          "time": 149.727672,
          "velocity": 0.5039370078740157,
          "duration": 0.2579552333333197
        },
        {
          "name": "C#4",
          "midi": 61,
          "time": 150.00039999999998,
          "velocity": 0.5039370078740157,
          "duration": 0.2579552333333197
        },
        {
          "name": "F4",
          "midi": 65,
          "time": 150.00039999999998,
          "velocity": 0.5039370078740157,
          "duration": 0.2579552333333197
        },
        {
          "name": "G#3",
          "midi": 56,
          "time": 150.27312799999996,
          "velocity": 0.5039370078740157,
          "duration": 0.2579552333333197
        },
        {
          "name": "G#1",
          "midi": 32,
          "time": 150.54585599999993,
          "velocity": 0.5039370078740157,
          "duration": 0.2579552333333197
        },
        {
          "name": "G#2",
          "midi": 44,
          "time": 150.54585599999993,
          "velocity": 0.5039370078740157,
          "duration": 0.2579552333333197
        },
        {
          "name": "D#3",
          "midi": 51,
          "time": 150.8185839999999,
          "velocity": 0.5039370078740157,
          "duration": 0.2579552333333197
        },
        {
          "name": "G#3",
          "midi": 56,
          "time": 151.09131199999987,
          "velocity": 0.5039370078740157,
          "duration": 0.2579552333333197
        },
        {
          "name": "C4",
          "midi": 60,
          "time": 151.09131199999987,
          "velocity": 0.5039370078740157,
          "duration": 0.2579552333333197
        },
        {
          "name": "D#3",
          "midi": 51,
          "time": 151.36403999999985,
          "velocity": 0.5039370078740157,
          "duration": 0.2579552333333197
        },
        {
          "name": "C4",
          "midi": 60,
          "time": 151.63676799999982,
          "velocity": 0.5039370078740157,
          "duration": 0.2579552333333197
        },
        {
          "name": "D#3",
          "midi": 51,
          "time": 151.9094959999998,
          "velocity": 0.5039370078740157,
          "duration": 0.2579552333333197
        },
        {
          "name": "G#3",
          "midi": 56,
          "time": 152.18222399999976,
          "velocity": 0.5039370078740157,
          "duration": 0.2579552333333197
        },
        {
          "name": "C4",
          "midi": 60,
          "time": 152.18222399999976,
          "velocity": 0.5039370078740157,
          "duration": 0.2579552333333197
        },
        {
          "name": "D#3",
          "midi": 51,
          "time": 152.45495199999974,
          "velocity": 0.5039370078740157,
          "duration": 0.2579552333333197
        },
        {
          "name": "A#1",
          "midi": 34,
          "time": 152.7276799999997,
          "velocity": 0.5039370078740157,
          "duration": 0.2579552333333197
        },
        {
          "name": "A#2",
          "midi": 46,
          "time": 152.7276799999997,
          "velocity": 0.5039370078740157,
          "duration": 0.2579552333333197
        },
        {
          "name": "F3",
          "midi": 53,
          "time": 153.00040799999968,
          "velocity": 0.5039370078740157,
          "duration": 0.2579552333333197
        },
        {
          "name": "A#3",
          "midi": 58,
          "time": 153.27313599999965,
          "velocity": 0.5039370078740157,
          "duration": 0.2579552333333197
        },
        {
          "name": "C#4",
          "midi": 61,
          "time": 153.27313599999965,
          "velocity": 0.5039370078740157,
          "duration": 0.2579552333333197
        },
        {
          "name": "F3",
          "midi": 53,
          "time": 153.54586399999963,
          "velocity": 0.5039370078740157,
          "duration": 0.2579552333333197
        },
        {
          "name": "C#4",
          "midi": 61,
          "time": 153.8185919999996,
          "velocity": 0.5039370078740157,
          "duration": 0.2579552333333197
        },
        {
          "name": "F3",
          "midi": 53,
          "time": 154.09131999999957,
          "velocity": 0.5039370078740157,
          "duration": 0.2579552333333197
        },
        {
          "name": "A#3",
          "midi": 58,
          "time": 154.36404799999954,
          "velocity": 0.5039370078740157,
          "duration": 0.2579552333333197
        },
        {
          "name": "C#4",
          "midi": 61,
          "time": 154.36404799999954,
          "velocity": 0.5039370078740157,
          "duration": 0.2579552333333197
        },
        {
          "name": "F3",
          "midi": 53,
          "time": 154.63677599999951,
          "velocity": 0.5039370078740157,
          "duration": 0.2579552333333197
        },
        {
          "name": "F#1",
          "midi": 30,
          "time": 154.9095039999995,
          "velocity": 0.5039370078740157,
          "duration": 0.2579552333333197
        },
        {
          "name": "F#2",
          "midi": 42,
          "time": 154.9095039999995,
          "velocity": 0.5039370078740157,
          "duration": 0.2579552333333197
        },
        {
          "name": "C#3",
          "midi": 49,
          "time": 155.18223199999946,
          "velocity": 0.5039370078740157,
          "duration": 0.2579552333333197
        },
        {
          "name": "F#3",
          "midi": 54,
          "time": 155.45495999999943,
          "velocity": 0.5039370078740157,
          "duration": 0.2579552333333197
        },
        {
          "name": "A#3",
          "midi": 58,
          "time": 155.45495999999943,
          "velocity": 0.5039370078740157,
          "duration": 0.2579552333333197
        },
        {
          "name": "C#3",
          "midi": 49,
          "time": 155.7276879999994,
          "velocity": 0.5039370078740157,
          "duration": 0.2579552333333197
        },
        {
          "name": "A#3",
          "midi": 58,
          "time": 156.00041599999938,
          "velocity": 0.5039370078740157,
          "duration": 0.2579552333333197
        },
        {
          "name": "C#3",
          "midi": 49,
          "time": 156.27314399999935,
          "velocity": 0.5039370078740157,
          "duration": 0.2579552333333197
        },
        {
          "name": "F#3",
          "midi": 54,
          "time": 156.54587199999932,
          "velocity": 0.5039370078740157,
          "duration": 0.2579552333333197
        },
        {
          "name": "A#3",
          "midi": 58,
          "time": 156.54587199999932,
          "velocity": 0.5039370078740157,
          "duration": 0.2579552333333197
        },
        {
          "name": "C#3",
          "midi": 49,
          "time": 156.8185999999993,
          "velocity": 0.5039370078740157,
          "duration": 0.2579552333333197
        },
        {
          "name": "C#2",
          "midi": 37,
          "time": 157.09132799999927,
          "velocity": 0.5039370078740157,
          "duration": 0.2579552333333197
        },
        {
          "name": "C#3",
          "midi": 49,
          "time": 157.09132799999927,
          "velocity": 0.5039370078740157,
          "duration": 0.2579552333333197
        },
        {
          "name": "G#3",
          "midi": 56,
          "time": 157.36405599999924,
          "velocity": 0.5039370078740157,
          "duration": 0.2579552333333197
        },
        {
          "name": "C#4",
          "midi": 61,
          "time": 157.6367839999992,
          "velocity": 0.5039370078740157,
          "duration": 0.2579552333333197
        },
        {
          "name": "F4",
          "midi": 65,
          "time": 157.6367839999992,
          "velocity": 0.5039370078740157,
          "duration": 0.2579552333333197
        },
        {
          "name": "G#3",
          "midi": 56,
          "time": 157.90951199999918,
          "velocity": 0.5039370078740157,
          "duration": 0.2579552333333197
        },
        {
          "name": "F4",
          "midi": 65,
          "time": 158.18223999999915,
          "velocity": 0.5039370078740157,
          "duration": 0.2579552333333197
        },
        {
          "name": "G#3",
          "midi": 56,
          "time": 158.45496799999913,
          "velocity": 0.5039370078740157,
          "duration": 0.2579552333333197
        },
        {
          "name": "C#4",
          "midi": 61,
          "time": 158.7276959999991,
          "velocity": 0.5039370078740157,
          "duration": 0.2579552333333197
        },
        {
          "name": "F4",
          "midi": 65,
          "time": 158.7276959999991,
          "velocity": 0.5039370078740157,
          "duration": 0.2579552333333197
        },
        {
          "name": "G#3",
          "midi": 56,
          "time": 159.00042399999907,
          "velocity": 0.5039370078740157,
          "duration": 0.2579552333333197
        },
        {
          "name": "G#1",
          "midi": 32,
          "time": 159.27315199999904,
          "velocity": 0.5039370078740157,
          "duration": 0.2579552333333197
        },
        {
          "name": "G#2",
          "midi": 44,
          "time": 159.27315199999904,
          "velocity": 0.5039370078740157,
          "duration": 0.2579552333333197
        },
        {
          "name": "D#3",
          "midi": 51,
          "time": 159.54587999999902,
          "velocity": 0.5039370078740157,
          "duration": 0.2579552333333197
        },
        {
          "name": "G#3",
          "midi": 56,
          "time": 159.818607999999,
          "velocity": 0.5039370078740157,
          "duration": 0.2579552333333197
        },
        {
          "name": "C4",
          "midi": 60,
          "time": 159.818607999999,
          "velocity": 0.5039370078740157,
          "duration": 0.2579552333333197
        },
        {
          "name": "D#3",
          "midi": 51,
          "time": 160.09133599999896,
          "velocity": 0.5039370078740157,
          "duration": 0.2579552333333197
        },
        {
          "name": "C4",
          "midi": 60,
          "time": 160.36406399999893,
          "velocity": 0.5039370078740157,
          "duration": 0.2579552333333197
        },
        {
          "name": "D#3",
          "midi": 51,
          "time": 160.6367919999989,
          "velocity": 0.5039370078740157,
          "duration": 0.2579552333333197
        },
        {
          "name": "G#3",
          "midi": 56,
          "time": 160.90951999999888,
          "velocity": 0.5039370078740157,
          "duration": 0.2579552333333197
        },
        {
          "name": "C4",
          "midi": 60,
          "time": 160.90951999999888,
          "velocity": 0.5039370078740157,
          "duration": 0.2579552333333197
        },
        {
          "name": "D#3",
          "midi": 51,
          "time": 161.18224799999885,
          "velocity": 0.5039370078740157,
          "duration": 0.2579552333333197
        },
        {
          "name": "A#1",
          "midi": 34,
          "time": 161.45497599999882,
          "velocity": 0.5039370078740157,
          "duration": 0.2579552333333197
        },
        {
          "name": "A#2",
          "midi": 46,
          "time": 161.45497599999882,
          "velocity": 0.5039370078740157,
          "duration": 0.2579552333333197
        },
        {
          "name": "F3",
          "midi": 53,
          "time": 161.7277039999988,
          "velocity": 0.5039370078740157,
          "duration": 0.2579552333333197
        },
        {
          "name": "A#3",
          "midi": 58,
          "time": 162.00043199999877,
          "velocity": 0.5039370078740157,
          "duration": 0.2579552333333197
        },
        {
          "name": "C#4",
          "midi": 61,
          "time": 162.00043199999877,
          "velocity": 0.5039370078740157,
          "duration": 0.2579552333333197
        },
        {
          "name": "F3",
          "midi": 53,
          "time": 162.27315999999874,
          "velocity": 0.5039370078740157,
          "duration": 0.2579552333333197
        },
        {
          "name": "C#4",
          "midi": 61,
          "time": 162.5458879999987,
          "velocity": 0.5039370078740157,
          "duration": 0.2579552333333197
        },
        {
          "name": "F3",
          "midi": 53,
          "time": 162.81861599999868,
          "velocity": 0.5039370078740157,
          "duration": 0.2579552333333197
        },
        {
          "name": "A#3",
          "midi": 58,
          "time": 163.09134399999866,
          "velocity": 0.5039370078740157,
          "duration": 0.2579552333333197
        },
        {
          "name": "C#4",
          "midi": 61,
          "time": 163.09134399999866,
          "velocity": 0.5039370078740157,
          "duration": 0.2579552333333197
        },
        {
          "name": "F3",
          "midi": 53,
          "time": 163.36407199999863,
          "velocity": 0.5039370078740157,
          "duration": 0.2579552333333197
        },
        {
          "name": "F#1",
          "midi": 30,
          "time": 163.6367999999986,
          "velocity": 0.5039370078740157,
          "duration": 0.2579552333333197
        },
        {
          "name": "F#2",
          "midi": 42,
          "time": 163.6367999999986,
          "velocity": 0.5039370078740157,
          "duration": 0.2579552333333197
        },
        {
          "name": "C#3",
          "midi": 49,
          "time": 163.90952799999857,
          "velocity": 0.5039370078740157,
          "duration": 0.2579552333333197
        },
        {
          "name": "F#3",
          "midi": 54,
          "time": 164.18225599999855,
          "velocity": 0.5039370078740157,
          "duration": 0.2579552333333197
        },
        {
          "name": "A#3",
          "midi": 58,
          "time": 164.18225599999855,
          "velocity": 0.5039370078740157,
          "duration": 0.2579552333333197
        },
        {
          "name": "C#3",
          "midi": 49,
          "time": 164.45498399999852,
          "velocity": 0.5039370078740157,
          "duration": 0.2579552333333197
        },
        {
          "name": "A#3",
          "midi": 58,
          "time": 164.7277119999985,
          "velocity": 0.5039370078740157,
          "duration": 0.2579552333333197
        },
        {
          "name": "C#3",
          "midi": 49,
          "time": 165.00043999999846,
          "velocity": 0.5039370078740157,
          "duration": 0.2579552333333197
        },
        {
          "name": "F#3",
          "midi": 54,
          "time": 165.27316799999844,
          "velocity": 0.5039370078740157,
          "duration": 0.2579552333333197
        },
        {
          "name": "A#3",
          "midi": 58,
          "time": 165.27316799999844,
          "velocity": 0.5039370078740157,
          "duration": 0.2579552333333197
        },
        {
          "name": "C#3",
          "midi": 49,
          "time": 165.5458959999984,
          "velocity": 0.5039370078740157,
          "duration": 0.2579552333333197
        },
        {
          "name": "C#2",
          "midi": 37,
          "time": 165.81862399999838,
          "velocity": 0.5039370078740157,
          "duration": 2.071596433333326
        },
        {
          "name": "C#3",
          "midi": 49,
          "time": 165.81862399999838,
          "velocity": 0.5039370078740157,
          "duration": 2.071596433333326
        },
        {
          "name": "G#2",
          "midi": 44,
          "time": 168.00044799999839,
          "velocity": 0.5039370078740157,
          "duration": 2.071596433333326
        },
        {
          "name": "G#3",
          "midi": 56,
          "time": 168.00044799999839,
          "velocity": 0.5039370078740157,
          "duration": 2.071596433333326
        },
        {
          "name": "A#1",
          "midi": 34,
          "time": 170.1822719999984,
          "velocity": 0.5039370078740157,
          "duration": 2.071596433333326
        },
        {
          "name": "A#2",
          "midi": 46,
          "time": 170.1822719999984,
          "velocity": 0.5039370078740157,
          "duration": 2.071596433333326
        },
        {
          "name": "F#2",
          "midi": 42,
          "time": 172.3640959999984,
          "velocity": 0.3858267716535433,
          "duration": 2.071596433333326
        },
        {
          "name": "C#2",
          "midi": 37,
          "time": 174.5459199999984,
          "velocity": 0.3858267716535433,
          "duration": 2.071596433333326
        }
      ],
      "controlChanges": {
        "64": [
          {
            "number": 64,
            "time": 0.002272733333333333,
            "value": 1
          },
          {
            "number": 64,
            "time": 2.1829603666666664,
            "value": 0
          },
          {
            "number": 64,
            "time": 2.184096733333333,
            "value": 1
          },
          {
            "number": 64,
            "time": 4.364784366666666,
            "value": 0
          },
          {
            "number": 64,
            "time": 4.365920733333333,
            "value": 1
          },
          {
            "number": 64,
            "time": 6.546608366666666,
            "value": 0
          },
          {
            "number": 64,
            "time": 6.5477447333333325,
            "value": 1
          },
          {
            "number": 64,
            "time": 8.728432366666668,
            "value": 0
          },
          {
            "number": 64,
            "time": 8.729568733333336,
            "value": 1
          },
          {
            "number": 64,
            "time": 10.910256366666676,
            "value": 0
          },
          {
            "number": 64,
            "time": 10.911392733333344,
            "value": 1
          },
          {
            "number": 64,
            "time": 13.092080366666684,
            "value": 0
          },
          {
            "number": 64,
            "time": 13.093216733333351,
            "value": 1
          },
          {
            "number": 64,
            "time": 15.273904366666692,
            "value": 0
          },
          {
            "number": 64,
            "time": 15.275040733333359,
            "value": 1
          },
          {
            "number": 64,
            "time": 17.455728366666698,
            "value": 0
          },
          {
            "number": 64,
            "time": 17.456864733333365,
            "value": 1
          },
          {
            "number": 64,
            "time": 19.637552366666704,
            "value": 0
          },
          {
            "number": 64,
            "time": 19.63868873333337,
            "value": 1
          },
          {
            "number": 64,
            "time": 21.81937636666671,
            "value": 0
          },
          {
            "number": 64,
            "time": 21.820512733333377,
            "value": 1
          },
          {
            "number": 64,
            "time": 24.001200366666716,
            "value": 0
          },
          {
            "number": 64,
            "time": 24.002336733333383,
            "value": 1
          },
          {
            "number": 64,
            "time": 26.18302436666672,
            "value": 0
          },
          {
            "number": 64,
            "time": 26.18416073333339,
            "value": 1
          },
          {
            "number": 64,
            "time": 28.364848366666727,
            "value": 0
          },
          {
            "number": 64,
            "time": 28.365984733333395,
            "value": 1
          },
          {
            "number": 64,
            "time": 30.546672366666733,
            "value": 0
          },
          {
            "number": 64,
            "time": 30.5478087333334,
            "value": 1
          },
          {
            "number": 64,
            "time": 32.72849636666673,
            "value": 0
          },
          {
            "number": 64,
            "time": 32.729632733333396,
            "value": 1
          },
          {
            "number": 64,
            "time": 34.91032036666673,
            "value": 0
          },
          {
            "number": 64,
            "time": 34.911456733333395,
            "value": 1
          },
          {
            "number": 64,
            "time": 37.09214436666673,
            "value": 0
          },
          {
            "number": 64,
            "time": 37.093280733333394,
            "value": 1
          },
          {
            "number": 64,
            "time": 39.27396836666673,
            "value": 0
          },
          {
            "number": 64,
            "time": 39.27510473333339,
            "value": 1
          },
          {
            "number": 64,
            "time": 41.45579236666673,
            "value": 0
          },
          {
            "number": 64,
            "time": 41.45692873333339,
            "value": 1
          },
          {
            "number": 64,
            "time": 43.63761636666673,
            "value": 0
          },
          {
            "number": 64,
            "time": 43.63875273333339,
            "value": 1
          },
          {
            "number": 64,
            "time": 45.819440366666726,
            "value": 0
          },
          {
            "number": 64,
            "time": 45.82057673333339,
            "value": 1
          },
          {
            "number": 64,
            "time": 48.001264366666724,
            "value": 0
          },
          {
            "number": 64,
            "time": 48.00240073333339,
            "value": 1
          },
          {
            "number": 64,
            "time": 50.18308836666672,
            "value": 0
          },
          {
            "number": 64,
            "time": 50.18422473333339,
            "value": 1
          },
          {
            "number": 64,
            "time": 52.36491236666672,
            "value": 0
          },
          {
            "number": 64,
            "time": 52.366048733333386,
            "value": 1
          },
          {
            "number": 64,
            "time": 54.54673636666672,
            "value": 0
          },
          {
            "number": 64,
            "time": 54.547872733333385,
            "value": 1
          },
          {
            "number": 64,
            "time": 56.72856036666672,
            "value": 0
          },
          {
            "number": 64,
            "time": 56.729696733333384,
            "value": 1
          },
          {
            "number": 64,
            "time": 58.91038436666672,
            "value": 0
          },
          {
            "number": 64,
            "time": 58.91152073333338,
            "value": 1
          },
          {
            "number": 64,
            "time": 61.09220836666672,
            "value": 0
          },
          {
            "number": 64,
            "time": 61.09334473333338,
            "value": 1
          },
          {
            "number": 64,
            "time": 63.27403236666672,
            "value": 0
          },
          {
            "number": 64,
            "time": 63.27516873333338,
            "value": 1
          },
          {
            "number": 64,
            "time": 65.45585636666672,
            "value": 0
          },
          {
            "number": 64,
            "time": 65.4569927333334,
            "value": 1
          },
          {
            "number": 64,
            "time": 67.63768036666674,
            "value": 0
          },
          {
            "number": 64,
            "time": 67.63881673333341,
            "value": 1
          },
          {
            "number": 64,
            "time": 69.81950436666676,
            "value": 0
          },
          {
            "number": 64,
            "time": 69.82064073333343,
            "value": 1
          },
          {
            "number": 64,
            "time": 72.00132836666678,
            "value": 0
          },
          {
            "number": 64,
            "time": 72.00246473333345,
            "value": 1
          },
          {
            "number": 64,
            "time": 74.1831523666668,
            "value": 0
          },
          {
            "number": 64,
            "time": 74.18428873333347,
            "value": 1
          },
          {
            "number": 64,
            "time": 76.36497636666682,
            "value": 0
          },
          {
            "number": 64,
            "time": 76.3661127333335,
            "value": 1
          },
          {
            "number": 64,
            "time": 78.54680036666684,
            "value": 0
          },
          {
            "number": 64,
            "time": 78.54793673333351,
            "value": 1
          },
          {
            "number": 64,
            "time": 80.72862436666686,
            "value": 0
          },
          {
            "number": 64,
            "time": 80.72976073333353,
            "value": 1
          },
          {
            "number": 64,
            "time": 82.91044836666688,
            "value": 0
          },
          {
            "number": 64,
            "time": 82.91158473333356,
            "value": 1
          },
          {
            "number": 64,
            "time": 85.0922723666669,
            "value": 0
          },
          {
            "number": 64,
            "time": 85.09340873333358,
            "value": 1
          },
          {
            "number": 64,
            "time": 87.27409636666692,
            "value": 0
          },
          {
            "number": 64,
            "time": 87.2752327333336,
            "value": 1
          },
          {
            "number": 64,
            "time": 89.45592036666694,
            "value": 0
          },
          {
            "number": 64,
            "time": 89.45705673333362,
            "value": 1
          },
          {
            "number": 64,
            "time": 91.63774436666696,
            "value": 0
          },
          {
            "number": 64,
            "time": 91.63888073333364,
            "value": 1
          },
          {
            "number": 64,
            "time": 93.81956836666699,
            "value": 0
          },
          {
            "number": 64,
            "time": 93.82070473333366,
            "value": 1
          },
          {
            "number": 64,
            "time": 96.001392366667,
            "value": 0
          },
          {
            "number": 64,
            "time": 96.00252873333368,
            "value": 1
          },
          {
            "number": 64,
            "time": 98.18321636666703,
            "value": 0
          },
          {
            "number": 64,
            "time": 98.1843527333337,
            "value": 1
          },
          {
            "number": 64,
            "time": 100.36504036666705,
            "value": 0
          },
          {
            "number": 64,
            "time": 100.36617673333372,
            "value": 1
          },
          {
            "number": 64,
            "time": 102.54686436666707,
            "value": 0
          },
          {
            "number": 64,
            "time": 102.54800073333374,
            "value": 1
          },
          {
            "number": 64,
            "time": 104.72868836666709,
            "value": 0
          },
          {
            "number": 64,
            "time": 104.72982473333376,
            "value": 1
          },
          {
            "number": 64,
            "time": 106.9105123666671,
            "value": 0
          },
          {
            "number": 64,
            "time": 106.91164873333378,
            "value": 1
          },
          {
            "number": 64,
            "time": 109.09233636666713,
            "value": 0
          },
          {
            "number": 64,
            "time": 109.0934727333338,
            "value": 1
          },
          {
            "number": 64,
            "time": 111.27416036666715,
            "value": 0
          },
          {
            "number": 64,
            "time": 111.27529673333382,
            "value": 1
          },
          {
            "number": 64,
            "time": 113.45598436666717,
            "value": 0
          },
          {
            "number": 64,
            "time": 113.45712073333384,
            "value": 1
          },
          {
            "number": 64,
            "time": 115.63780836666719,
            "value": 0
          },
          {
            "number": 64,
            "time": 115.63894473333386,
            "value": 1
          },
          {
            "number": 64,
            "time": 117.81963236666721,
            "value": 0
          },
          {
            "number": 64,
            "time": 117.82076873333388,
            "value": 1
          },
          {
            "number": 64,
            "time": 120.00145636666723,
            "value": 0
          },
          {
            "number": 64,
            "time": 120.0025927333339,
            "value": 1
          },
          {
            "number": 64,
            "time": 122.18328036666725,
            "value": 0
          },
          {
            "number": 64,
            "time": 122.18441673333392,
            "value": 1
          },
          {
            "number": 64,
            "time": 124.36510436666727,
            "value": 0
          },
          {
            "number": 64,
            "time": 124.36624073333394,
            "value": 1
          },
          {
            "number": 64,
            "time": 126.54692836666729,
            "value": 0
          },
          {
            "number": 64,
            "time": 126.54806473333396,
            "value": 1
          },
          {
            "number": 64,
            "time": 128.7287523666672,
            "value": 0
          },
          {
            "number": 64,
            "time": 128.72988873333387,
            "value": 1
          },
          {
            "number": 64,
            "time": 130.91057636666721,
            "value": 0
          },
          {
            "number": 64,
            "time": 130.91171273333387,
            "value": 1
          },
          {
            "number": 64,
            "time": 133.09240036666722,
            "value": 0
          },
          {
            "number": 64,
            "time": 133.09353673333388,
            "value": 1
          },
          {
            "number": 64,
            "time": 135.27422436666723,
            "value": 0
          },
          {
            "number": 64,
            "time": 135.27536073333388,
            "value": 1
          },
          {
            "number": 64,
            "time": 137.45604836666723,
            "value": 0
          },
          {
            "number": 64,
            "time": 137.4571847333339,
            "value": 1
          },
          {
            "number": 64,
            "time": 139.63787236666724,
            "value": 0
          },
          {
            "number": 64,
            "time": 139.6390087333339,
            "value": 1
          },
          {
            "number": 64,
            "time": 141.81969636666724,
            "value": 0
          },
          {
            "number": 64,
            "time": 141.8208327333339,
            "value": 1
          },
          {
            "number": 64,
            "time": 144.00152036666725,
            "value": 0
          },
          {
            "number": 64,
            "time": 144.0026567333339,
            "value": 1
          },
          {
            "number": 64,
            "time": 146.18334436666703,
            "value": 0
          },
          {
            "number": 64,
            "time": 146.1844807333337,
            "value": 1
          },
          {
            "number": 64,
            "time": 148.3651683666668,
            "value": 0
          },
          {
            "number": 64,
            "time": 148.36630473333346,
            "value": 1
          },
          {
            "number": 64,
            "time": 150.5469923666666,
            "value": 0
          },
          {
            "number": 64,
            "time": 150.54812873333324,
            "value": 1
          },
          {
            "number": 64,
            "time": 152.72881636666636,
            "value": 0
          },
          {
            "number": 64,
            "time": 152.72995273333302,
            "value": 1
          },
          {
            "number": 64,
            "time": 154.91064036666614,
            "value": 0
          },
          {
            "number": 64,
            "time": 154.9117767333328,
            "value": 1
          },
          {
            "number": 64,
            "time": 157.09246436666592,
            "value": 0
          },
          {
            "number": 64,
            "time": 157.09360073333258,
            "value": 1
          },
          {
            "number": 64,
            "time": 159.2742883666657,
            "value": 0
          },
          {
            "number": 64,
            "time": 159.27542473333236,
            "value": 1
          },
          {
            "number": 64,
            "time": 161.45611236666548,
            "value": 0
          },
          {
            "number": 64,
            "time": 161.45724873333214,
            "value": 1
          },
          {
            "number": 64,
            "time": 163.63793636666526,
            "value": 0
          },
          {
            "number": 64,
            "time": 163.63907273333191,
            "value": 1
          },
          {
            "number": 64,
            "time": 165.81976036666504,
            "value": 0
          },
          {
            "number": 64,
            "time": 165.8208967333317,
            "value": 1
          },
          {
            "number": 64,
            "time": 168.00158436666504,
            "value": 0
          },
          {
            "number": 64,
            "time": 168.0027207333317,
            "value": 1
          },
          {
            "number": 64,
            "time": 170.18340836666505,
            "value": 0
          },
          {
            "number": 64,
            "time": 170.1845447333317,
            "value": 1
          },
          {
            "number": 64,
            "time": 172.36523236666505,
            "value": 0
          },
          {
            "number": 64,
            "time": 172.3663687333317,
            "value": 1
          },
          {
            "number": 64,
            "time": 174.54705636666506,
            "value": 0
          },
          {
            "number": 64,
            "time": 174.54819273333172,
            "value": 1
          },
          {
            "number": 64,
            "time": 176.7277439999984,
            "value": 0
          }
        ]
      },
      "id": 1,
      "channelNumber": 0,
      "isPercussion": false
    }
  ]
}