export const perfectMidi = {
  "header": {
    "PPQ": 384,
    "timeSignature": [
      4,
      4
    ],
    "bpm": 110.00011000011,
    "name": ""
  },
  "tempo": [
    {
      "absoluteTime": 0,
      "seconds": 0,
      "bpm": 110.00011000011
    }
  ],
  "timeSignature": [
    {
      "absoluteTime": 0,
      "seconds": 0,
      "numerator": 4,
      "denominator": 2,
      "click": 24,
      "notesQ": 8
    }
  ],
  "startTime": 4.9715859375,
  "duration": 260.5210462968755,
  "tracks": [
    {
      "startTime": 4.9715859375,
      "duration": 260.5210462968755,
      "length": 776,
      "notes": [
        {
          "name": "D#3",
          "midi": 51,
          "time": 4.9715859375,
          "velocity": 0.3937007874015748,
          "duration": 0.2727269999999997
        },
        {
          "name": "F3",
          "midi": 53,
          "time": 5.306812875,
          "velocity": 0.3937007874015748,
          "duration": 0.2727269999999997
        },
        {
          "name": "D#3",
          "midi": 51,
          "time": 5.9602213125,
          "velocity": 0.3937007874015748,
          "duration": 0.6818174999999993
        },
        {
          "name": "G#2",
          "midi": 44,
          "time": 5.965903125,
          "velocity": 0.3937007874015748,
          "duration": 0.5454539999999994
        },
        {
          "name": "G#3",
          "midi": 56,
          "time": 5.965903125,
          "velocity": 0.3937007874015748,
          "duration": 0.6818174999999993
        },
        {
          "name": "D#2",
          "midi": 39,
          "time": 5.971584937499999,
          "velocity": 0.3937007874015748,
          "duration": 3.1377809531250023
        },
        {
          "name": "C3",
          "midi": 48,
          "time": 5.977266749999999,
          "velocity": 0.3937007874015748,
          "duration": 0.6818175000000002
        },
        {
          "name": "G#1",
          "midi": 32,
          "time": 5.977266749999999,
          "velocity": 0.3937007874015748,
          "duration": 3.0014174531250033
        },
        {
          "name": "D#3",
          "midi": 51,
          "time": 7.068174749999999,
          "velocity": 0.3937007874015748,
          "duration": 0.6832379531250004
        },
        {
          "name": "G#3",
          "midi": 56,
          "time": 7.075277015624999,
          "velocity": 0.3937007874015748,
          "duration": 0.6832379531250004
        },
        {
          "name": "C3",
          "midi": 48,
          "time": 7.092322453124999,
          "velocity": 0.3937007874015748,
          "duration": 0.5454540000000003
        },
        {
          "name": "G#2",
          "midi": 44,
          "time": 7.758514968749999,
          "velocity": 0.3937007874015748,
          "duration": 0.545454000000003
        },
        {
          "name": "G#3",
          "midi": 56,
          "time": 8.139196406249999,
          "velocity": 0.3937007874015748,
          "duration": 0.13636350000000164
        },
        {
          "name": "D#3",
          "midi": 51,
          "time": 8.14487821875,
          "velocity": 0.3937007874015748,
          "duration": 0.13636350000000164
        },
        {
          "name": "C3",
          "midi": 48,
          "time": 8.17896909375,
          "velocity": 0.3937007874015748,
          "duration": 0.13636350000000164
        },
        {
          "name": "G#2",
          "midi": 44,
          "time": 8.849422968750002,
          "velocity": 0.3937007874015748,
          "duration": 0.2727269999999997
        },
        {
          "name": "A#3",
          "midi": 58,
          "time": 9.122149968750001,
          "velocity": 0.3937007874015748,
          "duration": 0.13636349999999986
        },
        {
          "name": "C4",
          "midi": 60,
          "time": 9.245729390625002,
          "velocity": 0.3937007874015748,
          "duration": 0.2727269999999997
        },
        {
          "name": "A#3",
          "midi": 58,
          "time": 9.450274640625,
          "velocity": 0.3937007874015748,
          "duration": 0.40909050000000136
        },
        {
          "name": "C4",
          "midi": 60,
          "time": 10.103683078125002,
          "velocity": 0.3937007874015748,
          "duration": 2.727269999999999
        },
        {
          "name": "G#3",
          "midi": 56,
          "time": 10.110785343750003,
          "velocity": 0.3937007874015748,
          "duration": 2.727269999999999
        },
        {
          "name": "C3",
          "midi": 48,
          "time": 10.116467156250003,
          "velocity": 0.3937007874015748,
          "duration": 0.5454539999999994
        },
        {
          "name": "F2",
          "midi": 41,
          "time": 10.127830781250003,
          "velocity": 0.3937007874015748,
          "duration": 0.5454539999999994
        },
        {
          "name": "F2",
          "midi": 41,
          "time": 11.139193406250001,
          "velocity": 0.3937007874015748,
          "duration": 0.2727269999999997
        },
        {
          "name": "F2",
          "midi": 41,
          "time": 11.815329093750002,
          "velocity": 0.3937007874015748,
          "duration": 0.13636349999999986
        },
        {
          "name": "F2",
          "midi": 41,
          "time": 12.161919656250001,
          "velocity": 0.3937007874015748,
          "duration": 0.4090904999999996
        },
        {
          "name": "F2",
          "midi": 41,
          "time": 12.855100781250002,
          "velocity": 0.3937007874015748,
          "duration": 0.13636349999999986
        },
        {
          "name": "F2",
          "midi": 41,
          "time": 13.190327718750002,
          "velocity": 0.3937007874015748,
          "duration": 0.2727269999999997
        },
        {
          "name": "G#3",
          "midi": 56,
          "time": 13.190327718750002,
          "velocity": 0.3937007874015748,
          "duration": 0.4090904999999996
        },
        {
          "name": "A#3",
          "midi": 58,
          "time": 13.51987284375,
          "velocity": 0.3937007874015748,
          "duration": 0.2727269999999997
        },
        {
          "name": "C4",
          "midi": 60,
          "time": 13.83805434375,
          "velocity": 0.3937007874015748,
          "duration": 0.13636349999999986
        },
        {
          "name": "G#2",
          "midi": 44,
          "time": 14.15055403125,
          "velocity": 0.3937007874015748,
          "duration": 0.5454540000000012
        },
        {
          "name": "C#2",
          "midi": 37,
          "time": 14.15623584375,
          "velocity": 0.3937007874015748,
          "duration": 0.5454540000000012
        },
        {
          "name": "C4",
          "midi": 60,
          "time": 14.16191765625,
          "velocity": 0.3937007874015748,
          "duration": 0.4090904999999996
        },
        {
          "name": "A#3",
          "midi": 58,
          "time": 14.46305371875,
          "velocity": 0.3937007874015748,
          "duration": 0.2727270000000015
        },
        {
          "name": "G#3",
          "midi": 56,
          "time": 14.798280656250002,
          "velocity": 0.3937007874015748,
          "duration": 0.13636349999999986
        },
        {
          "name": "C#2",
          "midi": 37,
          "time": 15.150553031250002,
          "velocity": 0.3937007874015748,
          "duration": 0.2727269999999997
        },
        {
          "name": "G#2",
          "midi": 44,
          "time": 15.150553031250002,
          "velocity": 0.3937007874015748,
          "duration": 0.2727269999999997
        },
        {
          "name": "G#3",
          "midi": 56,
          "time": 15.150553031250002,
          "velocity": 0.3937007874015748,
          "duration": 1.7727255
        },
        {
          "name": "G#2",
          "midi": 44,
          "time": 15.821006906250002,
          "velocity": 0.3937007874015748,
          "duration": 0.13636349999999986
        },
        {
          "name": "G#2",
          "midi": 44,
          "time": 16.161915656250002,
          "velocity": 0.3937007874015748,
          "duration": 0.2727269999999997
        },
        {
          "name": "C#2",
          "midi": 37,
          "time": 16.190324718750002,
          "velocity": 0.3937007874015748,
          "duration": 0.2727269999999997
        },
        {
          "name": "G#2",
          "midi": 44,
          "time": 16.84941496875,
          "velocity": 0.3937007874015748,
          "duration": 0.8181810000000027
        },
        {
          "name": "C#2",
          "midi": 37,
          "time": 16.85509678125,
          "velocity": 0.3937007874015748,
          "duration": 0.6818175000000011
        },
        {
          "name": "G#3",
          "midi": 56,
          "time": 17.208789609375003,
          "velocity": 0.3937007874015748,
          "duration": 0.6818175000000011
        },
        {
          "name": "A#3",
          "midi": 58,
          "time": 17.850834421875003,
          "velocity": 0.3937007874015748,
          "duration": 0.13636350000000164
        },
        {
          "name": "C4",
          "midi": 60,
          "time": 17.964470671875006,
          "velocity": 0.3937007874015748,
          "duration": 0.13636349999999808
        },
        {
          "name": "A#3",
          "midi": 58,
          "time": 18.134925046875004,
          "velocity": 0.3937007874015748,
          "duration": 0.6818175000000011
        },
        {
          "name": "D#2",
          "midi": 39,
          "time": 18.146288671875006,
          "velocity": 0.3937007874015748,
          "duration": 1.6363619999999983
        },
        {
          "name": "A#2",
          "midi": 46,
          "time": 18.811060734375005,
          "velocity": 0.3937007874015748,
          "duration": 0.9545445000000008
        },
        {
          "name": "D#3",
          "midi": 51,
          "time": 18.913333359375006,
          "velocity": 0.3937007874015748,
          "duration": 0.13636350000000164
        },
        {
          "name": "G#3",
          "midi": 56,
          "time": 19.015605984375007,
          "velocity": 0.3937007874015748,
          "duration": 0.13636349999999808
        },
        {
          "name": "A#3",
          "midi": 58,
          "time": 19.105094531250007,
          "velocity": 0.3937007874015748,
          "duration": 0.1377839531250018
        },
        {
          "name": "D#4",
          "midi": 63,
          "time": 19.197423984375007,
          "velocity": 0.3937007874015748,
          "duration": 2.4559634531249976
        },
        {
          "name": "A#3",
          "midi": 58,
          "time": 19.504241859375007,
          "velocity": 0.3937007874015748,
          "duration": 2.183236453124998
        },
        {
          "name": "A#2",
          "midi": 46,
          "time": 20.151968484375004,
          "velocity": 0.3937007874015748,
          "duration": 0.6832379531250012
        },
        {
          "name": "D#2",
          "midi": 39,
          "time": 20.157650296875005,
          "velocity": 0.3937007874015748,
          "duration": 1.6377824531249985
        },
        {
          "name": "D#3",
          "midi": 51,
          "time": 20.170434375000006,
          "velocity": 0.3937007874015748,
          "duration": 0.8181809999999992
        },
        {
          "name": "G3",
          "midi": 55,
          "time": 20.176116187500007,
          "velocity": 0.3937007874015748,
          "duration": 0.8181809999999992
        },
        {
          "name": "G#3",
          "midi": 56,
          "time": 22.323841312500004,
          "velocity": 0.3937007874015748,
          "duration": 0.2727269999999997
        },
        {
          "name": "A#3",
          "midi": 58,
          "time": 22.596568312500004,
          "velocity": 0.3937007874015748,
          "duration": 0.13636350000000164
        },
        {
          "name": "A#3",
          "midi": 58,
          "time": 22.890602109375006,
          "velocity": 0.3937007874015748,
          "duration": 0.13636349999999808
        },
        {
          "name": "G#2",
          "midi": 44,
          "time": 22.947420234375006,
          "velocity": 0.3937007874015748,
          "duration": 3.4090874999999983
        },
        {
          "name": "D#3",
          "midi": 51,
          "time": 22.958783859375007,
          "velocity": 0.3937007874015748,
          "duration": 0.5454539999999959
        },
        {
          "name": "C4",
          "midi": 60,
          "time": 23.009920171875006,
          "velocity": 0.3937007874015748,
          "duration": 2.727269999999997
        },
        {
          "name": "G#3",
          "midi": 56,
          "time": 23.589465046875002,
          "velocity": 0.3937007874015748,
          "duration": 0.5454539999999994
        },
        {
          "name": "D#3",
          "midi": 51,
          "time": 23.936055609375003,
          "velocity": 0.3937007874015748,
          "duration": 0.5454539999999994
        },
        {
          "name": "G#3",
          "midi": 56,
          "time": 24.589464046875,
          "velocity": 0.3937007874015748,
          "duration": 0.6818175000000011
        },
        {
          "name": "D#3",
          "midi": 51,
          "time": 24.924690984375,
          "velocity": 0.3937007874015748,
          "duration": 0.6818175000000011
        },
        {
          "name": "G#3",
          "midi": 56,
          "time": 25.697417484375002,
          "velocity": 0.3937007874015748,
          "duration": 0.13636350000000164
        },
        {
          "name": "D#3",
          "midi": 51,
          "time": 26.015598984375004,
          "velocity": 0.3937007874015748,
          "duration": 0.2727269999999997
        },
        {
          "name": "G#3",
          "midi": 56,
          "time": 26.026962609375005,
          "velocity": 0.3937007874015748,
          "duration": 0.4090904999999978
        },
        {
          "name": "A#3",
          "midi": 58,
          "time": 26.333780484375005,
          "velocity": 0.3937007874015748,
          "duration": 0.27272699999999617
        },
        {
          "name": "C4",
          "midi": 60,
          "time": 26.6533824375,
          "velocity": 0.3937007874015748,
          "duration": 0.13636350000000164
        },
        {
          "name": "C4",
          "midi": 60,
          "time": 27.0056548125,
          "velocity": 0.3937007874015748,
          "duration": 2.863633499999999
        },
        {
          "name": "C3",
          "midi": 48,
          "time": 27.02270025,
          "velocity": 0.3937007874015748,
          "duration": 0.40909050000000136
        },
        {
          "name": "G#3",
          "midi": 56,
          "time": 27.02270025,
          "velocity": 0.3937007874015748,
          "duration": 2.454543000000001
        },
        {
          "name": "F3",
          "midi": 53,
          "time": 27.02270025,
          "velocity": 0.3937007874015748,
          "duration": 2.7272700000000007
        },
        {
          "name": "F2",
          "midi": 41,
          "time": 27.0283820625,
          "velocity": 0.3937007874015748,
          "duration": 0.6818175000000011
        },
        {
          "name": "F2",
          "midi": 41,
          "time": 28.079517375000002,
          "velocity": 0.3937007874015748,
          "duration": 0.2727269999999997
        },
        {
          "name": "F2",
          "midi": 41,
          "time": 29.1420163125,
          "velocity": 0.3937007874015748,
          "duration": 0.2727269999999997
        },
        {
          "name": "G#3",
          "midi": 56,
          "time": 29.829515625,
          "velocity": 0.3937007874015748,
          "duration": 0.13636350000000164
        },
        {
          "name": "G#3",
          "midi": 56,
          "time": 30.124969875,
          "velocity": 0.3937007874015748,
          "duration": 0.40909050000000136
        },
        {
          "name": "F2",
          "midi": 41,
          "time": 30.130651687500002,
          "velocity": 0.3937007874015748,
          "duration": 0.2727269999999997
        },
        {
          "name": "A#3",
          "midi": 58,
          "time": 30.443151375000003,
          "velocity": 0.3937007874015748,
          "duration": 0.2727269999999997
        },
        {
          "name": "C4",
          "midi": 60,
          "time": 30.7670146875,
          "velocity": 0.3937007874015748,
          "duration": 0.13636350000000164
        },
        {
          "name": "A#3",
          "midi": 58,
          "time": 31.068150750000004,
          "velocity": 0.3937007874015748,
          "duration": 0.13494304687499792
        },
        {
          "name": "G#2",
          "midi": 44,
          "time": 31.090878000000004,
          "velocity": 0.3937007874015748,
          "duration": 0.5440335468749993
        },
        {
          "name": "C#2",
          "midi": 37,
          "time": 31.090878000000004,
          "velocity": 0.3937007874015748,
          "duration": 2.7258495468750112
        },
        {
          "name": "C4",
          "midi": 60,
          "time": 31.147696125000003,
          "velocity": 0.3937007874015748,
          "duration": 0.4076700468750012
        },
        {
          "name": "A#3",
          "midi": 58,
          "time": 31.424684484375003,
          "velocity": 0.3937007874015748,
          "duration": 0.4090904999999978
        },
        {
          "name": "G#3",
          "midi": 56,
          "time": 31.742865984375,
          "velocity": 0.3937007874015748,
          "duration": 0.13636350000000164
        },
        {
          "name": "G#3",
          "midi": 56,
          "time": 32.095138359375,
          "velocity": 0.3937007874015748,
          "duration": 0.4090905000000049
        },
        {
          "name": "G#2",
          "midi": 44,
          "time": 32.112183796875,
          "velocity": 0.3937007874015748,
          "duration": 0.4090905000000049
        },
        {
          "name": "G#2",
          "midi": 44,
          "time": 33.123546421875005,
          "velocity": 0.3937007874015748,
          "duration": 0.6818175000000082
        },
        {
          "name": "F3",
          "midi": 53,
          "time": 33.14485321875001,
          "velocity": 0.3937007874015748,
          "duration": 0.2727270000000033
        },
        {
          "name": "F3",
          "midi": 53,
          "time": 33.79826165625001,
          "velocity": 0.3937007874015748,
          "duration": 0.1377839531250018
        },
        {
          "name": "C#3",
          "midi": 49,
          "time": 34.14059085937502,
          "velocity": 0.3937007874015748,
          "duration": 0.5468744531249996
        },
        {
          "name": "G#3",
          "midi": 56,
          "time": 34.15337493750002,
          "velocity": 0.3937007874015748,
          "duration": 0.2727270000000033
        },
        {
          "name": "F3",
          "midi": 53,
          "time": 34.46587462500002,
          "velocity": 0.3937007874015748,
          "duration": 0.27272699999999617
        },
        {
          "name": "G#3",
          "midi": 56,
          "time": 34.77837431250001,
          "velocity": 0.3937007874015748,
          "duration": 0.2727270000000033
        },
        {
          "name": "A#2",
          "midi": 46,
          "time": 35.113601250000016,
          "velocity": 0.3937007874015748,
          "duration": 0.9545444999999972
        },
        {
          "name": "G3",
          "midi": 55,
          "time": 35.11928306250002,
          "velocity": 0.3937007874015748,
          "duration": 0.5454539999999994
        },
        {
          "name": "D#2",
          "midi": 39,
          "time": 35.12496487500002,
          "velocity": 0.3937007874015748,
          "duration": 1.0909079999999989
        },
        {
          "name": "G3",
          "midi": 55,
          "time": 36.130645687500014,
          "velocity": 0.3937007874015748,
          "duration": 0.13636350000000164
        },
        {
          "name": "D#3",
          "midi": 51,
          "time": 36.130645687500014,
          "velocity": 0.3937007874015748,
          "duration": 0.13636350000000164
        },
        {
          "name": "D#4",
          "midi": 63,
          "time": 37.113599250000014,
          "velocity": 0.3937007874015748,
          "duration": 0.13636350000000164
        },
        {
          "name": "D#2",
          "midi": 39,
          "time": 37.119281062500015,
          "velocity": 0.3937007874015748,
          "duration": 0.13636350000000164
        },
        {
          "name": "D#4",
          "midi": 63,
          "time": 37.44314437500002,
          "velocity": 0.3937007874015748,
          "duration": 0.13636350000000164
        },
        {
          "name": "D#4",
          "midi": 63,
          "time": 37.75564406250002,
          "velocity": 0.3937007874015748,
          "duration": 0.4090904999999978
        },
        {
          "name": "F4",
          "midi": 65,
          "time": 38.103655078125016,
          "velocity": 0.3937007874015748,
          "duration": 0.2727270000000033
        },
        {
          "name": "C4",
          "midi": 60,
          "time": 38.44456382812502,
          "velocity": 0.3937007874015748,
          "duration": 0.2727270000000033
        },
        {
          "name": "A#3",
          "midi": 58,
          "time": 38.785472578125024,
          "velocity": 0.3937007874015748,
          "duration": 0.13636350000000164
        },
        {
          "name": "A#3",
          "midi": 58,
          "time": 39.08518818750002,
          "velocity": 0.3937007874015748,
          "duration": 0.13636349999999453
        },
        {
          "name": "G#2",
          "midi": 44,
          "time": 39.12638132812502,
          "velocity": 0.3937007874015748,
          "duration": 0.6803970468750009
        },
        {
          "name": "C4",
          "midi": 60,
          "time": 39.18746081250002,
          "velocity": 0.3937007874015748,
          "duration": 0.27272699999999617
        },
        {
          "name": "A#3",
          "midi": 58,
          "time": 39.46018781250002,
          "velocity": 0.3937007874015748,
          "duration": 0.40767004687500474
        },
        {
          "name": "G#3",
          "midi": 56,
          "time": 39.78405112500002,
          "velocity": 0.3937007874015748,
          "duration": 1.9076685468750014
        },
        {
          "name": "G#2",
          "midi": 44,
          "time": 40.17467573437502,
          "velocity": 0.3937007874015748,
          "duration": 0.2727270000000033
        },
        {
          "name": "G#2",
          "midi": 44,
          "time": 40.85649323437502,
          "velocity": 0.3937007874015748,
          "duration": 0.13636350000000164
        },
        {
          "name": "G#2",
          "midi": 44,
          "time": 41.22012923437502,
          "velocity": 0.3937007874015748,
          "duration": 0.4090904999999978
        },
        {
          "name": "G#2",
          "midi": 44,
          "time": 41.89058310937502,
          "velocity": 0.3937007874015748,
          "duration": 0.4090904999999978
        },
        {
          "name": "G#3",
          "midi": 56,
          "time": 42.23149185937502,
          "velocity": 0.3937007874015748,
          "duration": 0.5454539999999994
        },
        {
          "name": "A#3",
          "midi": 58,
          "time": 42.54967335937502,
          "velocity": 0.3937007874015748,
          "duration": 0.27272699999999617
        },
        {
          "name": "G#3",
          "midi": 56,
          "time": 43.20876360937502,
          "velocity": 0.3937007874015748,
          "duration": 3.004258359375008
        },
        {
          "name": "C4",
          "midi": 60,
          "time": 43.22154768750002,
          "velocity": 0.3937007874015748,
          "duration": 2.8664744062500063
        },
        {
          "name": "F3",
          "midi": 53,
          "time": 43.23291131250002,
          "velocity": 0.3937007874015748,
          "duration": 2.8664744062500063
        },
        {
          "name": "C3",
          "midi": 48,
          "time": 43.24427493750002,
          "velocity": 0.3937007874015748,
          "duration": 0.4090904999999978
        },
        {
          "name": "F2",
          "midi": 41,
          "time": 43.251377203125024,
          "velocity": 0.3937007874015748,
          "duration": 0.4090904999999978
        },
        {
          "name": "F2",
          "midi": 41,
          "time": 44.28546707812502,
          "velocity": 0.3937007874015748,
          "duration": 0.2727270000000033
        },
        {
          "name": "F2",
          "midi": 41,
          "time": 44.978648203125026,
          "velocity": 0.3937007874015748,
          "duration": 0.13636350000000164
        },
        {
          "name": "F2",
          "midi": 41,
          "time": 45.35364782812503,
          "velocity": 0.3937007874015748,
          "duration": 0.2727270000000033
        },
        {
          "name": "F2",
          "midi": 41,
          "time": 46.04824940625003,
          "velocity": 0.3937007874015748,
          "duration": 0.4090904999999978
        },
        {
          "name": "G#3",
          "midi": 56,
          "time": 46.372112718750024,
          "velocity": 0.3937007874015748,
          "duration": 0.4090905000000049
        },
        {
          "name": "A#3",
          "midi": 58,
          "time": 46.69597603125003,
          "velocity": 0.3937007874015748,
          "duration": 0.2727270000000033
        },
        {
          "name": "F2",
          "midi": 41,
          "time": 46.71302146875003,
          "velocity": 0.3937007874015748,
          "duration": 0.13636350000000164
        },
        {
          "name": "C4",
          "midi": 60,
          "time": 47.01983934375003,
          "velocity": 0.3937007874015748,
          "duration": 0.13636350000000164
        },
        {
          "name": "C#2",
          "midi": 37,
          "time": 47.34370265625003,
          "velocity": 0.3937007874015748,
          "duration": 0.4090905000000049
        },
        {
          "name": "G#2",
          "midi": 44,
          "time": 47.35506628125003,
          "velocity": 0.3937007874015748,
          "duration": 0.5454540000000065
        },
        {
          "name": "C4",
          "midi": 60,
          "time": 47.36074809375003,
          "velocity": 0.3937007874015748,
          "duration": 0.4090905000000049
        },
        {
          "name": "F3",
          "midi": 53,
          "time": 47.377793531250035,
          "velocity": 0.3937007874015748,
          "duration": 0.4090905000000049
        },
        {
          "name": "A#3",
          "midi": 58,
          "time": 47.70165684375004,
          "velocity": 0.3937007874015748,
          "duration": 0.4090905000000049
        },
        {
          "name": "G#3",
          "midi": 56,
          "time": 48.34938346875004,
          "velocity": 0.3937007874015748,
          "duration": 0.5454539999999994
        },
        {
          "name": "C#2",
          "midi": 37,
          "time": 48.35506528125004,
          "velocity": 0.3937007874015748,
          "duration": 0.4090904999999978
        },
        {
          "name": "F3",
          "midi": 53,
          "time": 49.38347334375004,
          "velocity": 0.3937007874015748,
          "duration": 0.4090904999999978
        },
        {
          "name": "C#2",
          "midi": 37,
          "time": 49.39057560937504,
          "velocity": 0.3937007874015748,
          "duration": 0.681817499999994
        },
        {
          "name": "C#2",
          "midi": 37,
          "time": 50.41898367187503,
          "velocity": 0.3937007874015748,
          "duration": 0.5440335468750064
        },
        {
          "name": "G#3",
          "midi": 56,
          "time": 50.440290468750035,
          "velocity": 0.3937007874015748,
          "duration": 0.2727270000000033
        },
        {
          "name": "F3",
          "midi": 53,
          "time": 50.77551740625004,
          "velocity": 0.3937007874015748,
          "duration": 0.2727270000000033
        },
        {
          "name": "G#3",
          "midi": 56,
          "time": 51.08233528125004,
          "velocity": 0.3937007874015748,
          "duration": 0.13636350000000164
        },
        {
          "name": "D#2",
          "midi": 39,
          "time": 51.43602810937504,
          "velocity": 0.3937007874015748,
          "duration": 3.1377809531250165
        },
        {
          "name": "D#3",
          "midi": 51,
          "time": 51.44170992187504,
          "velocity": 0.3937007874015748,
          "duration": 0.6818175000000011
        },
        {
          "name": "A#2",
          "midi": 46,
          "time": 51.44739173437504,
          "velocity": 0.3937007874015748,
          "duration": 0.4090904999999978
        },
        {
          "name": "G3",
          "midi": 55,
          "time": 51.44739173437504,
          "velocity": 0.3937007874015748,
          "duration": 0.6818175000000011
        },
        {
          "name": "A#2",
          "midi": 46,
          "time": 52.15193648437504,
          "velocity": 0.3937007874015748,
          "duration": 0.5454539999999994
        },
        {
          "name": "G3",
          "midi": 55,
          "time": 52.49852704687504,
          "velocity": 0.3937007874015748,
          "duration": 0.5454539999999994
        },
        {
          "name": "D#3",
          "midi": 51,
          "time": 52.50420885937504,
          "velocity": 0.3937007874015748,
          "duration": 0.5454539999999994
        },
        {
          "name": "A#2",
          "midi": 46,
          "time": 53.19738998437504,
          "velocity": 0.3937007874015748,
          "duration": 0.6818175000000082
        },
        {
          "name": "G3",
          "midi": 55,
          "time": 53.53261692187505,
          "velocity": 0.3937007874015748,
          "duration": 0.13636350000000164
        },
        {
          "name": "G#3",
          "midi": 56,
          "time": 54.19170717187505,
          "velocity": 0.3937007874015748,
          "duration": 0.13636350000000164
        },
        {
          "name": "G#3",
          "midi": 56,
          "time": 54.532615921875056,
          "velocity": 0.3937007874015748,
          "duration": 0.6832379531250012
        },
        {
          "name": "A#3",
          "midi": 58,
          "time": 54.880626937500054,
          "velocity": 0.3937007874015748,
          "duration": 0.4105109531250051
        },
        {
          "name": "C4",
          "midi": 60,
          "time": 55.204490250000056,
          "velocity": 0.3937007874015748,
          "duration": 0.27414745312500344
        },
        {
          "name": "A#3",
          "midi": 58,
          "time": 55.48431951562506,
          "velocity": 0.3937007874015748,
          "duration": 0.13636350000000164
        },
        {
          "name": "G#1",
          "midi": 32,
          "time": 55.53119446875006,
          "velocity": 0.3937007874015748,
          "duration": 0.6832379531250083
        },
        {
          "name": "C4",
          "midi": 60,
          "time": 55.59937621875006,
          "velocity": 0.3937007874015748,
          "duration": 0.2727270000000033
        },
        {
          "name": "A#3",
          "midi": 58,
          "time": 55.889148656250065,
          "velocity": 0.3937007874015748,
          "duration": 0.4105109531250051
        },
        {
          "name": "G#3",
          "midi": 56,
          "time": 56.207330156250066,
          "velocity": 0.3937007874015748,
          "duration": 0.6832379531250083
        },
        {
          "name": "G#2",
          "midi": 44,
          "time": 56.56670479687507,
          "velocity": 0.3937007874015748,
          "duration": 0.13636350000000164
        },
        {
          "name": "G#3",
          "midi": 56,
          "time": 57.59511285937507,
          "velocity": 0.3937007874015748,
          "duration": 0.4090904999999978
        },
        {
          "name": "G#2",
          "midi": 44,
          "time": 57.60647648437507,
          "velocity": 0.3937007874015748,
          "duration": 0.681817499999994
        },
        {
          "name": "G#2",
          "midi": 44,
          "time": 58.67039587500007,
          "velocity": 0.3937007874015748,
          "duration": 0.4090904999999978
        },
        {
          "name": "G#3",
          "midi": 56,
          "time": 58.67607768750007,
          "velocity": 0.3937007874015748,
          "duration": 0.6818175000000011
        },
        {
          "name": "A#3",
          "midi": 58,
          "time": 59.34511110937507,
          "velocity": 0.3937007874015748,
          "duration": 0.1377839531250018
        },
        {
          "name": "C4",
          "midi": 60,
          "time": 59.43744056250007,
          "velocity": 0.3937007874015748,
          "duration": 0.13636350000000164
        },
        {
          "name": "G#3",
          "midi": 56,
          "time": 59.653349437500076,
          "velocity": 0.3937007874015748,
          "duration": 0.6818175000000011
        },
        {
          "name": "F2",
          "midi": 41,
          "time": 59.653349437500076,
          "velocity": 0.3937007874015748,
          "duration": 1.2286919531250078
        },
        {
          "name": "C4",
          "midi": 60,
          "time": 59.66045170312508,
          "velocity": 0.3937007874015748,
          "duration": 0.6818175000000011
        },
        {
          "name": "F3",
          "midi": 53,
          "time": 59.66613351562508,
          "velocity": 0.3937007874015748,
          "duration": 0.6818175000000011
        },
        {
          "name": "G#3",
          "midi": 56,
          "time": 60.71726882812508,
          "velocity": 0.3937007874015748,
          "duration": 0.6832379531250083
        },
        {
          "name": "C4",
          "midi": 60,
          "time": 60.72295064062508,
          "velocity": 0.3937007874015748,
          "duration": 0.5468744531250067
        },
        {
          "name": "F3",
          "midi": 53,
          "time": 60.73431426562508,
          "velocity": 0.3937007874015748,
          "duration": 0.5468744531250067
        },
        {
          "name": "F2",
          "midi": 41,
          "time": 61.41755221875009,
          "velocity": 0.3937007874015748,
          "duration": 0.9545444999999972
        },
        {
          "name": "C4",
          "midi": 60,
          "time": 61.758460968750086,
          "velocity": 0.3937007874015748,
          "duration": 0.6818175000000011
        },
        {
          "name": "G#3",
          "midi": 56,
          "time": 61.76414278125009,
          "velocity": 0.3937007874015748,
          "duration": 0.6818175000000011
        },
        {
          "name": "F3",
          "midi": 53,
          "time": 61.78118821875009,
          "velocity": 0.3937007874015748,
          "duration": 0.6818175000000011
        },
        {
          "name": "G#3",
          "midi": 56,
          "time": 62.84936896875009,
          "velocity": 0.3937007874015748,
          "duration": 0.4090904999999978
        },
        {
          "name": "F2",
          "midi": 41,
          "time": 62.85505078125009,
          "velocity": 0.3937007874015748,
          "duration": 0.4090904999999978
        },
        {
          "name": "A#3",
          "midi": 58,
          "time": 63.19595953125009,
          "velocity": 0.3937007874015748,
          "duration": 0.2727270000000033
        },
        {
          "name": "C4",
          "midi": 60,
          "time": 63.50277740625009,
          "velocity": 0.3937007874015748,
          "duration": 0.13636350000000164
        },
        {
          "name": "C#2",
          "midi": 37,
          "time": 63.843686156250094,
          "velocity": 0.3937007874015748,
          "duration": 3.545451000000007
        },
        {
          "name": "C#4",
          "midi": 61,
          "time": 63.849367968750094,
          "velocity": 0.3937007874015748,
          "duration": 0.8181810000000027
        },
        {
          "name": "G#3",
          "midi": 56,
          "time": 63.856470234375095,
          "velocity": 0.3937007874015748,
          "duration": 0.6818175000000082
        },
        {
          "name": "F3",
          "midi": 53,
          "time": 63.862152046875096,
          "velocity": 0.3937007874015748,
          "duration": 0.5454540000000065
        },
        {
          "name": "G#2",
          "midi": 44,
          "time": 64.1519244843751,
          "velocity": 0.3937007874015748,
          "duration": 3.2713035468750036
        },
        {
          "name": "C#3",
          "midi": 49,
          "time": 64.4630037187501,
          "velocity": 0.3937007874015748,
          "duration": 0.5454539999999923
        },
        {
          "name": "C4",
          "midi": 60,
          "time": 64.85504878125009,
          "velocity": 0.3937007874015748,
          "duration": 0.6818175000000082
        },
        {
          "name": "F3",
          "midi": 53,
          "time": 64.87209421875009,
          "velocity": 0.3937007874015748,
          "duration": 0.5454540000000065
        },
        {
          "name": "C#3",
          "midi": 49,
          "time": 65.5823207812501,
          "velocity": 0.3937007874015748,
          "duration": 0.681817499999994
        },
        {
          "name": "G#3",
          "midi": 56,
          "time": 65.9175477187501,
          "velocity": 0.3937007874015748,
          "duration": 0.5454539999999923
        },
        {
          "name": "F3",
          "midi": 53,
          "time": 65.9232295312501,
          "velocity": 0.3937007874015748,
          "duration": 0.5454539999999923
        },
        {
          "name": "F3",
          "midi": 53,
          "time": 66.9630012187501,
          "velocity": 0.3937007874015748,
          "duration": 0.2727270000000033
        },
        {
          "name": "C#3",
          "midi": 49,
          "time": 66.9630012187501,
          "velocity": 0.3937007874015748,
          "duration": 0.4090905000000049
        },
        {
          "name": "G#3",
          "midi": 56,
          "time": 67.2755009062501,
          "velocity": 0.3937007874015748,
          "duration": 0.2727270000000033
        },
        {
          "name": "A#2",
          "midi": 46,
          "time": 67.94595478125011,
          "velocity": 0.3937007874015748,
          "duration": 0.681817499999994
        },
        {
          "name": "D#3",
          "midi": 51,
          "time": 67.95163659375011,
          "velocity": 0.3937007874015748,
          "duration": 0.681817499999994
        },
        {
          "name": "D#2",
          "midi": 39,
          "time": 67.95163659375011,
          "velocity": 0.3937007874015748,
          "duration": 0.681817499999994
        },
        {
          "name": "G3",
          "midi": 55,
          "time": 67.95163659375011,
          "velocity": 0.3937007874015748,
          "duration": 0.681817499999994
        },
        {
          "name": "G3",
          "midi": 55,
          "time": 69.0297605156251,
          "velocity": 0.3937007874015748,
          "duration": 0.13636349999998743
        },
        {
          "name": "A#2",
          "midi": 46,
          "time": 69.0297605156251,
          "velocity": 0.3937007874015748,
          "duration": 0.27272699999997485
        },
        {
          "name": "D#2",
          "midi": 39,
          "time": 69.0297605156251,
          "velocity": 0.3937007874015748,
          "duration": 0.6818174999999798
        },
        {
          "name": "D#3",
          "midi": 51,
          "time": 69.0425445937501,
          "velocity": 0.3937007874015748,
          "duration": 0.13636349999998743
        },
        {
          "name": "A#2",
          "midi": 46,
          "time": 69.72862345312508,
          "velocity": 0.3937007874015748,
          "duration": 0.2727270000000033
        },
        {
          "name": "D#4",
          "midi": 63,
          "time": 70.09794126562508,
          "velocity": 0.3937007874015748,
          "duration": 1.0909079999999989
        },
        {
          "name": "A#3",
          "midi": 58,
          "time": 71.14907657812508,
          "velocity": 0.3937007874015748,
          "duration": 0.1377839531250089
        },
        {
          "name": "C4",
          "midi": 60,
          "time": 71.23998557812509,
          "velocity": 0.3937007874015748,
          "duration": 0.2727270000000033
        },
        {
          "name": "A#3",
          "midi": 58,
          "time": 71.5468034531251,
          "velocity": 0.3937007874015748,
          "duration": 0.2727270000000033
        },
        {
          "name": "F2",
          "midi": 41,
          "time": 72.20731415625009,
          "velocity": 0.3937007874015748,
          "duration": 0.9545445000000115
        },
        {
          "name": "G#3",
          "midi": 56,
          "time": 72.20731415625009,
          "velocity": 0.3937007874015748,
          "duration": 1.090908000000013
        },
        {
          "name": "C3",
          "midi": 48,
          "time": 72.8607225937501,
          "velocity": 0.3937007874015748,
          "duration": 0.2727270000000033
        },
        {
          "name": "F3",
          "midi": 53,
          "time": 73.1675404687501,
          "velocity": 0.3937007874015748,
          "duration": 0.2727270000000033
        },
        {
          "name": "G#3",
          "midi": 56,
          "time": 73.49140378125011,
          "velocity": 0.3937007874015748,
          "duration": 0.2727270000000033
        },
        {
          "name": "G#4",
          "midi": 68,
          "time": 74.09935771875011,
          "velocity": 0.3937007874015748,
          "duration": 0.5454540000000065
        },
        {
          "name": "C#2",
          "midi": 37,
          "time": 74.11072134375011,
          "velocity": 0.3937007874015748,
          "duration": 0.681817499999994
        },
        {
          "name": "G#2",
          "midi": 44,
          "time": 74.71299346875011,
          "velocity": 0.3937007874015748,
          "duration": 0.13636350000000164
        },
        {
          "name": "G4",
          "midi": 67,
          "time": 74.71867528125011,
          "velocity": 0.3937007874015748,
          "duration": 0.2727270000000033
        },
        {
          "name": "F3",
          "midi": 53,
          "time": 75.03117496875012,
          "velocity": 0.3937007874015748,
          "duration": 0.13636349999998743
        },
        {
          "name": "F4",
          "midi": 65,
          "time": 75.03827723437512,
          "velocity": 0.3937007874015748,
          "duration": 0.5454539999999923
        },
        {
          "name": "D#4",
          "midi": 63,
          "time": 75.6689584218751,
          "velocity": 0.3937007874015748,
          "duration": 0.2727270000000033
        },
        {
          "name": "G#2",
          "midi": 44,
          "time": 75.98713992187511,
          "velocity": 0.3937007874015748,
          "duration": 0.5454540000000065
        },
        {
          "name": "C4",
          "midi": 60,
          "time": 75.98713992187511,
          "velocity": 0.3937007874015748,
          "duration": 0.8181810000000098
        },
        {
          "name": "D#3",
          "midi": 51,
          "time": 76.30674187500011,
          "velocity": 0.3937007874015748,
          "duration": 0.2727270000000033
        },
        {
          "name": "G#3",
          "midi": 56,
          "time": 76.61355975000012,
          "velocity": 0.3937007874015748,
          "duration": 0.2727270000000033
        },
        {
          "name": "C4",
          "midi": 60,
          "time": 76.97151393750012,
          "velocity": 0.3937007874015748,
          "duration": 0.2727270000000033
        },
        {
          "name": "D#3",
          "midi": 51,
          "time": 77.28401362500013,
          "velocity": 0.3937007874015748,
          "duration": 0.2727270000000033
        },
        {
          "name": "C4",
          "midi": 60,
          "time": 77.57946787500013,
          "velocity": 0.3937007874015748,
          "duration": 0.13636350000000164
        },
        {
          "name": "D#2",
          "midi": 39,
          "time": 77.89764937500014,
          "velocity": 0.3937007874015748,
          "duration": 0.5468744531249996
        },
        {
          "name": "D#4",
          "midi": 63,
          "time": 77.90475164062514,
          "velocity": 0.3937007874015748,
          "duration": 0.6832379531250012
        },
        {
          "name": "A#2",
          "midi": 46,
          "time": 78.19452407812514,
          "velocity": 0.3937007874015748,
          "duration": 0.41051095312499797
        },
        {
          "name": "C#4",
          "midi": 61,
          "time": 78.49139878125014,
          "velocity": 0.3937007874015748,
          "duration": 0.4090904999999907
        },
        {
          "name": "D#3",
          "midi": 51,
          "time": 78.82662571875014,
          "velocity": 0.3937007874015748,
          "duration": 0.41051095312499797
        },
        {
          "name": "C4",
          "midi": 60,
          "time": 78.83230753125014,
          "velocity": 0.3937007874015748,
          "duration": 0.13636349999998743
        },
        {
          "name": "A#3",
          "midi": 58,
          "time": 79.12207996875013,
          "velocity": 0.3937007874015748,
          "duration": 0.13636350000000164
        },
        {
          "name": "A#3",
          "midi": 58,
          "time": 79.43457965625014,
          "velocity": 0.3937007874015748,
          "duration": 0.13636350000000164
        },
        {
          "name": "A#3",
          "midi": 58,
          "time": 79.74849979687514,
          "velocity": 0.3937007874015748,
          "duration": 0.2727270000000033
        },
        {
          "name": "F2",
          "midi": 41,
          "time": 79.75418160937514,
          "velocity": 0.3937007874015748,
          "duration": 0.9559649531250187
        },
        {
          "name": "C4",
          "midi": 60,
          "time": 80.06099948437515,
          "velocity": 0.3937007874015748,
          "duration": 0.2727270000000033
        },
        {
          "name": "G#3",
          "midi": 56,
          "time": 80.35077192187515,
          "velocity": 0.3937007874015748,
          "duration": 0.5468744531249996
        },
        {
          "name": "C3",
          "midi": 48,
          "time": 80.67037387500015,
          "velocity": 0.3937007874015748,
          "duration": 0.27414745312499633
        },
        {
          "name": "F3",
          "midi": 53,
          "time": 80.94452132812515,
          "velocity": 0.3937007874015748,
          "duration": 0.13636350000000164
        },
        {
          "name": "G#3",
          "midi": 56,
          "time": 81.24423693750015,
          "velocity": 0.3937007874015748,
          "duration": 0.681817499999994
        },
        {
          "name": "C#2",
          "midi": 37,
          "time": 81.57378206250014,
          "velocity": 0.3937007874015748,
          "duration": 0.4090905000000049
        },
        {
          "name": "G#4",
          "midi": 68,
          "time": 81.57946387500014,
          "velocity": 0.3937007874015748,
          "duration": 0.4090905000000049
        },
        {
          "name": "G#2",
          "midi": 44,
          "time": 81.84650906250015,
          "velocity": 0.3937007874015748,
          "duration": 0.13636350000000164
        },
        {
          "name": "G4",
          "midi": 67,
          "time": 82.14196331250015,
          "velocity": 0.3937007874015748,
          "duration": 0.2727270000000033
        },
        {
          "name": "F4",
          "midi": 65,
          "time": 82.47008798437516,
          "velocity": 0.3937007874015748,
          "duration": 0.6832379531250012
        },
        {
          "name": "F3",
          "midi": 53,
          "time": 82.48287206250015,
          "velocity": 0.3937007874015748,
          "duration": 0.5454540000000065
        },
        {
          "name": "D#4",
          "midi": 63,
          "time": 83.06809875000016,
          "velocity": 0.3937007874015748,
          "duration": 0.27272699999998906
        },
        {
          "name": "G#2",
          "midi": 44,
          "time": 83.35787118750015,
          "velocity": 0.3937007874015748,
          "duration": 0.5454540000000065
        },
        {
          "name": "C4",
          "midi": 60,
          "time": 83.37491662500015,
          "velocity": 0.3937007874015748,
          "duration": 0.681817499999994
        },
        {
          "name": "D#3",
          "midi": 51,
          "time": 83.64764362500016,
          "velocity": 0.3937007874015748,
          "duration": 0.2727270000000033
        },
        {
          "name": "G#3",
          "midi": 56,
          "time": 83.99423418750015,
          "velocity": 0.3937007874015748,
          "duration": 0.27272699999998906
        },
        {
          "name": "C4",
          "midi": 60,
          "time": 84.32377931250015,
          "velocity": 0.3937007874015748,
          "duration": 0.2727270000000033
        },
        {
          "name": "D#3",
          "midi": 51,
          "time": 84.63059718750016,
          "velocity": 0.3937007874015748,
          "duration": 0.2727270000000033
        },
        {
          "name": "C4",
          "midi": 60,
          "time": 84.92463098437516,
          "velocity": 0.3937007874015748,
          "duration": 0.2727270000000033
        },
        {
          "name": "D#4",
          "midi": 63,
          "time": 85.25985792187515,
          "velocity": 0.3937007874015748,
          "duration": 0.13636350000000164
        },
        {
          "name": "D#2",
          "midi": 39,
          "time": 85.26553973437515,
          "velocity": 0.3937007874015748,
          "duration": 0.9545445000000115
        },
        {
          "name": "D#4",
          "midi": 63,
          "time": 85.53826673437516,
          "velocity": 0.3937007874015748,
          "duration": 0.13636350000000164
        },
        {
          "name": "D#4",
          "midi": 63,
          "time": 85.83940279687516,
          "velocity": 0.3937007874015748,
          "duration": 0.2727270000000033
        },
        {
          "name": "F4",
          "midi": 65,
          "time": 86.18031154687516,
          "velocity": 0.3937007874015748,
          "duration": 0.4090905000000049
        },
        {
          "name": "C4",
          "midi": 60,
          "time": 86.45872035937516,
          "velocity": 0.3937007874015748,
          "duration": 0.13636350000000164
        },
        {
          "name": "C4",
          "midi": 60,
          "time": 86.76553823437517,
          "velocity": 0.3937007874015748,
          "duration": 0.13636350000000164
        },
        {
          "name": "C4",
          "midi": 60,
          "time": 87.05531067187518,
          "velocity": 0.3937007874015748,
          "duration": 0.2727270000000033
        },
        {
          "name": "F2",
          "midi": 41,
          "time": 87.07235610937518,
          "velocity": 0.3937007874015748,
          "duration": 0.5454540000000065
        },
        {
          "name": "A#3",
          "midi": 58,
          "time": 87.37349217187518,
          "velocity": 0.3937007874015748,
          "duration": 0.2727270000000033
        },
        {
          "name": "G#3",
          "midi": 56,
          "time": 87.67462823437519,
          "velocity": 0.3937007874015748,
          "duration": 0.5454539999999923
        },
        {
          "name": "F3",
          "midi": 53,
          "time": 88.00417335937519,
          "velocity": 0.3937007874015748,
          "duration": 0.13636350000000164
        },
        {
          "name": "C3",
          "midi": 48,
          "time": 88.29962760937518,
          "velocity": 0.3937007874015748,
          "duration": 0.13636350000000164
        },
        {
          "name": "G#3",
          "midi": 56,
          "time": 88.61354775000018,
          "velocity": 0.3937007874015748,
          "duration": 0.13636350000000164
        },
        {
          "name": "C#2",
          "midi": 37,
          "time": 88.93741106250017,
          "velocity": 0.3937007874015748,
          "duration": 0.2727270000000033
        },
        {
          "name": "G#4",
          "midi": 68,
          "time": 88.93741106250017,
          "velocity": 0.3937007874015748,
          "duration": 0.4090905000000049
        },
        {
          "name": "G#2",
          "midi": 44,
          "time": 89.21581987500018,
          "velocity": 0.3937007874015748,
          "duration": 0.13636350000000164
        },
        {
          "name": "G4",
          "midi": 67,
          "time": 89.52831956250019,
          "velocity": 0.3937007874015748,
          "duration": 0.2727270000000033
        },
        {
          "name": "F4",
          "midi": 65,
          "time": 89.8521828750002,
          "velocity": 0.3937007874015748,
          "duration": 0.681817499999994
        },
        {
          "name": "F3",
          "midi": 53,
          "time": 89.8578646875002,
          "velocity": 0.3937007874015748,
          "duration": 0.681817499999994
        },
        {
          "name": "D#4",
          "midi": 63,
          "time": 90.4715004375002,
          "velocity": 0.3937007874015748,
          "duration": 0.27272699999998906
        },
        {
          "name": "G#2",
          "midi": 44,
          "time": 90.78400012500019,
          "velocity": 0.3937007874015748,
          "duration": 0.4090904999999907
        },
        {
          "name": "C4",
          "midi": 60,
          "time": 90.78400012500019,
          "velocity": 0.3937007874015748,
          "duration": 0.6803970468749725
        },
        {
          "name": "D#3",
          "midi": 51,
          "time": 91.10786343750019,
          "velocity": 0.3937007874015748,
          "duration": 0.27272699999998906
        },
        {
          "name": "G#3",
          "midi": 56,
          "time": 91.40189723437517,
          "velocity": 0.3937007874015748,
          "duration": 0.4090904999999907
        },
        {
          "name": "C4",
          "midi": 60,
          "time": 91.70871510937516,
          "velocity": 0.3937007874015748,
          "duration": 0.4090904999999907
        },
        {
          "name": "D#3",
          "midi": 51,
          "time": 92.32945312500016,
          "velocity": 0.3937007874015748,
          "duration": 0.13636350000000164
        },
        {
          "name": "C4",
          "midi": 60,
          "time": 92.33513493750016,
          "velocity": 0.3937007874015748,
          "duration": 0.13636350000000164
        },
        {
          "name": "D#4",
          "midi": 63,
          "time": 92.65899825000015,
          "velocity": 0.3937007874015748,
          "duration": 0.8181810000000098
        },
        {
          "name": "D#2",
          "midi": 39,
          "time": 92.66468006250015,
          "velocity": 0.3937007874015748,
          "duration": 1.3622145468749949
        },
        {
          "name": "A#2",
          "midi": 46,
          "time": 92.93172525000016,
          "velocity": 0.3937007874015748,
          "duration": 0.681817499999994
        },
        {
          "name": "C#4",
          "midi": 61,
          "time": 93.22149768750016,
          "velocity": 0.3937007874015748,
          "duration": 0.4090904999999907
        },
        {
          "name": "C4",
          "midi": 60,
          "time": 93.55104281250016,
          "velocity": 0.3937007874015748,
          "duration": 0.13494304687499437
        },
        {
          "name": "D#3",
          "midi": 51,
          "time": 93.55814507812515,
          "velocity": 0.3937007874015748,
          "duration": 0.40767004687499764
        },
        {
          "name": "A#3",
          "midi": 58,
          "time": 93.83513343750015,
          "velocity": 0.3937007874015748,
          "duration": 0.13636350000000164
        },
        {
          "name": "A#3",
          "midi": 58,
          "time": 94.12916723437515,
          "velocity": 0.3937007874015748,
          "duration": 0.13636350000000164
        },
        {
          "name": "A#3",
          "midi": 58,
          "time": 94.43598510937515,
          "velocity": 0.3937007874015748,
          "duration": 0.27272699999998906
        },
        {
          "name": "F2",
          "midi": 41,
          "time": 94.44876918750015,
          "velocity": 0.3937007874015748,
          "duration": 0.6803970468750009
        },
        {
          "name": "C4",
          "midi": 60,
          "time": 94.72575754687514,
          "velocity": 0.3937007874015748,
          "duration": 0.2727270000000033
        },
        {
          "name": "G#3",
          "midi": 56,
          "time": 95.04393904687515,
          "velocity": 0.3937007874015748,
          "duration": 0.13636350000000164
        },
        {
          "name": "G#3",
          "midi": 56,
          "time": 95.36780235937515,
          "velocity": 0.3937007874015748,
          "duration": 0.13636350000000164
        },
        {
          "name": "C3",
          "midi": 48,
          "time": 95.37348417187515,
          "velocity": 0.3937007874015748,
          "duration": 0.13636350000000164
        },
        {
          "name": "C#4",
          "midi": 61,
          "time": 96.34507410937515,
          "velocity": 0.3937007874015748,
          "duration": 0.6832379531250012
        },
        {
          "name": "C#2",
          "midi": 37,
          "time": 96.35785818750014,
          "velocity": 0.3937007874015748,
          "duration": 0.8196014531250029
        },
        {
          "name": "G#2",
          "midi": 44,
          "time": 96.37490362500014,
          "velocity": 0.3937007874015748,
          "duration": 0.5454540000000065
        },
        {
          "name": "C#3",
          "midi": 49,
          "time": 97.30103906250014,
          "velocity": 0.3937007874015748,
          "duration": 0.13636350000000164
        },
        {
          "name": "C4",
          "midi": 60,
          "time": 97.31808450000014,
          "velocity": 0.3937007874015748,
          "duration": 0.13636350000000164
        },
        {
          "name": "G#3",
          "midi": 56,
          "time": 98.01694743750014,
          "velocity": 0.3937007874015748,
          "duration": 0.13636350000000164
        },
        {
          "name": "A#3",
          "midi": 58,
          "time": 98.16609501562513,
          "velocity": 0.3937007874015748,
          "duration": 0.13636350000000164
        },
        {
          "name": "A#3",
          "midi": 58,
          "time": 98.31382214062513,
          "velocity": 0.3937007874015748,
          "duration": 0.13636349999998743
        },
        {
          "name": "D#3",
          "midi": 51,
          "time": 98.37632207812513,
          "velocity": 0.3937007874015748,
          "duration": 0.5454539999999923
        },
        {
          "name": "G#2",
          "midi": 44,
          "time": 98.37632207812513,
          "velocity": 0.3937007874015748,
          "duration": 1.2272715000000005
        },
        {
          "name": "C4",
          "midi": 60,
          "time": 98.46723107812512,
          "velocity": 0.3937007874015748,
          "duration": 0.8181809999999956
        },
        {
          "name": "A#3",
          "midi": 58,
          "time": 99.33654839062513,
          "velocity": 0.3937007874015748,
          "duration": 0.2727270000000033
        },
        {
          "name": "D#3",
          "midi": 51,
          "time": 99.37063926562513,
          "velocity": 0.3937007874015748,
          "duration": 0.13636350000000164
        },
        {
          "name": "C#4",
          "midi": 61,
          "time": 100.32518376562513,
          "velocity": 0.3937007874015748,
          "duration": 0.681817499999994
        },
        {
          "name": "D#2",
          "midi": 39,
          "time": 100.32518376562513,
          "velocity": 0.3937007874015748,
          "duration": 1.0909079999999989
        },
        {
          "name": "A#2",
          "midi": 46,
          "time": 101.29677370312513,
          "velocity": 0.3937007874015748,
          "duration": 0.2727270000000033
        },
        {
          "name": "G#2",
          "midi": 44,
          "time": 102.29109089062513,
          "velocity": 0.3937007874015748,
          "duration": 0.5454540000000065
        },
        {
          "name": "C4",
          "midi": 60,
          "time": 102.31239768750012,
          "velocity": 0.3937007874015748,
          "duration": 0.4090905000000049
        },
        {
          "name": "C5",
          "midi": 72,
          "time": 102.31239768750012,
          "velocity": 0.3937007874015748,
          "duration": 0.5454540000000065
        },
        {
          "name": "D#3",
          "midi": 51,
          "time": 102.62631782812512,
          "velocity": 0.3937007874015748,
          "duration": 0.2727270000000033
        },
        {
          "name": "D#4",
          "midi": 63,
          "time": 102.91609026562513,
          "velocity": 0.3937007874015748,
          "duration": 0.13636350000000164
        },
        {
          "name": "G#3",
          "midi": 56,
          "time": 102.93313570312513,
          "velocity": 0.3937007874015748,
          "duration": 0.13636350000000164
        },
        {
          "name": "D#4",
          "midi": 63,
          "time": 103.21722632812514,
          "velocity": 0.3937007874015748,
          "duration": 0.6818175000000082
        },
        {
          "name": "A#3",
          "midi": 58,
          "time": 103.22290814062514,
          "velocity": 0.3937007874015748,
          "duration": 0.2727270000000033
        },
        {
          "name": "G2",
          "midi": 43,
          "time": 103.22290814062514,
          "velocity": 0.3937007874015748,
          "duration": 0.5454540000000065
        },
        {
          "name": "A#4",
          "midi": 70,
          "time": 103.22858995312514,
          "velocity": 0.3937007874015748,
          "duration": 0.5454540000000065
        },
        {
          "name": "D#3",
          "midi": 51,
          "time": 103.52972601562514,
          "velocity": 0.3937007874015748,
          "duration": 0.5454540000000065
        },
        {
          "name": "A#3",
          "midi": 58,
          "time": 103.81381664062515,
          "velocity": 0.3937007874015748,
          "duration": 0.13636350000000164
        },
        {
          "name": "F2",
          "midi": 41,
          "time": 104.12063451562516,
          "velocity": 0.3937007874015748,
          "duration": 0.27272699999998906
        },
        {
          "name": "G#3",
          "midi": 56,
          "time": 104.12063451562516,
          "velocity": 0.3937007874015748,
          "duration": 0.27272699999998906
        },
        {
          "name": "G#4",
          "midi": 68,
          "time": 104.12773678125015,
          "velocity": 0.3937007874015748,
          "duration": 0.6818174999999798
        },
        {
          "name": "D#4",
          "midi": 63,
          "time": 104.12773678125015,
          "velocity": 0.3937007874015748,
          "duration": 0.6818174999999798
        },
        {
          "name": "D#3",
          "midi": 51,
          "time": 104.43455465625014,
          "velocity": 0.3937007874015748,
          "duration": 0.683237953124987
        },
        {
          "name": "G#3",
          "midi": 56,
          "time": 104.74137253125014,
          "velocity": 0.3937007874015748,
          "duration": 0.13636349999998743
        },
        {
          "name": "D#4",
          "midi": 63,
          "time": 105.05955403125013,
          "velocity": 0.3937007874015748,
          "duration": 0.683237953124987
        },
        {
          "name": "G3",
          "midi": 55,
          "time": 105.06523584375013,
          "velocity": 0.3937007874015748,
          "duration": 0.27414745312499633
        },
        {
          "name": "D#2",
          "midi": 39,
          "time": 105.07091765625013,
          "velocity": 0.3937007874015748,
          "duration": 0.5454539999999923
        },
        {
          "name": "G4",
          "midi": 67,
          "time": 105.07091765625013,
          "velocity": 0.3937007874015748,
          "duration": 0.683237953124987
        },
        {
          "name": "D#3",
          "midi": 51,
          "time": 105.35642873437513,
          "velocity": 0.3937007874015748,
          "duration": 0.27272699999998906
        },
        {
          "name": "C#2",
          "midi": 37,
          "time": 106.00983717187512,
          "velocity": 0.3937007874015748,
          "duration": 0.5454540000000065
        },
        {
          "name": "F4",
          "midi": 65,
          "time": 106.02120079687512,
          "velocity": 0.3937007874015748,
          "duration": 0.4090905000000049
        },
        {
          "name": "F3",
          "midi": 53,
          "time": 106.02688260937512,
          "velocity": 0.3937007874015748,
          "duration": 0.4090905000000049
        },
        {
          "name": "G#2",
          "midi": 44,
          "time": 106.25983692187512,
          "velocity": 0.3937007874015748,
          "duration": 0.2727270000000033
        },
        {
          "name": "D#3",
          "midi": 51,
          "time": 106.60642748437513,
          "velocity": 0.3937007874015748,
          "duration": 0.13636350000000164
        },
        {
          "name": "F3",
          "midi": 53,
          "time": 106.69733648437513,
          "velocity": 0.3937007874015748,
          "duration": 0.13636350000001585
        },
        {
          "name": "G#3",
          "midi": 56,
          "time": 106.77688185937514,
          "velocity": 0.3937007874015748,
          "duration": 0.13636350000000164
        },
        {
          "name": "C#4",
          "midi": 61,
          "time": 106.99421118750014,
          "velocity": 0.3937007874015748,
          "duration": 0.13636350000000164
        },
        {
          "name": "D#4",
          "midi": 63,
          "time": 107.07943837500014,
          "velocity": 0.3937007874015748,
          "duration": 0.13636350000001585
        },
        {
          "name": "F4",
          "midi": 65,
          "time": 107.18171100000015,
          "velocity": 0.3937007874015748,
          "duration": 0.13636350000001585
        },
        {
          "name": "G#4",
          "midi": 68,
          "time": 107.26125637500016,
          "velocity": 0.3937007874015748,
          "duration": 0.13636350000000164
        },
        {
          "name": "A#4",
          "midi": 70,
          "time": 107.32943812500017,
          "velocity": 0.3937007874015748,
          "duration": 0.13636350000000164
        },
        {
          "name": "C5",
          "midi": 72,
          "time": 107.42602893750016,
          "velocity": 0.3937007874015748,
          "duration": 0.4090905000000049
        },
        {
          "name": "A#4",
          "midi": 70,
          "time": 107.74563089062516,
          "velocity": 0.3937007874015748,
          "duration": 0.5454540000000065
        },
        {
          "name": "G#4",
          "midi": 68,
          "time": 108.03966468750016,
          "velocity": 0.3937007874015748,
          "duration": 0.13636350000000164
        },
        {
          "name": "D#2",
          "midi": 39,
          "time": 108.36494845312517,
          "velocity": 0.3937007874015748,
          "duration": 0.4105109531250122
        },
        {
          "name": "G4",
          "midi": 67,
          "time": 108.41040295312517,
          "velocity": 0.3937007874015748,
          "duration": 0.2727270000000033
        },
        {
          "name": "A#2",
          "midi": 46,
          "time": 108.69449357812518,
          "velocity": 0.3937007874015748,
          "duration": 0.2727270000000033
        },
        {
          "name": "A#3",
          "midi": 58,
          "time": 109.04250459375018,
          "velocity": 0.3937007874015748,
          "duration": 0.13636350000000164
        },
        {
          "name": "A#3",
          "midi": 58,
          "time": 109.35500428125019,
          "velocity": 0.3937007874015748,
          "duration": 0.4090905000000049
        },
        {
          "name": "D#4",
          "midi": 63,
          "time": 109.36068609375019,
          "velocity": 0.3937007874015748,
          "duration": 0.2727270000000033
        },
        {
          "name": "G3",
          "midi": 55,
          "time": 109.6788675937502,
          "velocity": 0.3937007874015748,
          "duration": 0.13636350000000164
        },
        {
          "name": "G#3",
          "midi": 56,
          "time": 109.9913672812502,
          "velocity": 0.3937007874015748,
          "duration": 0.13636350000000164
        },
        {
          "name": "A#3",
          "midi": 58,
          "time": 110.3052874218752,
          "velocity": 0.3937007874015748,
          "duration": 0.1377839531249947
        },
        {
          "name": "D#3",
          "midi": 51,
          "time": 110.33937829687521,
          "velocity": 0.3937007874015748,
          "duration": 0.5468744531249854
        },
        {
          "name": "G#2",
          "midi": 44,
          "time": 110.35642373437521,
          "velocity": 0.3937007874015748,
          "duration": 0.5468744531249854
        },
        {
          "name": "C4",
          "midi": 60,
          "time": 110.4302872968752,
          "velocity": 0.3937007874015748,
          "duration": 2.5909065000000027
        },
        {
          "name": "G#2",
          "midi": 44,
          "time": 111.2953432500002,
          "velocity": 0.3937007874015748,
          "duration": 0.2727270000000033
        },
        {
          "name": "G#2",
          "midi": 44,
          "time": 111.9984675468752,
          "velocity": 0.3937007874015748,
          "duration": 0.13636350000000164
        },
        {
          "name": "G#2",
          "midi": 44,
          "time": 112.3336944843752,
          "velocity": 0.3937007874015748,
          "duration": 0.2727270000000033
        },
        {
          "name": "G#2",
          "midi": 44,
          "time": 113.3450571093752,
          "velocity": 0.3937007874015748,
          "duration": 0.4090904999999907
        },
        {
          "name": "G#3",
          "midi": 56,
          "time": 113.3564207343752,
          "velocity": 0.3937007874015748,
          "duration": 0.4090904999999907
        },
        {
          "name": "A#3",
          "midi": 58,
          "time": 113.6802840468752,
          "velocity": 0.3937007874015748,
          "duration": 0.27272699999998906
        },
        {
          "name": "C4",
          "midi": 60,
          "time": 113.9927837343752,
          "velocity": 0.3937007874015748,
          "duration": 0.13636350000000164
        },
        {
          "name": "C3",
          "midi": 48,
          "time": 114.2868175312502,
          "velocity": 0.3937007874015748,
          "duration": 0.4090904999999907
        },
        {
          "name": "F2",
          "midi": 41,
          "time": 114.29960160937519,
          "velocity": 0.3937007874015748,
          "duration": 0.4090904999999907
        },
        {
          "name": "C4",
          "midi": 60,
          "time": 114.29960160937519,
          "velocity": 0.3937007874015748,
          "duration": 0.5454539999999923
        },
        {
          "name": "A#3",
          "midi": 58,
          "time": 114.63482854687518,
          "velocity": 0.3937007874015748,
          "duration": 0.4090904999999907
        },
        {
          "name": "G#3",
          "midi": 56,
          "time": 114.95301004687518,
          "velocity": 0.3937007874015748,
          "duration": 0.13636350000000164
        },
        {
          "name": "G#3",
          "midi": 56,
          "time": 115.24278248437518,
          "velocity": 0.3937007874015748,
          "duration": 1.7727254999999928
        },
        {
          "name": "F2",
          "midi": 41,
          "time": 115.91891817187518,
          "velocity": 0.3937007874015748,
          "duration": 0.13636350000000164
        },
        {
          "name": "F2",
          "midi": 41,
          "time": 116.28255417187518,
          "velocity": 0.3937007874015748,
          "duration": 0.4090905000000049
        },
        {
          "name": "F2",
          "midi": 41,
          "time": 116.99846254687517,
          "velocity": 0.3937007874015748,
          "duration": 0.13636350000000164
        },
        {
          "name": "F2",
          "midi": 41,
          "time": 117.32800767187517,
          "velocity": 0.3937007874015748,
          "duration": 0.4090904999999907
        },
        {
          "name": "G#3",
          "midi": 56,
          "time": 117.32800767187517,
          "velocity": 0.3937007874015748,
          "duration": 0.5454539999999923
        },
        {
          "name": "A#3",
          "midi": 58,
          "time": 117.63482554687516,
          "velocity": 0.3937007874015748,
          "duration": 0.2727270000000033
        },
        {
          "name": "C4",
          "midi": 60,
          "time": 117.96295021875017,
          "velocity": 0.3937007874015748,
          "duration": 0.13636350000000164
        },
        {
          "name": "C#2",
          "midi": 37,
          "time": 118.26408628125017,
          "velocity": 0.3937007874015748,
          "duration": 0.4090905000000049
        },
        {
          "name": "C4",
          "midi": 60,
          "time": 118.29249534375018,
          "velocity": 0.3937007874015748,
          "duration": 2.5923269531249957
        },
        {
          "name": "F3",
          "midi": 53,
          "time": 118.29817715625018,
          "velocity": 0.3937007874015748,
          "duration": 0.4090905000000049
        },
        {
          "name": "C#2",
          "midi": 37,
          "time": 118.94590378125018,
          "velocity": 0.3937007874015748,
          "duration": 0.13636350000000164
        },
        {
          "name": "G#3",
          "midi": 56,
          "time": 119.32658521875018,
          "velocity": 0.3937007874015748,
          "duration": 0.5468744531249996
        },
        {
          "name": "F3",
          "midi": 53,
          "time": 119.33936929687518,
          "velocity": 0.3937007874015748,
          "duration": 0.5468744531249996
        },
        {
          "name": "C#2",
          "midi": 37,
          "time": 119.35073292187518,
          "velocity": 0.3937007874015748,
          "duration": 0.13636350000000164
        },
        {
          "name": "G#3",
          "midi": 56,
          "time": 120.36919781250018,
          "velocity": 0.3937007874015748,
          "duration": 0.5440335468749993
        },
        {
          "name": "F3",
          "midi": 53,
          "time": 120.39050460937517,
          "velocity": 0.3937007874015748,
          "duration": 0.5440335468749993
        },
        {
          "name": "C#2",
          "midi": 37,
          "time": 121.38482179687517,
          "velocity": 0.3937007874015748,
          "duration": 0.4090905000000049
        },
        {
          "name": "G#3",
          "midi": 56,
          "time": 121.38482179687517,
          "velocity": 0.3937007874015748,
          "duration": 0.6818175000000082
        },
        {
          "name": "F3",
          "midi": 53,
          "time": 121.39618542187517,
          "velocity": 0.3937007874015748,
          "duration": 0.2727270000000033
        },
        {
          "name": "A#3",
          "midi": 58,
          "time": 121.70868510937518,
          "velocity": 0.3937007874015748,
          "duration": 0.27272699999998906
        },
        {
          "name": "C4",
          "midi": 60,
          "time": 122.03254842187518,
          "velocity": 0.3937007874015748,
          "duration": 0.13636350000000164
        },
        {
          "name": "G#3",
          "midi": 56,
          "time": 122.37913898437517,
          "velocity": 0.3937007874015748,
          "duration": 1.0923284531250061
        },
        {
          "name": "D#2",
          "midi": 39,
          "time": 122.37913898437517,
          "velocity": 0.3937007874015748,
          "duration": 1.6377824531250127
        },
        {
          "name": "A#3",
          "midi": 58,
          "time": 122.38482079687518,
          "velocity": 0.3937007874015748,
          "duration": 1.0923284531250061
        },
        {
          "name": "D#3",
          "midi": 51,
          "time": 122.39618442187518,
          "velocity": 0.3937007874015748,
          "duration": 0.5454540000000065
        },
        {
          "name": "D#3",
          "midi": 51,
          "time": 123.12487687500018,
          "velocity": 0.3937007874015748,
          "duration": 0.4090905000000049
        },
        {
          "name": "D#4",
          "midi": 63,
          "time": 123.44305837500018,
          "velocity": 0.3937007874015748,
          "duration": 1.7741459531250001
        },
        {
          "name": "A#2",
          "midi": 46,
          "time": 123.45442200000018,
          "velocity": 0.3937007874015748,
          "duration": 0.6818175000000082
        },
        {
          "name": "A#3",
          "midi": 58,
          "time": 123.75555806250019,
          "velocity": 0.3937007874015748,
          "duration": 1.3650554531249952
        },
        {
          "name": "D#2",
          "midi": 39,
          "time": 124.39760287500019,
          "velocity": 0.3937007874015748,
          "duration": 1.0923284531249777
        },
        {
          "name": "G3",
          "midi": 55,
          "time": 124.41464831250019,
          "velocity": 0.3937007874015748,
          "duration": 0.5454539999999923
        },
        {
          "name": "D#3",
          "midi": 51,
          "time": 124.42743239062519,
          "velocity": 0.3937007874015748,
          "duration": 0.5454539999999923
        },
        {
          "name": "A#2",
          "midi": 46,
          "time": 125.42743139062517,
          "velocity": 0.3937007874015748,
          "duration": 0.13636349999998743
        },
        {
          "name": "G#3",
          "midi": 56,
          "time": 125.42743139062517,
          "velocity": 0.3937007874015748,
          "duration": 0.5454539999999781
        },
        {
          "name": "A#3",
          "midi": 58,
          "time": 125.75129470312515,
          "velocity": 0.3937007874015748,
          "duration": 0.41051095312499797
        },
        {
          "name": "C4",
          "midi": 60,
          "time": 126.05243076562515,
          "velocity": 0.3937007874015748,
          "duration": 0.13636350000000164
        },
        {
          "name": "A#3",
          "midi": 58,
          "time": 126.35924864062515,
          "velocity": 0.3937007874015748,
          "duration": 0.13636350000000164
        },
        {
          "name": "G#2",
          "midi": 44,
          "time": 126.40044178125015,
          "velocity": 0.3937007874015748,
          "duration": 0.6818175000000082
        },
        {
          "name": "C4",
          "midi": 60,
          "time": 126.45583945312515,
          "velocity": 0.3937007874015748,
          "duration": 0.2727270000000033
        },
        {
          "name": "A#3",
          "midi": 58,
          "time": 126.72288464062515,
          "velocity": 0.3937007874015748,
          "duration": 0.2727270000000033
        },
        {
          "name": "G#3",
          "midi": 56,
          "time": 127.04106614062516,
          "velocity": 0.3937007874015748,
          "duration": 1.7727254999999786
        },
        {
          "name": "G#2",
          "midi": 44,
          "time": 127.38907715625015,
          "velocity": 0.3937007874015748,
          "duration": 0.2727270000000033
        },
        {
          "name": "G#2",
          "midi": 44,
          "time": 128.07089465625015,
          "velocity": 0.3937007874015748,
          "duration": 0.13636349999998743
        },
        {
          "name": "G#2",
          "midi": 44,
          "time": 128.44589428125013,
          "velocity": 0.3937007874015748,
          "duration": 0.4090905000000191
        },
        {
          "name": "G#3",
          "midi": 56,
          "time": 129.13907540625016,
          "velocity": 0.3937007874015748,
          "duration": 0.13636349999998743
        },
        {
          "name": "G#2",
          "midi": 44,
          "time": 129.13907540625016,
          "velocity": 0.3937007874015748,
          "duration": 0.13636349999998743
        },
        {
          "name": "D#4",
          "midi": 63,
          "time": 129.47430234375014,
          "velocity": 0.3937007874015748,
          "duration": 0.4090904999999907
        },
        {
          "name": "G#2",
          "midi": 44,
          "time": 129.49560914062513,
          "velocity": 0.3937007874015748,
          "duration": 0.13636349999998743
        },
        {
          "name": "C4",
          "midi": 60,
          "time": 130.18452890625014,
          "velocity": 0.3937007874015748,
          "duration": 0.13636349999998743
        },
        {
          "name": "A#3",
          "midi": 58,
          "time": 130.32089240625012,
          "velocity": 0.3937007874015748,
          "duration": 0.13636349999998743
        },
        {
          "name": "A#3",
          "midi": 58,
          "time": 130.49134678125012,
          "velocity": 0.3937007874015748,
          "duration": 0.13636350000001585
        },
        {
          "name": "F2",
          "midi": 41,
          "time": 130.49134678125012,
          "velocity": 0.3937007874015748,
          "duration": 0.2727270000000033
        },
        {
          "name": "C4",
          "midi": 60,
          "time": 130.57657396875013,
          "velocity": 0.3937007874015748,
          "duration": 2.72584954687494
        },
        {
          "name": "F2",
          "midi": 41,
          "time": 131.1944710781251,
          "velocity": 0.3937007874015748,
          "duration": 0.13636349999998743
        },
        {
          "name": "G#3",
          "midi": 56,
          "time": 131.5524252656251,
          "velocity": 0.3937007874015748,
          "duration": 1.7727254999999786
        },
        {
          "name": "F2",
          "midi": 41,
          "time": 132.23992457812508,
          "velocity": 0.3937007874015748,
          "duration": 0.13636349999998743
        },
        {
          "name": "F2",
          "midi": 41,
          "time": 132.61492420312507,
          "velocity": 0.3937007874015748,
          "duration": 0.4090904999999907
        },
        {
          "name": "G#3",
          "midi": 56,
          "time": 133.63196864062508,
          "velocity": 0.3937007874015748,
          "duration": 0.4090905000000191
        },
        {
          "name": "A#3",
          "midi": 58,
          "time": 133.9785592031251,
          "velocity": 0.3937007874015748,
          "duration": 0.2727270000000033
        },
        {
          "name": "C4",
          "midi": 60,
          "time": 134.2910588906251,
          "velocity": 0.3937007874015748,
          "duration": 0.13636349999998743
        },
        {
          "name": "C#2",
          "midi": 37,
          "time": 134.61492220312508,
          "velocity": 0.3937007874015748,
          "duration": 0.8181810000000098
        },
        {
          "name": "G#3",
          "midi": 56,
          "time": 134.63196764062508,
          "velocity": 0.3937007874015748,
          "duration": 0.681817499999994
        },
        {
          "name": "C#4",
          "midi": 61,
          "time": 134.63196764062508,
          "velocity": 0.3937007874015748,
          "duration": 0.681817499999994
        },
        {
          "name": "G#2",
          "midi": 44,
          "time": 135.30810332812507,
          "velocity": 0.3937007874015748,
          "duration": 0.13636350000001585
        },
        {
          "name": "C4",
          "midi": 60,
          "time": 135.65469389062508,
          "velocity": 0.3937007874015748,
          "duration": 1.7741459531249575
        },
        {
          "name": "G#3",
          "midi": 56,
          "time": 135.66037570312508,
          "velocity": 0.3937007874015748,
          "duration": 0.5454539999999781
        },
        {
          "name": "C#3",
          "midi": 49,
          "time": 135.66605751562508,
          "velocity": 0.3937007874015748,
          "duration": 0.13636349999998743
        },
        {
          "name": "G#2",
          "midi": 44,
          "time": 136.38906815625006,
          "velocity": 0.3937007874015748,
          "duration": 0.13636349999998743
        },
        {
          "name": "C#3",
          "midi": 49,
          "time": 136.70156784375004,
          "velocity": 0.3937007874015748,
          "duration": 0.13636349999998743
        },
        {
          "name": "G#3",
          "midi": 56,
          "time": 136.71293146875004,
          "velocity": 0.3937007874015748,
          "duration": 0.8181810000000098
        },
        {
          "name": "G#2",
          "midi": 44,
          "time": 137.71293046875005,
          "velocity": 0.3937007874015748,
          "duration": 0.4090904999999907
        },
        {
          "name": "F3",
          "midi": 53,
          "time": 137.71293046875005,
          "velocity": 0.3937007874015748,
          "duration": 0.5454539999999781
        },
        {
          "name": "C#3",
          "midi": 49,
          "time": 138.36065709375004,
          "velocity": 0.3937007874015748,
          "duration": 0.13636350000001585
        },
        {
          "name": "G#3",
          "midi": 56,
          "time": 138.39474796875004,
          "velocity": 0.3937007874015748,
          "duration": 0.13636350000001585
        },
        {
          "name": "A#2",
          "midi": 46,
          "time": 138.73565671875005,
          "velocity": 0.3937007874015748,
          "duration": 0.5468744531250138
        },
        {
          "name": "D#2",
          "midi": 39,
          "time": 138.74844079687506,
          "velocity": 0.3937007874015748,
          "duration": 0.5468744531250138
        },
        {
          "name": "G3",
          "midi": 55,
          "time": 138.75412260937506,
          "velocity": 0.3937007874015748,
          "duration": 0.5468744531250138
        },
        {
          "name": "D#3",
          "midi": 51,
          "time": 138.76548623437506,
          "velocity": 0.3937007874015748,
          "duration": 0.5468744531250138
        },
        {
          "name": "G3",
          "midi": 55,
          "time": 139.76832614062508,
          "velocity": 0.3937007874015748,
          "duration": 0.13636349999998743
        },
        {
          "name": "D#2",
          "midi": 39,
          "time": 139.76832614062508,
          "velocity": 0.3937007874015748,
          "duration": 0.13636349999998743
        },
        {
          "name": "A#2",
          "midi": 46,
          "time": 139.76832614062508,
          "velocity": 0.3937007874015748,
          "duration": 0.13636349999998743
        },
        {
          "name": "D#4",
          "midi": 63,
          "time": 140.73991607812508,
          "velocity": 0.3937007874015748,
          "duration": 0.13636349999998743
        },
        {
          "name": "D#2",
          "midi": 39,
          "time": 140.74559789062508,
          "velocity": 0.3937007874015748,
          "duration": 0.13636349999998743
        },
        {
          "name": "D#4",
          "midi": 63,
          "time": 141.06946120312506,
          "velocity": 0.3937007874015748,
          "duration": 0.13636349999998743
        },
        {
          "name": "D#4",
          "midi": 63,
          "time": 141.37059726562504,
          "velocity": 0.3937007874015748,
          "duration": 0.2727270000000033
        },
        {
          "name": "F4",
          "midi": 65,
          "time": 141.72286964062505,
          "velocity": 0.3937007874015748,
          "duration": 0.2727270000000033
        },
        {
          "name": "C4",
          "midi": 60,
          "time": 142.05809657812506,
          "velocity": 0.3937007874015748,
          "duration": 0.2727270000000033
        },
        {
          "name": "A#3",
          "midi": 58,
          "time": 142.69303912500007,
          "velocity": 0.3937007874015748,
          "duration": 0.13636350000001585
        },
        {
          "name": "G#2",
          "midi": 44,
          "time": 142.74417543750008,
          "velocity": 0.3937007874015748,
          "duration": 3.406246593750069
        },
        {
          "name": "C4",
          "midi": 60,
          "time": 142.8365048906251,
          "velocity": 0.3937007874015748,
          "duration": 0.2727270000000033
        },
        {
          "name": "A#3",
          "midi": 58,
          "time": 143.0580955781251,
          "velocity": 0.3937007874015748,
          "duration": 0.2727270000000033
        },
        {
          "name": "G#3",
          "midi": 56,
          "time": 143.3819588906251,
          "velocity": 0.3937007874015748,
          "duration": 0.4090905000000191
        },
        {
          "name": "D#3",
          "midi": 51,
          "time": 143.7441744375001,
          "velocity": 0.3937007874015748,
          "duration": 0.4105109531250264
        },
        {
          "name": "G#3",
          "midi": 56,
          "time": 144.06945820312512,
          "velocity": 0.3937007874015748,
          "duration": 0.13636350000001585
        },
        {
          "name": "A#3",
          "midi": 58,
          "time": 144.23423076562514,
          "velocity": 0.3937007874015748,
          "duration": 0.2727270000000033
        },
        {
          "name": "C4",
          "midi": 60,
          "time": 144.39758287500015,
          "velocity": 0.3937007874015748,
          "duration": 0.13636349999998743
        },
        {
          "name": "D#4",
          "midi": 63,
          "time": 144.55667362500014,
          "velocity": 0.3937007874015748,
          "duration": 0.13636349999998743
        },
        {
          "name": "A#3",
          "midi": 58,
          "time": 144.72144618750013,
          "velocity": 0.3937007874015748,
          "duration": 0.13494304687500858
        },
        {
          "name": "D#3",
          "midi": 51,
          "time": 144.72712800000014,
          "velocity": 0.3937007874015748,
          "duration": 0.4062495937500046
        },
        {
          "name": "D#4",
          "midi": 63,
          "time": 144.74417343750014,
          "velocity": 0.3937007874015748,
          "duration": 0.271306546874996
        },
        {
          "name": "C4",
          "midi": 60,
          "time": 144.83934379687514,
          "velocity": 0.3937007874015748,
          "duration": 0.271306546874996
        },
        {
          "name": "A#3",
          "midi": 58,
          "time": 145.04957085937514,
          "velocity": 0.3937007874015748,
          "duration": 0.13494304687500858
        },
        {
          "name": "D#3",
          "midi": 51,
          "time": 145.70724065625015,
          "velocity": 0.3937007874015748,
          "duration": 0.27272699999997485
        },
        {
          "name": "A#3",
          "midi": 58,
          "time": 145.70724065625015,
          "velocity": 0.3937007874015748,
          "duration": 0.4090904999999907
        },
        {
          "name": "D#4",
          "midi": 63,
          "time": 145.71292246875015,
          "velocity": 0.3937007874015748,
          "duration": 0.13636349999998743
        },
        {
          "name": "D#4",
          "midi": 63,
          "time": 146.03110396875013,
          "velocity": 0.3937007874015748,
          "duration": 0.13636350000001585
        },
        {
          "name": "G3",
          "midi": 55,
          "time": 146.37911498437515,
          "velocity": 0.3937007874015748,
          "duration": 0.13636349999998743
        },
        {
          "name": "D#4",
          "midi": 63,
          "time": 146.71292146875012,
          "velocity": 0.3937007874015748,
          "duration": 0.5468744531250138
        },
        {
          "name": "G#3",
          "midi": 56,
          "time": 146.72002373437513,
          "velocity": 0.3937007874015748,
          "duration": 0.5468744531250138
        },
        {
          "name": "F2",
          "midi": 41,
          "time": 146.73706917187513,
          "velocity": 0.3937007874015748,
          "duration": 0.6818175000000224
        },
        {
          "name": "C3",
          "midi": 48,
          "time": 146.74275098437514,
          "velocity": 0.3937007874015748,
          "duration": 0.6818175000000224
        },
        {
          "name": "G#3",
          "midi": 56,
          "time": 147.39047760937515,
          "velocity": 0.3937007874015748,
          "duration": 0.13636350000001585
        },
        {
          "name": "D#4",
          "midi": 63,
          "time": 147.41888667187516,
          "velocity": 0.3937007874015748,
          "duration": 0.13636350000001585
        },
        {
          "name": "G#3",
          "midi": 56,
          "time": 147.78252267187517,
          "velocity": 0.3937007874015748,
          "duration": 0.41051095312499797
        },
        {
          "name": "D#4",
          "midi": 63,
          "time": 147.78252267187517,
          "velocity": 0.3937007874015748,
          "duration": 0.41051095312499797
        },
        {
          "name": "C3",
          "midi": 48,
          "time": 147.79956810937517,
          "velocity": 0.3937007874015748,
          "duration": 0.6832379531250012
        },
        {
          "name": "F2",
          "midi": 41,
          "time": 147.81235218750018,
          "velocity": 0.3937007874015748,
          "duration": 0.6832379531250012
        },
        {
          "name": "G#3",
          "midi": 56,
          "time": 148.49559014062518,
          "velocity": 0.3937007874015748,
          "duration": 0.13636349999998743
        },
        {
          "name": "D#4",
          "midi": 63,
          "time": 148.49559014062518,
          "velocity": 0.3937007874015748,
          "duration": 0.27272699999997485
        },
        {
          "name": "C3",
          "midi": 48,
          "time": 148.85780568750016,
          "velocity": 0.3937007874015748,
          "duration": 0.6818175000000224
        },
        {
          "name": "D#4",
          "midi": 63,
          "time": 148.86348750000016,
          "velocity": 0.3937007874015748,
          "duration": 0.6818175000000224
        },
        {
          "name": "G#3",
          "midi": 56,
          "time": 148.87058976562517,
          "velocity": 0.3937007874015748,
          "duration": 0.2727270000000033
        },
        {
          "name": "F2",
          "midi": 41,
          "time": 148.87058976562517,
          "velocity": 0.3937007874015748,
          "duration": 0.6818175000000224
        },
        {
          "name": "G#3",
          "midi": 56,
          "time": 149.5524072656252,
          "velocity": 0.3937007874015748,
          "duration": 0.13636349999998743
        },
        {
          "name": "G#3",
          "midi": 56,
          "time": 149.89331601562517,
          "velocity": 0.3937007874015748,
          "duration": 0.2727270000000033
        },
        {
          "name": "C3",
          "midi": 48,
          "time": 149.89331601562517,
          "velocity": 0.3937007874015748,
          "duration": 0.4090904999999907
        },
        {
          "name": "F2",
          "midi": 41,
          "time": 149.89331601562517,
          "velocity": 0.3937007874015748,
          "duration": 0.4090904999999907
        },
        {
          "name": "A#3",
          "midi": 58,
          "time": 150.22712250000018,
          "velocity": 0.3937007874015748,
          "duration": 0.4090904999999907
        },
        {
          "name": "C4",
          "midi": 60,
          "time": 150.54104264062516,
          "velocity": 0.3937007874015748,
          "duration": 0.13636350000001585
        },
        {
          "name": "C#2",
          "midi": 37,
          "time": 150.88195139062518,
          "velocity": 0.3937007874015748,
          "duration": 3.6818144999999447
        },
        {
          "name": "C4",
          "midi": 60,
          "time": 150.88763320312518,
          "velocity": 0.3937007874015748,
          "duration": 0.4090904999999907
        },
        {
          "name": "G#3",
          "midi": 56,
          "time": 150.88763320312518,
          "velocity": 0.3937007874015748,
          "duration": 0.4090904999999907
        },
        {
          "name": "D#4",
          "midi": 63,
          "time": 150.89331501562518,
          "velocity": 0.3937007874015748,
          "duration": 0.4090904999999907
        },
        {
          "name": "F3",
          "midi": 53,
          "time": 150.89899682812518,
          "velocity": 0.3937007874015748,
          "duration": 0.4090904999999907
        },
        {
          "name": "C4",
          "midi": 60,
          "time": 151.63763245312518,
          "velocity": 0.3937007874015748,
          "duration": 0.13636349999998743
        },
        {
          "name": "F3",
          "midi": 53,
          "time": 151.64331426562518,
          "velocity": 0.3937007874015748,
          "duration": 0.13636349999998743
        },
        {
          "name": "G#3",
          "midi": 56,
          "time": 151.64331426562518,
          "velocity": 0.3937007874015748,
          "duration": 0.13636349999998743
        },
        {
          "name": "D#4",
          "midi": 63,
          "time": 151.64331426562518,
          "velocity": 0.3937007874015748,
          "duration": 0.13636349999998743
        },
        {
          "name": "C#3",
          "midi": 49,
          "time": 152.00695026562516,
          "velocity": 0.3937007874015748,
          "duration": 0.5454540000000065
        },
        {
          "name": "C4",
          "midi": 60,
          "time": 152.01263207812516,
          "velocity": 0.3937007874015748,
          "duration": 0.2727270000000033
        },
        {
          "name": "G#3",
          "midi": 56,
          "time": 152.01831389062517,
          "velocity": 0.3937007874015748,
          "duration": 0.2727270000000033
        },
        {
          "name": "D#4",
          "midi": 63,
          "time": 152.01831389062517,
          "velocity": 0.3937007874015748,
          "duration": 0.2727270000000033
        },
        {
          "name": "F3",
          "midi": 53,
          "time": 152.01831389062517,
          "velocity": 0.3937007874015748,
          "duration": 0.2727270000000033
        },
        {
          "name": "C4",
          "midi": 60,
          "time": 152.76263132812517,
          "velocity": 0.3937007874015748,
          "duration": 0.13636349999998743
        },
        {
          "name": "F3",
          "midi": 53,
          "time": 152.76831314062517,
          "velocity": 0.3937007874015748,
          "duration": 0.13636349999998743
        },
        {
          "name": "C4",
          "midi": 60,
          "time": 153.10354007812515,
          "velocity": 0.3937007874015748,
          "duration": 0.5454539999999781
        },
        {
          "name": "C#3",
          "midi": 49,
          "time": 153.10354007812515,
          "velocity": 0.3937007874015748,
          "duration": 0.6818174999999655
        },
        {
          "name": "F3",
          "midi": 53,
          "time": 153.11490370312515,
          "velocity": 0.3937007874015748,
          "duration": 0.4090904999999907
        },
        {
          "name": "C4",
          "midi": 60,
          "time": 154.2157548750001,
          "velocity": 0.3937007874015748,
          "duration": 0.4090905000000191
        },
        {
          "name": "G#3",
          "midi": 56,
          "time": 154.2285389531251,
          "velocity": 0.3937007874015748,
          "duration": 0.2727270000000033
        },
        {
          "name": "F3",
          "midi": 53,
          "time": 154.2285389531251,
          "velocity": 0.3937007874015748,
          "duration": 0.4090905000000191
        },
        {
          "name": "G#2",
          "midi": 44,
          "time": 154.2399025781251,
          "velocity": 0.3937007874015748,
          "duration": 0.4090905000000191
        },
        {
          "name": "A#3",
          "midi": 58,
          "time": 154.54103864062512,
          "velocity": 0.3937007874015748,
          "duration": 0.2727270000000033
        },
        {
          "name": "G#3",
          "midi": 56,
          "time": 154.89331101562513,
          "velocity": 0.3937007874015748,
          "duration": 0.13636349999998743
        },
        {
          "name": "A#3",
          "midi": 58,
          "time": 155.2171743281251,
          "velocity": 0.3937007874015748,
          "duration": 0.9545444999999972
        },
        {
          "name": "D#2",
          "midi": 39,
          "time": 155.2228561406251,
          "velocity": 0.3937007874015748,
          "duration": 1.7741459531250143
        },
        {
          "name": "D#3",
          "midi": 51,
          "time": 155.2285379531251,
          "velocity": 0.3937007874015748,
          "duration": 0.4090904999999907
        },
        {
          "name": "G#3",
          "midi": 56,
          "time": 155.2285379531251,
          "velocity": 0.3937007874015748,
          "duration": 0.9545444999999972
        },
        {
          "name": "D#3",
          "midi": 51,
          "time": 155.99558264062512,
          "velocity": 0.3937007874015748,
          "duration": 0.13636349999998743
        },
        {
          "name": "D#4",
          "midi": 63,
          "time": 156.3308095781251,
          "velocity": 0.3937007874015748,
          "duration": 1.6377824531249985
        },
        {
          "name": "D#3",
          "midi": 51,
          "time": 156.3435936562501,
          "velocity": 0.3937007874015748,
          "duration": 0.6818175000000224
        },
        {
          "name": "A#2",
          "midi": 46,
          "time": 156.3435936562501,
          "velocity": 0.3937007874015748,
          "duration": 0.8181810000000098
        },
        {
          "name": "A#3",
          "midi": 58,
          "time": 156.70154784375012,
          "velocity": 0.3937007874015748,
          "duration": 1.363634999999988
        },
        {
          "name": "D#2",
          "midi": 39,
          "time": 157.3776835312501,
          "velocity": 0.3937007874015748,
          "duration": 0.8181810000000098
        },
        {
          "name": "G3",
          "midi": 55,
          "time": 157.38904715625011,
          "velocity": 0.3937007874015748,
          "duration": 0.4090904999999907
        },
        {
          "name": "D#3",
          "midi": 51,
          "time": 157.38904715625011,
          "velocity": 0.3937007874015748,
          "duration": 0.4090904999999907
        },
        {
          "name": "A#2",
          "midi": 46,
          "time": 158.13336459375012,
          "velocity": 0.3937007874015748,
          "duration": 0.13636350000001585
        },
        {
          "name": "G#3",
          "midi": 56,
          "time": 158.44586428125012,
          "velocity": 0.3937007874015748,
          "duration": 0.4090904999999907
        },
        {
          "name": "A#3",
          "midi": 58,
          "time": 158.79387529687511,
          "velocity": 0.3937007874015748,
          "duration": 0.40767004687501185
        },
        {
          "name": "C4",
          "midi": 60,
          "time": 159.11063634375012,
          "velocity": 0.3937007874015748,
          "duration": 0.2727270000000033
        },
        {
          "name": "A#3",
          "midi": 58,
          "time": 159.39472696875012,
          "velocity": 0.3937007874015748,
          "duration": 0.13636349999998743
        },
        {
          "name": "G#1",
          "midi": 32,
          "time": 159.4756927968751,
          "velocity": 0.3937007874015748,
          "duration": 1.0894875468750342
        },
        {
          "name": "C4",
          "midi": 60,
          "time": 159.59359040625012,
          "velocity": 0.3937007874015748,
          "duration": 0.13636349999998743
        },
        {
          "name": "A#3",
          "midi": 58,
          "time": 159.7583629687501,
          "velocity": 0.3937007874015748,
          "duration": 0.4090905000000191
        },
        {
          "name": "G#3",
          "midi": 56,
          "time": 160.11063534375012,
          "velocity": 0.3937007874015748,
          "duration": 0.6818175000000224
        },
        {
          "name": "G#2",
          "midi": 44,
          "time": 160.47427134375013,
          "velocity": 0.3937007874015748,
          "duration": 0.13636350000001585
        },
        {
          "name": "G#3",
          "midi": 56,
          "time": 161.19586153125013,
          "velocity": 0.3937007874015748,
          "duration": 0.6818175000000224
        },
        {
          "name": "G#2",
          "midi": 44,
          "time": 161.54245209375014,
          "velocity": 0.3937007874015748,
          "duration": 0.5454540000000065
        },
        {
          "name": "G#3",
          "midi": 56,
          "time": 162.25267865625014,
          "velocity": 0.3937007874015748,
          "duration": 0.13636349999998743
        },
        {
          "name": "G#2",
          "midi": 44,
          "time": 162.59358740625012,
          "velocity": 0.3937007874015748,
          "duration": 0.5454540000000065
        },
        {
          "name": "C4",
          "midi": 60,
          "time": 162.61063284375012,
          "velocity": 0.3937007874015748,
          "duration": 0.681817499999994
        },
        {
          "name": "A#3",
          "midi": 58,
          "time": 163.3137571406251,
          "velocity": 0.3937007874015748,
          "duration": 0.13636349999998743
        },
        {
          "name": "G#3",
          "midi": 56,
          "time": 163.4671660781251,
          "velocity": 0.3937007874015748,
          "duration": 0.13636349999998743
        },
        {
          "name": "F2",
          "midi": 41,
          "time": 163.6376204531251,
          "velocity": 0.3937007874015748,
          "duration": 0.4090904999999907
        },
        {
          "name": "C4",
          "midi": 60,
          "time": 163.6433022656251,
          "velocity": 0.3937007874015748,
          "duration": 2.999996999999979
        },
        {
          "name": "F2",
          "midi": 41,
          "time": 164.72852845312508,
          "velocity": 0.3937007874015748,
          "duration": 0.2727270000000033
        },
        {
          "name": "F2",
          "midi": 41,
          "time": 166.46148126562508,
          "velocity": 0.3937007874015748,
          "duration": 0.13636349999998743
        },
        {
          "name": "F3",
          "midi": 53,
          "time": 166.81943545312507,
          "velocity": 0.3937007874015748,
          "duration": 0.40767004687501185
        },
        {
          "name": "F2",
          "midi": 41,
          "time": 166.83648089062507,
          "velocity": 0.3937007874015748,
          "duration": 0.2727270000000033
        },
        {
          "name": "G#3",
          "midi": 56,
          "time": 167.17028737500007,
          "velocity": 0.3937007874015748,
          "duration": 0.2727270000000317
        },
        {
          "name": "A#3",
          "midi": 58,
          "time": 167.3236963125001,
          "velocity": 0.3937007874015748,
          "duration": 0.13636350000001585
        },
        {
          "name": "C4",
          "midi": 60,
          "time": 167.4998325000001,
          "velocity": 0.3937007874015748,
          "duration": 0.13636349999998743
        },
        {
          "name": "A#3",
          "midi": 58,
          "time": 167.6702868750001,
          "velocity": 0.3937007874015748,
          "duration": 0.13636349999998743
        },
        {
          "name": "C#2",
          "midi": 37,
          "time": 167.8464230625001,
          "velocity": 0.3937007874015748,
          "duration": 3.6846554062500445
        },
        {
          "name": "C4",
          "midi": 60,
          "time": 167.8521048750001,
          "velocity": 0.3937007874015748,
          "duration": 3.1377809531250307
        },
        {
          "name": "G#3",
          "midi": 56,
          "time": 168.2100590625001,
          "velocity": 0.3937007874015748,
          "duration": 0.13636350000001585
        },
        {
          "name": "G#2",
          "midi": 44,
          "time": 168.2271045000001,
          "velocity": 0.3937007874015748,
          "duration": 3.2755649062500254
        },
        {
          "name": "C#3",
          "midi": 49,
          "time": 168.86914931250013,
          "velocity": 0.3937007874015748,
          "duration": 0.4090905000000191
        },
        {
          "name": "F3",
          "midi": 53,
          "time": 168.89187656250013,
          "velocity": 0.3937007874015748,
          "duration": 0.2727270000000033
        },
        {
          "name": "G#3",
          "midi": 56,
          "time": 169.53960318750015,
          "velocity": 0.3937007874015748,
          "duration": 0.13636349999998743
        },
        {
          "name": "G#3",
          "midi": 56,
          "time": 169.89187556250013,
          "velocity": 0.3937007874015748,
          "duration": 0.2727270000000033
        },
        {
          "name": "C#3",
          "midi": 49,
          "time": 169.90465964062514,
          "velocity": 0.3937007874015748,
          "duration": 0.4090904999999907
        },
        {
          "name": "F3",
          "midi": 53,
          "time": 169.92596643750014,
          "velocity": 0.3937007874015748,
          "duration": 0.13636349999998743
        },
        {
          "name": "G#3",
          "midi": 56,
          "time": 170.58647714062514,
          "velocity": 0.3937007874015748,
          "duration": 0.13636349999998743
        },
        {
          "name": "C#3",
          "midi": 49,
          "time": 170.94443132812512,
          "velocity": 0.3937007874015748,
          "duration": 0.6832379531250297
        },
        {
          "name": "G#3",
          "midi": 56,
          "time": 170.95011314062512,
          "velocity": 0.3937007874015748,
          "duration": 0.6832379531250297
        },
        {
          "name": "F3",
          "midi": 53,
          "time": 170.96289721875013,
          "velocity": 0.3937007874015748,
          "duration": 0.2727270000000033
        },
        {
          "name": "A#3",
          "midi": 58,
          "time": 171.28676053125014,
          "velocity": 0.3937007874015748,
          "duration": 0.2727270000000033
        },
        {
          "name": "C4",
          "midi": 60,
          "time": 171.63335109375015,
          "velocity": 0.3937007874015748,
          "duration": 0.13636349999998743
        },
        {
          "name": "D#2",
          "midi": 39,
          "time": 171.99698709375014,
          "velocity": 0.3937007874015748,
          "duration": 0.681817499999994
        },
        {
          "name": "A#3",
          "midi": 58,
          "time": 171.99698709375014,
          "velocity": 0.3937007874015748,
          "duration": 0.681817499999994
        },
        {
          "name": "A#2",
          "midi": 46,
          "time": 172.00835071875014,
          "velocity": 0.3937007874015748,
          "duration": 0.681817499999994
        },
        {
          "name": "D#3",
          "midi": 51,
          "time": 172.00835071875014,
          "velocity": 0.3937007874015748,
          "duration": 0.681817499999994
        },
        {
          "name": "G#3",
          "midi": 56,
          "time": 172.00835071875014,
          "velocity": 0.3937007874015748,
          "duration": 0.681817499999994
        },
        {
          "name": "A#2",
          "midi": 46,
          "time": 173.04386104687512,
          "velocity": 0.3937007874015748,
          "duration": 0.5454539999999497
        },
        {
          "name": "A#3",
          "midi": 58,
          "time": 173.05522467187512,
          "velocity": 0.3937007874015748,
          "duration": 0.27272699999997485
        },
        {
          "name": "D#2",
          "midi": 39,
          "time": 173.05522467187512,
          "velocity": 0.3937007874015748,
          "duration": 0.4090904999999623
        },
        {
          "name": "D#3",
          "midi": 51,
          "time": 173.06090648437512,
          "velocity": 0.3937007874015748,
          "duration": 0.13636349999998743
        },
        {
          "name": "G#3",
          "midi": 56,
          "time": 173.06090648437512,
          "velocity": 0.3937007874015748,
          "duration": 0.27272699999997485
        },
        {
          "name": "D#4",
          "midi": 63,
          "time": 174.04386004687507,
          "velocity": 0.3937007874015748,
          "duration": 1.090908000000013
        },
        {
          "name": "A#3",
          "midi": 58,
          "time": 174.99272273437506,
          "velocity": 0.3937007874015748,
          "duration": 0.13636350000001585
        },
        {
          "name": "C4",
          "midi": 60,
          "time": 175.07226810937507,
          "velocity": 0.3937007874015748,
          "duration": 0.4090905000000191
        },
        {
          "name": "A#3",
          "midi": 58,
          "time": 175.37908598437508,
          "velocity": 0.3937007874015748,
          "duration": 0.2727270000000033
        },
        {
          "name": "G#3",
          "midi": 56,
          "time": 175.7143129218751,
          "velocity": 0.3937007874015748,
          "duration": 0.13636349999998743
        },
        {
          "name": "F2",
          "midi": 41,
          "time": 176.06090348437507,
          "velocity": 0.3937007874015748,
          "duration": 0.6818175000000224
        },
        {
          "name": "G#3",
          "midi": 56,
          "time": 176.07226710937508,
          "velocity": 0.3937007874015748,
          "duration": 0.8181810000000382
        },
        {
          "name": "C3",
          "midi": 48,
          "time": 176.37340317187508,
          "velocity": 0.3937007874015748,
          "duration": 0.4090905000000191
        },
        {
          "name": "F3",
          "midi": 53,
          "time": 176.7086301093751,
          "velocity": 0.3937007874015748,
          "duration": 0.4090905000000191
        },
        {
          "name": "G#3",
          "midi": 56,
          "time": 177.0495388593751,
          "velocity": 0.3937007874015748,
          "duration": 0.4090905000000191
        },
        {
          "name": "C3",
          "midi": 48,
          "time": 177.37908398437511,
          "velocity": 0.3937007874015748,
          "duration": 0.13636350000001585
        },
        {
          "name": "G#3",
          "midi": 56,
          "time": 177.68022004687512,
          "velocity": 0.3937007874015748,
          "duration": 0.13636349999998743
        },
        {
          "name": "C#2",
          "midi": 37,
          "time": 178.0040833593751,
          "velocity": 0.3937007874015748,
          "duration": 0.4090905000000191
        },
        {
          "name": "G#4",
          "midi": 68,
          "time": 178.0097651718751,
          "velocity": 0.3937007874015748,
          "duration": 0.4090905000000191
        },
        {
          "name": "G#2",
          "midi": 44,
          "time": 178.3165830468751,
          "velocity": 0.3937007874015748,
          "duration": 0.13636350000001585
        },
        {
          "name": "G4",
          "midi": 67,
          "time": 178.64612817187512,
          "velocity": 0.3937007874015748,
          "duration": 0.2727270000000033
        },
        {
          "name": "F3",
          "midi": 53,
          "time": 178.96430967187513,
          "velocity": 0.3937007874015748,
          "duration": 0.13636350000001585
        },
        {
          "name": "F4",
          "midi": 65,
          "time": 178.97709375000014,
          "velocity": 0.3937007874015748,
          "duration": 0.6803970468750151
        },
        {
          "name": "D#4",
          "midi": 63,
          "time": 179.60067267187515,
          "velocity": 0.3937007874015748,
          "duration": 0.2727270000000033
        },
        {
          "name": "C4",
          "midi": 60,
          "time": 179.91317235937515,
          "velocity": 0.3937007874015748,
          "duration": 0.8181810000000098
        },
        {
          "name": "G#2",
          "midi": 44,
          "time": 179.93021779687516,
          "velocity": 0.3937007874015748,
          "duration": 0.4090905000000191
        },
        {
          "name": "D#3",
          "midi": 51,
          "time": 180.25408110937516,
          "velocity": 0.3937007874015748,
          "duration": 0.2727270000000033
        },
        {
          "name": "G#3",
          "midi": 56,
          "time": 180.58930804687517,
          "velocity": 0.3937007874015748,
          "duration": 0.27272699999997485
        },
        {
          "name": "D#3",
          "midi": 51,
          "time": 180.94158042187516,
          "velocity": 0.3937007874015748,
          "duration": 0.2727270000000033
        },
        {
          "name": "C4",
          "midi": 60,
          "time": 181.23135285937516,
          "velocity": 0.3937007874015748,
          "duration": 0.13636349999998743
        },
        {
          "name": "G#3",
          "midi": 56,
          "time": 181.52112529687514,
          "velocity": 0.3937007874015748,
          "duration": 0.13636350000001585
        },
        {
          "name": "C4",
          "midi": 60,
          "time": 181.53817073437514,
          "velocity": 0.3937007874015748,
          "duration": 0.13636350000001585
        },
        {
          "name": "D#2",
          "midi": 39,
          "time": 181.87339767187515,
          "velocity": 0.3937007874015748,
          "duration": 0.2727270000000033
        },
        {
          "name": "D#4",
          "midi": 63,
          "time": 181.87339767187515,
          "velocity": 0.3937007874015748,
          "duration": 0.8181810000000098
        },
        {
          "name": "A#2",
          "midi": 46,
          "time": 182.15180648437516,
          "velocity": 0.3937007874015748,
          "duration": 0.2727270000000033
        },
        {
          "name": "C#4",
          "midi": 61,
          "time": 182.47993115625016,
          "velocity": 0.3937007874015748,
          "duration": 0.2727270000000033
        },
        {
          "name": "D#3",
          "midi": 51,
          "time": 182.48703342187517,
          "velocity": 0.3937007874015748,
          "duration": 0.2727270000000033
        },
        {
          "name": "C4",
          "midi": 60,
          "time": 182.78674903125017,
          "velocity": 0.3937007874015748,
          "duration": 0.13636350000001585
        },
        {
          "name": "A#2",
          "midi": 46,
          "time": 182.79385129687518,
          "velocity": 0.3937007874015748,
          "duration": 0.2727270000000033
        },
        {
          "name": "D#3",
          "midi": 51,
          "time": 183.08362373437518,
          "velocity": 0.3937007874015748,
          "duration": 0.27272699999997485
        },
        {
          "name": "A#3",
          "midi": 58,
          "time": 183.08930554687518,
          "velocity": 0.3937007874015748,
          "duration": 0.13636349999998743
        },
        {
          "name": "A#3",
          "midi": 58,
          "time": 183.40748704687516,
          "velocity": 0.3937007874015748,
          "duration": 0.13636349999998743
        },
        {
          "name": "A#3",
          "midi": 58,
          "time": 183.71998673437514,
          "velocity": 0.3937007874015748,
          "duration": 0.2727270000000033
        },
        {
          "name": "F2",
          "midi": 41,
          "time": 183.72566854687514,
          "velocity": 0.3937007874015748,
          "duration": 0.8181810000000098
        },
        {
          "name": "C4",
          "midi": 60,
          "time": 184.04385004687515,
          "velocity": 0.3937007874015748,
          "duration": 0.2727270000000033
        },
        {
          "name": "G#3",
          "midi": 56,
          "time": 184.36771335937516,
          "velocity": 0.3937007874015748,
          "duration": 0.4090904999999907
        },
        {
          "name": "C3",
          "midi": 48,
          "time": 184.68021304687514,
          "velocity": 0.3937007874015748,
          "duration": 0.2727270000000033
        },
        {
          "name": "F3",
          "midi": 53,
          "time": 184.98134910937515,
          "velocity": 0.3937007874015748,
          "duration": 0.13636349999998743
        },
        {
          "name": "G#3",
          "midi": 56,
          "time": 185.29384879687512,
          "velocity": 0.3937007874015748,
          "duration": 0.2727270000000033
        },
        {
          "name": "C#2",
          "midi": 37,
          "time": 185.60634848437513,
          "velocity": 0.3937007874015748,
          "duration": 0.4090905000000191
        },
        {
          "name": "G#4",
          "midi": 68,
          "time": 185.61771210937513,
          "velocity": 0.3937007874015748,
          "duration": 0.4090905000000191
        },
        {
          "name": "G#2",
          "midi": 44,
          "time": 185.90748454687514,
          "velocity": 0.3937007874015748,
          "duration": 0.13636350000001585
        },
        {
          "name": "F3",
          "midi": 53,
          "time": 186.20862060937515,
          "velocity": 0.3937007874015748,
          "duration": 0.13636350000001585
        },
        {
          "name": "G4",
          "midi": 67,
          "time": 186.22566604687515,
          "velocity": 0.3937007874015748,
          "duration": 0.2727270000000033
        },
        {
          "name": "F4",
          "midi": 65,
          "time": 186.53248392187515,
          "velocity": 0.3937007874015748,
          "duration": 0.681817499999994
        },
        {
          "name": "D#4",
          "midi": 63,
          "time": 187.15890375000015,
          "velocity": 0.3937007874015748,
          "duration": 0.2727270000000033
        },
        {
          "name": "C4",
          "midi": 60,
          "time": 187.48276706250016,
          "velocity": 0.3937007874015748,
          "duration": 0.8181810000000098
        },
        {
          "name": "G#2",
          "midi": 44,
          "time": 187.49981250000016,
          "velocity": 0.3937007874015748,
          "duration": 0.4090905000000191
        },
        {
          "name": "D#3",
          "midi": 51,
          "time": 187.78958493750017,
          "velocity": 0.3937007874015748,
          "duration": 0.2727270000000033
        },
        {
          "name": "G#3",
          "midi": 56,
          "time": 188.11344825000018,
          "velocity": 0.3937007874015748,
          "duration": 0.2727270000000033
        },
        {
          "name": "C4",
          "midi": 60,
          "time": 188.43731156250018,
          "velocity": 0.3937007874015748,
          "duration": 0.4090905000000191
        },
        {
          "name": "D#3",
          "midi": 51,
          "time": 188.7498112500002,
          "velocity": 0.3937007874015748,
          "duration": 0.2727270000000033
        },
        {
          "name": "C4",
          "midi": 60,
          "time": 189.0282200625002,
          "velocity": 0.3937007874015748,
          "duration": 0.2727270000000033
        },
        {
          "name": "D#2",
          "midi": 39,
          "time": 189.3520833750002,
          "velocity": 0.3937007874015748,
          "duration": 0.9545444999999688
        },
        {
          "name": "D#4",
          "midi": 63,
          "time": 189.3634470000002,
          "velocity": 0.3937007874015748,
          "duration": 0.13636349999998743
        },
        {
          "name": "D#4",
          "midi": 63,
          "time": 189.67026487500019,
          "velocity": 0.3937007874015748,
          "duration": 0.13636349999998743
        },
        {
          "name": "D#4",
          "midi": 63,
          "time": 189.97140093750016,
          "velocity": 0.3937007874015748,
          "duration": 0.2727270000000033
        },
        {
          "name": "A#2",
          "midi": 46,
          "time": 190.28958243750017,
          "velocity": 0.3937007874015748,
          "duration": 0.2727270000000033
        },
        {
          "name": "F4",
          "midi": 65,
          "time": 190.28958243750017,
          "velocity": 0.3937007874015748,
          "duration": 0.2727270000000033
        },
        {
          "name": "C4",
          "midi": 60,
          "time": 190.58503668750018,
          "velocity": 0.3937007874015748,
          "duration": 0.13636349999998743
        },
        {
          "name": "D#3",
          "midi": 51,
          "time": 190.88049093750016,
          "velocity": 0.3937007874015748,
          "duration": 0.13636350000001585
        },
        {
          "name": "C4",
          "midi": 60,
          "time": 190.89753637500016,
          "velocity": 0.3937007874015748,
          "duration": 0.13636350000001585
        },
        {
          "name": "C4",
          "midi": 60,
          "time": 191.20435425000016,
          "velocity": 0.3937007874015748,
          "duration": 0.2727270000000033
        },
        {
          "name": "F2",
          "midi": 41,
          "time": 191.20435425000016,
          "velocity": 0.3937007874015748,
          "duration": 0.8181810000000382
        },
        {
          "name": "A#3",
          "midi": 58,
          "time": 191.50549031250017,
          "velocity": 0.3937007874015748,
          "duration": 0.4090905000000191
        },
        {
          "name": "G#3",
          "midi": 56,
          "time": 191.81799000000018,
          "velocity": 0.3937007874015748,
          "duration": 0.6818175000000224
        },
        {
          "name": "C3",
          "midi": 48,
          "time": 192.1375919531252,
          "velocity": 0.3937007874015748,
          "duration": 0.2727270000000033
        },
        {
          "name": "F3",
          "midi": 53,
          "time": 192.4316257500002,
          "velocity": 0.3937007874015748,
          "duration": 0.13636350000001585
        },
        {
          "name": "C#2",
          "midi": 37,
          "time": 193.0679887500002,
          "velocity": 0.3937007874015748,
          "duration": 0.5454540000000065
        },
        {
          "name": "G#4",
          "midi": 68,
          "time": 193.37480662500022,
          "velocity": 0.3937007874015748,
          "duration": 0.2727270000000033
        },
        {
          "name": "G#2",
          "midi": 44,
          "time": 193.66457906250022,
          "velocity": 0.3937007874015748,
          "duration": 0.2727270000000033
        },
        {
          "name": "G4",
          "midi": 67,
          "time": 193.67736314062523,
          "velocity": 0.3937007874015748,
          "duration": 0.13636349999998743
        },
        {
          "name": "C#3",
          "midi": 49,
          "time": 193.98844237500023,
          "velocity": 0.3937007874015748,
          "duration": 0.13636349999998743
        },
        {
          "name": "F4",
          "midi": 65,
          "time": 193.98844237500023,
          "velocity": 0.3937007874015748,
          "duration": 0.681817499999994
        },
        {
          "name": "D#4",
          "midi": 63,
          "time": 194.63048718750022,
          "velocity": 0.3937007874015748,
          "duration": 0.2727270000000033
        },
        {
          "name": "G#2",
          "midi": 44,
          "time": 194.95435050000023,
          "velocity": 0.3937007874015748,
          "duration": 0.5454540000000065
        },
        {
          "name": "C4",
          "midi": 60,
          "time": 194.95435050000023,
          "velocity": 0.3937007874015748,
          "duration": 0.6818175000000224
        },
        {
          "name": "D#3",
          "midi": 51,
          "time": 195.25548656250024,
          "velocity": 0.3937007874015748,
          "duration": 0.2727270000000033
        },
        {
          "name": "G#3",
          "midi": 56,
          "time": 195.56230443750025,
          "velocity": 0.3937007874015748,
          "duration": 0.4090905000000191
        },
        {
          "name": "C4",
          "midi": 60,
          "time": 195.89753137500026,
          "velocity": 0.3937007874015748,
          "duration": 0.2727270000000033
        },
        {
          "name": "D#3",
          "midi": 51,
          "time": 196.50548531250027,
          "velocity": 0.3937007874015748,
          "duration": 0.13636349999998743
        },
        {
          "name": "C4",
          "midi": 60,
          "time": 196.51684893750027,
          "velocity": 0.3937007874015748,
          "duration": 0.13636349999998743
        },
        {
          "name": "D#4",
          "midi": 63,
          "time": 196.84639406250025,
          "velocity": 0.3937007874015748,
          "duration": 0.8181810000000098
        },
        {
          "name": "D#2",
          "midi": 39,
          "time": 196.85775768750025,
          "velocity": 0.3937007874015748,
          "duration": 1.2286919531250362
        },
        {
          "name": "A#2",
          "midi": 46,
          "time": 197.44298437500026,
          "velocity": 0.3937007874015748,
          "duration": 0.2727270000000033
        },
        {
          "name": "C#4",
          "midi": 61,
          "time": 197.44298437500026,
          "velocity": 0.3937007874015748,
          "duration": 0.2727270000000033
        },
        {
          "name": "C4",
          "midi": 60,
          "time": 197.75548406250027,
          "velocity": 0.3937007874015748,
          "duration": 0.13636350000001585
        },
        {
          "name": "D#3",
          "midi": 51,
          "time": 197.77821131250028,
          "velocity": 0.3937007874015748,
          "duration": 0.5468744531250138
        },
        {
          "name": "A#3",
          "midi": 58,
          "time": 198.04099514062528,
          "velocity": 0.3937007874015748,
          "duration": 0.13636350000001585
        },
        {
          "name": "A#3",
          "midi": 58,
          "time": 198.3421312031253,
          "velocity": 0.3937007874015748,
          "duration": 0.13636349999998743
        },
        {
          "name": "A#3",
          "midi": 58,
          "time": 198.66599451562527,
          "velocity": 0.3937007874015748,
          "duration": 0.2727270000000033
        },
        {
          "name": "F2",
          "midi": 41,
          "time": 198.67735814062527,
          "velocity": 0.3937007874015748,
          "duration": 0.6818175000000224
        },
        {
          "name": "C4",
          "midi": 60,
          "time": 198.97281239062528,
          "velocity": 0.3937007874015748,
          "duration": 0.2727270000000033
        },
        {
          "name": "C3",
          "midi": 48,
          "time": 199.6390049062503,
          "velocity": 0.3937007874015748,
          "duration": 0.13636349999998743
        },
        {
          "name": "G#3",
          "midi": 56,
          "time": 199.6446867187503,
          "velocity": 0.3937007874015748,
          "duration": 0.13636349999998743
        },
        {
          "name": "C#2",
          "midi": 37,
          "time": 200.6049130312503,
          "velocity": 0.3937007874015748,
          "duration": 0.4090904999999907
        },
        {
          "name": "C#4",
          "midi": 61,
          "time": 200.6162766562503,
          "velocity": 0.3937007874015748,
          "duration": 0.4090904999999907
        },
        {
          "name": "G#2",
          "midi": 44,
          "time": 200.6162766562503,
          "velocity": 0.3937007874015748,
          "duration": 0.4090904999999907
        },
        {
          "name": "C#3",
          "midi": 49,
          "time": 201.5495143593753,
          "velocity": 0.3937007874015748,
          "duration": 0.13636350000001585
        },
        {
          "name": "C4",
          "midi": 60,
          "time": 201.5665597968753,
          "velocity": 0.3937007874015748,
          "duration": 0.13636350000001585
        },
        {
          "name": "G#3",
          "midi": 56,
          "time": 202.25974092187533,
          "velocity": 0.3937007874015748,
          "duration": 0.13636349999998743
        },
        {
          "name": "A#3",
          "midi": 58,
          "time": 202.39042260937532,
          "velocity": 0.3937007874015748,
          "duration": 0.13636349999998743
        },
        {
          "name": "A#3",
          "midi": 58,
          "time": 202.5665587968753,
          "velocity": 0.3937007874015748,
          "duration": 0.13778395312502312
        },
        {
          "name": "G#2",
          "midi": 44,
          "time": 202.60775193750032,
          "velocity": 0.3937007874015748,
          "duration": 1.2286919531250362
        },
        {
          "name": "D#3",
          "midi": 51,
          "time": 202.61911556250033,
          "velocity": 0.3937007874015748,
          "duration": 0.4090905000000191
        },
        {
          "name": "C4",
          "midi": 60,
          "time": 202.69866093750034,
          "velocity": 0.3937007874015748,
          "duration": 0.8181810000000098
        },
        {
          "name": "D#3",
          "midi": 51,
          "time": 203.59070550000035,
          "velocity": 0.3937007874015748,
          "duration": 0.2727270000000033
        },
        {
          "name": "A#3",
          "midi": 58,
          "time": 203.59780776562536,
          "velocity": 0.3937007874015748,
          "duration": 0.13636349999998743
        },
        {
          "name": "C#4",
          "midi": 61,
          "time": 204.57934087500036,
          "velocity": 0.3937007874015748,
          "duration": 0.8196014531249887
        },
        {
          "name": "D#2",
          "midi": 39,
          "time": 204.57934087500036,
          "velocity": 0.3937007874015748,
          "duration": 1.6377824531249985
        },
        {
          "name": "A#2",
          "midi": 46,
          "time": 204.89326101562534,
          "velocity": 0.3937007874015748,
          "duration": 0.2727270000000033
        },
        {
          "name": "D#3",
          "midi": 51,
          "time": 205.21144251562535,
          "velocity": 0.3937007874015748,
          "duration": 1.2286919531250078
        },
        {
          "name": "C4",
          "midi": 60,
          "time": 205.57649896875034,
          "velocity": 0.3937007874015748,
          "duration": 0.6818175000000224
        },
        {
          "name": "G#3",
          "midi": 56,
          "time": 206.26399828125037,
          "velocity": 0.3937007874015748,
          "duration": 0.2727270000000033
        },
        {
          "name": "C#2",
          "midi": 37,
          "time": 206.62621382812537,
          "velocity": 0.3937007874015748,
          "duration": 3.6832349531250372
        },
        {
          "name": "C4",
          "midi": 60,
          "time": 206.66030470312538,
          "velocity": 0.3937007874015748,
          "duration": 1.0923284531250204
        },
        {
          "name": "G#2",
          "midi": 44,
          "time": 206.97990665625036,
          "velocity": 0.3937007874015748,
          "duration": 3.2741444531250465
        },
        {
          "name": "C#3",
          "midi": 49,
          "time": 207.30376996875037,
          "velocity": 0.3937007874015748,
          "duration": 3.410507953125034
        },
        {
          "name": "A#3",
          "midi": 58,
          "time": 207.6674059687504,
          "velocity": 0.3937007874015748,
          "duration": 1.0923284531250204
        },
        {
          "name": "C#4",
          "midi": 61,
          "time": 208.6801890468754,
          "velocity": 0.3937007874015748,
          "duration": 0.5454540000000065
        },
        {
          "name": "C4",
          "midi": 60,
          "time": 209.7767788593754,
          "velocity": 0.3937007874015748,
          "duration": 0.681817499999994
        },
        {
          "name": "F3",
          "midi": 53,
          "time": 209.7824606718754,
          "velocity": 0.3937007874015748,
          "duration": 0.681817499999994
        },
        {
          "name": "G#3",
          "midi": 56,
          "time": 210.5154144843754,
          "velocity": 0.3937007874015748,
          "duration": 0.2727270000000033
        },
        {
          "name": "A#3",
          "midi": 58,
          "time": 210.6929711250004,
          "velocity": 0.3937007874015748,
          "duration": 0.2727270000000033
        },
        {
          "name": "D#2",
          "midi": 39,
          "time": 210.9031981875004,
          "velocity": 0.3937007874015748,
          "duration": 5.727267000000012
        },
        {
          "name": "C4",
          "midi": 60,
          "time": 210.9145618125004,
          "velocity": 0.3937007874015748,
          "duration": 1.0909079999999847
        },
        {
          "name": "A#2",
          "midi": 46,
          "time": 211.5963793125004,
          "velocity": 0.3937007874015748,
          "duration": 4.909086000000002
        },
        {
          "name": "A#3",
          "midi": 58,
          "time": 211.9997880000004,
          "velocity": 0.3937007874015748,
          "duration": 1.2272715000000005
        },
        {
          "name": "D#3",
          "midi": 51,
          "time": 212.7497872500004,
          "velocity": 0.3937007874015748,
          "duration": 3.8181780000000174
        },
        {
          "name": "C#4",
          "midi": 61,
          "time": 213.2441049375004,
          "velocity": 0.3937007874015748,
          "duration": 1.4999985000000038
        },
        {
          "name": "C4",
          "midi": 60,
          "time": 214.7852965781254,
          "velocity": 0.3937007874015748,
          "duration": 2.3167590468750063
        },
        {
          "name": "G3",
          "midi": 55,
          "time": 214.8066033750004,
          "velocity": 0.3937007874015748,
          "duration": 1.772725500000007
        },
        {
          "name": "G#3",
          "midi": 56,
          "time": 217.0608624843754,
          "velocity": 0.3937007874015748,
          "duration": 0.13636350000001585
        },
        {
          "name": "G#1",
          "midi": 32,
          "time": 217.93586160937542,
          "velocity": 0.3937007874015748,
          "duration": 1.7727255000000355
        },
        {
          "name": "D#2",
          "midi": 39,
          "time": 218.04381604687543,
          "velocity": 0.3937007874015748,
          "duration": 1.7727255000000355
        },
        {
          "name": "G#2",
          "midi": 44,
          "time": 218.12904323437544,
          "velocity": 0.3937007874015748,
          "duration": 1.4999985000000038
        },
        {
          "name": "C3",
          "midi": 48,
          "time": 218.15745229687545,
          "velocity": 0.3937007874015748,
          "duration": 2.0454525000000388
        },
        {
          "name": "D#3",
          "midi": 51,
          "time": 218.24267948437546,
          "velocity": 0.3937007874015748,
          "duration": 2.0454525000000388
        },
        {
          "name": "G#3",
          "midi": 56,
          "time": 218.36767935937544,
          "velocity": 0.3937007874015748,
          "duration": 1.7727255000000355
        },
        {
          "name": "C#3",
          "midi": 49,
          "time": 220.2881319843755,
          "velocity": 0.3937007874015748,
          "duration": 0.13636349999998743
        },
        {
          "name": "C3",
          "midi": 48,
          "time": 220.5324499218755,
          "velocity": 0.3937007874015748,
          "duration": 0.13636349999998743
        },
        {
          "name": "D#3",
          "midi": 51,
          "time": 220.7029042968755,
          "velocity": 0.3937007874015748,
          "duration": 0.13636349999998743
        },
        {
          "name": "D#4",
          "midi": 63,
          "time": 221.4472217343755,
          "velocity": 0.3937007874015748,
          "duration": 0.13636349999998743
        },
        {
          "name": "C5",
          "midi": 72,
          "time": 222.09494835937548,
          "velocity": 0.3937007874015748,
          "duration": 0.4090904999999907
        },
        {
          "name": "D#5",
          "midi": 75,
          "time": 222.36199354687548,
          "velocity": 0.3937007874015748,
          "duration": 0.4090904999999907
        },
        {
          "name": "G#3",
          "midi": 56,
          "time": 223.12903823437549,
          "velocity": 0.3937007874015748,
          "duration": 0.8181810000000667
        },
        {
          "name": "C4",
          "midi": 60,
          "time": 223.2256290468755,
          "velocity": 0.3937007874015748,
          "duration": 0.6818175000000508
        },
        {
          "name": "D#4",
          "midi": 63,
          "time": 223.2540381093755,
          "velocity": 0.3937007874015748,
          "duration": 0.545454000000035
        },
        {
          "name": "G#5",
          "midi": 80,
          "time": 223.3960834218755,
          "velocity": 0.3937007874015748,
          "duration": 1.9105094531250586
        },
        {
          "name": "G#4",
          "midi": 68,
          "time": 223.4188106718755,
          "velocity": 0.3937007874015748,
          "duration": 0.40909050000004754
        },
        {
          "name": "C6",
          "midi": 84,
          "time": 223.5324469218755,
          "velocity": 0.3937007874015748,
          "duration": 1.7741459531250428
        },
        {
          "name": "D#6",
          "midi": 87,
          "time": 223.62903773437552,
          "velocity": 0.3937007874015748,
          "duration": 1.637782453125027
        },
        {
          "name": "G#6",
          "midi": 92,
          "time": 223.73131035937553,
          "velocity": 0.3937007874015748,
          "duration": 1.501418953125011
        },
        {
          "name": "D#2",
          "midi": 39,
          "time": 224.71000256250056,
          "velocity": 0.3937007874015748,
          "duration": 0.13636349999998743
        },
        {
          "name": "G#1",
          "midi": 32,
          "time": 224.71000256250056,
          "velocity": 0.3937007874015748,
          "duration": 0.13636349999998743
        },
        {
          "name": "G#2",
          "midi": 44,
          "time": 224.72136618750056,
          "velocity": 0.3937007874015748,
          "duration": 0.13636349999998743
        },
        {
          "name": "G#3",
          "midi": 56,
          "time": 258.6304231875005,
          "velocity": 0.3937007874015748,
          "duration": 0.2727270000000317
        },
        {
          "name": "A#3",
          "midi": 58,
          "time": 258.86905931250055,
          "velocity": 0.3937007874015748,
          "duration": 0.13636350000001585
        },
        {
          "name": "C4",
          "midi": 60,
          "time": 259.2724680000006,
          "velocity": 0.3937007874015748,
          "duration": 0.136363499999959
        },
        {
          "name": "D#4",
          "midi": 63,
          "time": 259.39604742187555,
          "velocity": 0.3937007874015748,
          "duration": 0.136363499999959
        },
        {
          "name": "C5",
          "midi": 72,
          "time": 259.73695617187553,
          "velocity": 0.3937007874015748,
          "duration": 0.136363499999959
        },
        {
          "name": "D#5",
          "midi": 75,
          "time": 259.8335469843755,
          "velocity": 0.3937007874015748,
          "duration": 0.136363499999959
        },
        {
          "name": "G#5",
          "midi": 80,
          "time": 259.90172873437547,
          "velocity": 0.3937007874015748,
          "duration": 0.13636350000001585
        },
        {
          "name": "C6",
          "midi": 84,
          "time": 260.1517284843755,
          "velocity": 0.3937007874015748,
          "duration": 0.13636350000001585
        },
        {
          "name": "D#6",
          "midi": 87,
          "time": 260.2426374843755,
          "velocity": 0.3937007874015748,
          "duration": 0.13636350000001585
        },
        {
          "name": "G#6",
          "midi": 92,
          "time": 260.3846827968755,
          "velocity": 0.3937007874015748,
          "duration": 0.13636350000001585
        }
      ],
      "controlChanges": {},
      "id": 0,
      "name": "Acoustic Guitar",
      "instrumentNumber": 27,
      "instrument": "electric guitar (clean)",
      "instrumentFamily": "guitar",
      "channelNumber": 0,
      "isPercussion": false
    }
  ]
}